<svg width="20" height="20" viewBox="0 0 1026 1026" fill="none" xmlns="http://www.w3.org/2000/svg">
<path d="M928 909C922 879 885 822 817 738C749 654 664.833 561.833 564.5 461.5C464.167 361.167 372 277 288 209C204 141 147 104 117 98C173 46 242.833 14.6667 326.5 4.00002C410.167 -6.66665 497 4.83335 587 38.5C677 72.1667 757.833 124.833 829.5 196.5C901.167 268.167 953.833 349 987.5 439C1021.17 529 1032.67 615.833 1022 699.5C1011.33 783.167 980 853 928 909ZM461.5 564.5C561.833 664.833 654 749 738 817C822 885 879 922 909 928C853 980 783.167 1011.33 699.5 1022C615.833 1032.67 529 1021.17 439 987.5C349 953.833 268.167 901.167 196.5 829.5C124.833 757.833 72.1667 677 38.5 587C4.83335 497 -6.66665 410.167 4.00002 326.5C14.6667 242.833 46 173 98 117C104 147 141 204 209 288C277 372 361.167 464.167 461.5 564.5Z" fill="black"/>
</svg>
