<svg width="14" height="19" viewBox="0 0 14 19" fill="none" xmlns="http://www.w3.org/2000/svg">
<path d="M6.875 0C3.08594 0 1.03453e-06 3.08594 1.03453e-06 6.875V14.9441C-0.000735762 15.9449 0.392116 16.9059 1.09375 17.6195C1.43786 17.9767 1.85042 18.2609 2.3068 18.4552C2.76318 18.6494 3.25401 18.7497 3.75 18.75C5.18985 18.75 6.37422 18.1398 7.27031 16.9367C7.44531 16.7023 7.64336 16.3609 7.87266 15.966C8.4711 14.9359 9.29024 13.5258 10.3402 12.8121C11.3469 12.1281 12.1852 11.2676 12.7621 10.323C13.4184 9.25547 13.75 8.09531 13.75 6.875C13.75 3.08594 10.666 0 6.875 0ZM10.625 7.1875C10.4592 7.1875 10.3003 7.12165 10.1831 7.00444C10.0658 6.88723 10 6.72826 10 6.5625C10 5.01172 8.59805 3.75 6.875 3.75C5.15195 3.75 3.75 5.01172 3.75 6.5625V7.75078C4.81211 7.44453 6.03125 7.48828 6.26094 7.5C6.60393 7.50327 6.93944 7.60056 7.23098 7.78128C7.52251 7.962 7.75888 8.21922 7.91437 8.52496C8.06985 8.83069 8.13849 9.17322 8.11282 9.51526C8.08714 9.8573 7.96814 10.1857 7.76875 10.4648C7.75703 10.4809 7.74492 10.4965 7.73164 10.5117C7.08516 11.2539 6.32539 12.2883 6.2293 12.6602C6.18438 12.8173 6.07966 12.9507 5.9376 13.0315C5.79553 13.1124 5.62743 13.1344 5.46934 13.0928C5.31125 13.0512 5.17574 12.9494 5.09188 12.809C5.00801 12.6687 4.98246 12.5011 5.0207 12.3422C5.23594 11.5242 6.46328 10.0687 6.76524 9.71914C6.82741 9.62489 6.86289 9.51555 6.8679 9.40275C6.87291 9.28995 6.84728 9.1779 6.79371 9.0785C6.74015 8.9791 6.66065 8.89607 6.56368 8.83823C6.46671 8.78039 6.35588 8.7499 6.24297 8.75H6.2086C5.56016 8.71523 4.41602 8.78125 3.75 9.07461V11.25C3.75 11.4158 3.68415 11.5747 3.56694 11.6919C3.44973 11.8092 3.29076 11.875 3.125 11.875C2.95924 11.875 2.80027 11.8092 2.68306 11.6919C2.56585 11.5747 2.5 11.4158 2.5 11.25V6.5625C2.5 4.32227 4.4625 2.5 6.875 2.5C9.2875 2.5 11.25 4.32227 11.25 6.5625C11.25 6.72826 11.1842 6.88723 11.0669 7.00444C10.9497 7.12165 10.7908 7.1875 10.625 7.1875Z" fill="black"/>
</svg>
