<svg width="753" height="872" viewBox="0 0 753 872" fill="none" xmlns="http://www.w3.org/2000/svg">
<path d="M552 236V188C552 183.6 548.4 180 544 180H160C155.6 180 152 183.6 152 188V236C152 240.4 155.6 244 160 244H544C548.4 244 552 240.4 552 236ZM160 324C155.6 324 152 327.6 152 332V380C152 384.4 155.6 388 160 388H344C348.4 388 352 384.4 352 380V332C352 327.6 348.4 324 344 324H160ZM304 776H72V72H632V416C632 420.4 635.6 424 640 424H696C700.4 424 704 420.4 704 416V32C704 14.3 689.7 0 672 0H32C14.3 0 0 14.3 0 32V816C0 833.7 14.3 848 32 848H304C308.4 848 312 844.4 312 840V784C312 779.6 308.4 776 304 776ZM749.7 827.5L656.4 734.2C678.7 704.7 692 667.9 692 628C692 530.8 613.2 452 516 452C418.8 452 340 530.8 340 628C340 725.2 418.8 804 516 804C551.8 804 585 793.3 612.8 775L707.5 869.7C709.1 871.3 711.1 872 713.1 872C715.1 872 717.2 871.2 718.7 869.7L749.7 838.7C750.438 837.966 751.023 837.093 751.423 836.132C751.822 835.171 752.028 834.141 752.028 833.1C752.028 832.059 751.822 831.029 751.423 830.068C751.023 829.107 750.438 828.234 749.7 827.5V827.5ZM516 740C454.1 740 404 689.9 404 628C404 566.1 454.1 516 516 516C577.9 516 628 566.1 628 628C628 689.9 577.9 740 516 740Z" fill="black"/>
</svg>
