<svg width="872" height="652" viewBox="0 0 872 652" fill="none" xmlns="http://www.w3.org/2000/svg">
<path d="M866.2 300.2C771.4 100.5 628.1 0 436 0C243.8 0 100.6 100.5 5.79992 300.3C1.99746 308.352 0.0253906 317.146 0.0253906 326.05C0.0253906 334.954 1.99746 343.748 5.79992 351.8C100.6 551.5 243.9 652 436 652C628.2 652 771.4 551.5 866.2 351.7C873.9 335.5 873.9 316.7 866.2 300.2V300.2ZM436 580C274.7 580 156.6 498.2 73.2999 326C156.6 153.8 274.7 72 436 72C597.3 72 715.4 153.8 798.7 326C715.5 498.2 597.4 580 436 580ZM432 150C334.8 150 256 228.8 256 326C256 423.2 334.8 502 432 502C529.2 502 608 423.2 608 326C608 228.8 529.2 150 432 150ZM432 438C370.1 438 320 387.9 320 326C320 264.1 370.1 214 432 214C493.9 214 544 264.1 544 326C544 387.9 493.9 438 432 438Z" fill="black"/>
</svg>
