<svg width="1278" height="451" viewBox="0 0 1278 451" fill="none" xmlns="http://www.w3.org/2000/svg">
<path d="M811.468 427.994H870.113C870.113 387.892 902.677 355.328 942.779 355.328C982.88 355.328 1015.44 387.892 1015.44 427.994H1074.09C950.467 331.207 950.467 59.0867 950.467 59.0867H935.09C935.09 59.0867 935.09 331.207 811.468 427.994ZM917.225 301.055C921.974 287.411 926.12 278.139 929.813 264.42H955.744C959.437 278.139 963.583 287.411 968.332 301.055H917.225ZM942.779 147.658C944.135 155.271 945.643 198.916 947.301 216.027H938.18C939.839 198.916 941.346 155.271 942.779 147.658Z" fill="#F2FFFB"/>
<path d="M942.779 26.7489L949.261 52.3779H936.296L942.779 26.7489Z" fill="#F2FFFB"/>
<path d="M1077.41 429.2H1014.24V427.994C1014.24 388.57 982.127 356.459 942.703 356.459C903.28 356.459 871.168 388.57 871.168 427.994V429.125H808L810.638 427.014C838.679 405.079 862.575 372.062 881.721 329.021C897.099 294.497 909.385 253.415 918.356 206.981C933.582 127.908 933.808 59.6897 933.808 59.0113V57.8806H951.523V59.0113C951.523 59.6897 951.673 127.908 966.975 206.981C975.946 253.415 988.232 294.421 1003.61 328.945C1022.76 371.987 1046.65 405.003 1074.69 426.939L1077.41 429.2ZM1016.58 426.863H1070.7C1043.49 404.702 1020.19 372.138 1001.5 330.001C986.122 295.326 973.684 254.093 964.714 207.509C950.543 133.863 949.337 69.6398 949.261 60.2928H936.221C936.145 69.6398 934.939 133.863 920.768 207.509C911.798 254.093 899.36 295.326 883.983 330.001C865.288 372.062 841.996 404.626 814.784 426.863H868.907C869.51 386.686 902.375 354.197 942.703 354.197C983.107 354.197 1015.97 386.686 1016.58 426.863ZM969.915 302.261H915.567L916.094 300.678C917.677 296.155 919.185 292.16 920.617 288.316C923.481 280.627 926.195 273.315 928.683 264.119L928.909 263.29H956.573L956.799 264.119C959.211 273.315 962 280.552 964.865 288.316C966.297 292.16 967.805 296.231 969.388 300.678L969.915 302.261ZM918.883 299.924H966.674C965.317 296.08 964.036 292.537 962.754 289.145C959.965 281.607 957.251 274.521 954.839 265.626H930.718C928.306 274.521 925.667 281.607 922.803 289.145C921.521 292.537 920.24 296.004 918.883 299.924ZM948.583 217.157H936.899L937.05 215.876C937.803 207.961 938.557 194.242 939.311 180.975C940.14 165.824 940.894 151.577 941.648 147.431L942.779 141.1L943.909 147.431C944.663 151.577 945.417 165.824 946.246 180.975C947 194.242 947.678 207.961 948.507 215.876L948.583 217.157ZM939.462 214.821H946.02C945.266 206.68 944.588 193.714 943.909 181.126C943.532 173.814 943.155 166.729 942.779 160.849C942.402 166.729 942.025 173.814 941.648 181.126C940.894 193.714 940.216 206.68 939.462 214.821Z" fill="#231F1C"/>
<rect x="931" y="49" width="14" height="13" fill="#F2FFFB"/>
<path d="M955.065 48.609H942V62.705H955.065V48.609Z" fill="#21CE99"/>
<path d="M950.693 53.584H934.788L942.778 22L950.693 53.584ZM937.803 51.2473H947.753L942.778 31.5732L937.803 51.2473Z" fill="#231F1C"/>
<path d="M954.085 63.1572L948.96 51.4734L943.834 63.1572L941.723 62.2526L947.904 48.1567C948.055 47.7044 948.507 47.4783 948.96 47.4783C949.412 47.4783 949.864 47.7798 950.015 48.1567L956.196 62.2526L954.085 63.1572Z" fill="#231F1C"/>
<path d="M941.723 63.1572L936.597 51.4734L931.472 63.1572L929.361 62.2526L935.542 48.1567C935.693 47.7044 936.145 47.4783 936.597 47.4783C937.05 47.4783 937.502 47.7798 937.653 48.1567L943.834 62.2526L941.723 63.1572Z" fill="#231F1C"/>
<path d="M985.896 225.525H943.683V248.892H985.896V225.525Z" fill="#21CE99"/>
<path d="M1019.82 312.965H940.668V334.825H1019.82V312.965Z" fill="#21CE99"/>
<path d="M956.271 63.911H929.21V47.4783H956.271V63.911ZM931.547 61.5742H953.935V49.815H931.547V61.5742Z" fill="#231F1C"/>
<path d="M988.157 250.249H897.4V224.243H988.157V250.249ZM899.662 247.912H985.745V226.58H899.662V247.912Z" fill="#231F1C"/>
<path d="M1020.87 336.106H864.685V311.457H1020.87V336.106ZM867.022 333.77H1018.53V313.794H867.022V333.77Z" fill="#231F1C"/>
<path d="M1018.84 335.729L1008.81 315.528L998.786 335.729L996.675 334.674L1007.76 312.362C1008.13 311.533 1009.49 311.533 1009.87 312.362L1020.95 334.674L1018.84 335.729Z" fill="#231F1C"/>
<path d="M976.699 335.729L974.589 334.674L985.67 312.362C985.896 311.985 986.273 311.683 986.725 311.683C987.177 311.683 987.554 311.909 987.78 312.362L998.861 334.674L996.75 335.729L986.725 315.528L976.699 335.729Z" fill="#231F1C"/>
<path d="M974.664 335.729L964.639 315.528L954.613 335.729L952.502 334.674L963.583 312.362C963.96 311.533 965.317 311.533 965.694 312.362L976.775 334.674L974.664 335.729Z" fill="#231F1C"/>
<path d="M953.03 335.729L943.005 315.528L932.979 335.729L930.869 334.674L941.949 312.362C942.326 311.533 943.683 311.533 944.06 312.362L955.141 334.674L953.03 335.729Z" fill="#231F1C"/>
<path d="M930.869 335.729L920.843 315.528L910.818 335.729L908.707 334.674L919.788 312.362C920.165 311.533 921.522 311.533 921.899 312.362L932.979 334.674L930.869 335.729Z" fill="#231F1C"/>
<path d="M908.782 335.729L898.757 315.528L888.732 335.729L886.621 334.674L897.702 312.362C898.079 311.533 899.435 311.533 899.812 312.362L910.893 334.674L908.782 335.729Z" fill="#231F1C"/>
<path d="M886.696 335.729L876.671 315.528L866.645 335.729L864.535 334.674L875.615 312.362C875.992 311.533 877.349 311.533 877.726 312.362L888.807 334.674L886.696 335.729Z" fill="#231F1C"/>
<path d="M965.92 248.892L963.809 247.837L974.89 225.525C975.116 225.148 975.493 224.846 975.946 224.846C976.398 224.846 976.775 225.072 977.001 225.525L988.082 247.837L985.971 248.892L975.946 228.691L965.92 248.892Z" fill="#231F1C"/>
<path d="M963.81 248.892L953.784 228.69L943.759 248.892L941.648 247.837L952.729 225.525C953.106 224.695 954.462 224.695 954.839 225.525L965.92 247.837L963.81 248.892Z" fill="#231F1C"/>
<path d="M921.672 248.892L919.562 247.837L930.642 225.525C930.869 225.148 931.245 224.846 931.698 224.846C932.15 224.846 932.527 225.072 932.753 225.525L943.834 247.837L941.723 248.892L931.698 228.691L921.672 248.892Z" fill="#231F1C"/>
<path d="M919.562 248.892L909.536 228.69L899.511 248.892L897.4 247.837L908.481 225.525C908.858 224.695 910.215 224.695 910.592 225.525L921.672 247.837L919.562 248.892Z" fill="#231F1C"/>
<path d="M225.5 71.0999C225.5 61.0999 217.4 52.8999 207.3 52.8999C202.9 52.8999 198.9 54.4999 195.7 56.9999C191.9 52.2999 186.1 49.2 179.5 49.2C168.1 49.2 158.8 58.4999 158.8 69.8999C158.8 72.1999 159.2 74.4999 159.9 76.5999H224.5C225.1 74.8999 225.5 72.9999 225.5 71.0999Z" fill="#71E08A"/>
<path d="M224.6 77.4999H159.9C159.5 77.4999 159.2 77.2999 159.1 76.8999C158.3 74.6999 158 72.2999 158 69.9999C158 58.0999 167.7 48.3999 179.6 48.3999C185.9 48.3999 191.8 51.0999 195.9 55.7999C199.2 53.2999 203.2 51.9999 207.3 51.9999C217.8 51.9999 226.3 60.4999 226.3 70.9999C226.3 72.9999 226 74.8999 225.4 76.7999C225.3 77.1999 225 77.4999 224.6 77.4999ZM160.6 75.7999H223.9C224.3 74.2999 224.6 72.6999 224.6 71.0999C224.6 61.4999 216.8 53.7999 207.3 53.7999C203.3 53.7999 199.4 55.1999 196.3 57.6999C196.1 57.7999 195.9 57.8999 195.7 57.8999C195.5 57.8999 195.3 57.7999 195.1 57.5999C191.3 52.8999 185.7 50.1999 179.6 50.1999C168.7 50.1999 159.7 59.0999 159.7 70.0999C159.7 71.8999 160 73.8999 160.6 75.7999Z" fill="#41423F"/>
<path d="M231 85.3998H175.5C175 85.3998 174.6 84.9998 174.6 84.4998C174.6 83.9998 175 83.5999 175.5 83.5999H231C231.5 83.5999 231.9 83.9998 231.9 84.4998C231.9 84.9998 231.5 85.3998 231 85.3998Z" fill="#41423F"/>
<path d="M267.2 85.3998H240.9C240.4 85.3998 240 84.9998 240 84.4998C240 83.9998 240.4 83.5999 240.9 83.5999H267.2C267.7 83.5999 268.1 83.9998 268.1 84.4998C268.1 84.9998 267.7 85.3998 267.2 85.3998Z" fill="#41423F"/>
<path d="M1131.7 214.6C1131.7 204.6 1139.8 196.4 1149.9 196.4C1154.3 196.4 1158.3 198 1161.5 200.5C1165.3 195.8 1171.1 192.7 1177.7 192.7C1189.1 192.7 1198.4 202 1198.4 213.4C1198.4 215.7 1198 218 1197.3 220.1H1132.7C1132 218.4 1131.7 216.5 1131.7 214.6Z" fill="#71E08A"/>
<path d="M1197.2 221H1132.6C1132.2 221 1131.9 220.8 1131.8 220.4C1131.2 218.5 1130.9 216.6 1130.9 214.6C1130.9 204.1 1139.4 195.6 1149.9 195.6C1154 195.6 1158 196.9 1161.3 199.4C1165.4 194.7 1171.3 192 1177.6 192C1189.5 192 1199.2 201.7 1199.2 213.6C1199.2 216 1198.8 218.3 1198 220.5C1197.9 220.8 1197.6 221 1197.2 221ZM1133.2 219.3H1196.6C1197.2 217.4 1197.5 215.5 1197.5 213.5C1197.5 202.6 1188.6 193.6 1177.6 193.6C1171.5 193.6 1165.9 196.3 1162.1 201C1162 201.2 1161.7 201.3 1161.5 201.3C1161.3 201.3 1161 201.3 1160.9 201.1C1157.8 198.6 1153.9 197.2 1149.9 197.2C1140.3 197.2 1132.6 205 1132.6 214.5C1132.5 216.2 1132.8 217.8 1133.2 219.3Z" fill="#41423F"/>
<path d="M1181.6 228.9H1126.1C1125.6 228.9 1125.2 228.5 1125.2 228C1125.2 227.5 1125.6 227.1 1126.1 227.1H1181.6C1182.1 227.1 1182.5 227.5 1182.5 228C1182.4 228.6 1182.1 228.9 1181.6 228.9Z" fill="#41423F"/>
<path d="M1116.2 228.9H1089.9C1089.4 228.9 1089 228.5 1089 228C1089 227.5 1089.4 227.1 1089.9 227.1H1116.2C1116.7 227.1 1117.1 227.5 1117.1 228C1117.1 228.6 1116.7 228.9 1116.2 228.9Z" fill="#41423F"/>
<path d="M526.8 112.9C526.8 102.9 534.9 94.7 545 94.7C549.4 94.7 553.4 96.3 556.6 98.8C560.4 94.1 566.2 91 572.8 91C584.2 91 593.5 100.3 593.5 111.7C593.5 114 593.1 116.3 592.4 118.4H527.8C527.1 116.7 526.8 114.9 526.8 112.9Z" fill="#71E08A"/>
<path d="M592.3 119.3H527.7C527.3 119.3 527 119.1 526.9 118.7C526.3 116.8 526 114.9 526 112.9C526 102.4 534.5 93.9 545 93.9C549.1 93.9 553.1 95.2 556.4 97.7C560.5 93 566.4 90.3 572.7 90.3C584.6 90.3 594.3 100 594.3 111.9C594.3 114.3 593.9 116.6 593.2 118.8C593 119.1 592.7 119.3 592.3 119.3ZM528.3 117.6H591.7C592.3 115.7 592.6 113.8 592.6 111.8C592.6 100.9 583.7 91.9 572.7 91.9C566.6 91.9 561 94.6 557.2 99.3C557.1 99.5 556.8 99.6 556.6 99.6C556.4 99.6 556.1 99.6 556 99.4C552.9 96.9 549 95.5 545 95.5C535.4 95.5 527.7 103.3 527.7 112.8C527.7 114.5 527.9 116.1 528.3 117.6Z" fill="#41423F"/>
<path d="M563.5 111.5H508C507.5 111.5 507.1 111.1 507.1 110.6C507.1 110.1 507.5 109.7 508 109.7H563.5C564 109.7 564.4 110.1 564.4 110.6C564.3 111.1 563.9 111.5 563.5 111.5Z" fill="#41423F"/>
<path d="M498.1 112.1H480.5C480 112.1 479.6 111.7 479.6 111.2C479.6 110.7 480 110.3 480.5 110.3H498.1C498.6 110.3 499 110.7 499 111.2C499 111.7 498.6 112.1 498.1 112.1Z" fill="#41423F"/>
<path d="M1056 110.5C1056 102.3 1049.4 95.6999 1041.2 95.6999C1037.6 95.6999 1034.4 96.9999 1031.8 99.0999C1028.7 95.2999 1024 92.7999 1018.7 92.7999C1009.4 92.7999 1001.9 100.3 1001.9 109.6C1001.9 111.5 1002.2 113.3 1002.8 115H1055.3C1055.7 113.6 1056 112.1 1056 110.5Z" fill="#71E08A"/>
<path d="M1055.3 115.9H1002.8C1002.4 115.9 1002.1 115.7 1002 115.3C1001.4 113.5 1001.1 111.5 1001.1 109.6C1001.1 99.7999 1009 91.8999 1018.8 91.8999C1023.9 91.8999 1028.7 94.0999 1032.1 97.8999C1034.8 95.8999 1038 94.8999 1041.4 94.8999C1050 94.8999 1057 101.9 1057 110.5C1057 112.1 1056.7 113.7 1056.3 115.3C1056 115.7 1055.7 115.9 1055.3 115.9ZM1003.4 114.2H1054.7C1055 113 1055.2 111.8 1055.2 110.5C1055.2 102.8 1049 96.5999 1041.3 96.5999C1038.1 96.5999 1034.9 97.6999 1032.5 99.7999C1032.3 99.8999 1032.1 99.9999 1031.9 99.9999C1031.7 99.9999 1031.5 99.8999 1031.3 99.6999C1028.2 95.8999 1023.7 93.6999 1018.8 93.6999C1010 93.6999 1002.8 100.9 1002.8 109.7C1002.7 111.2 1002.9 112.7 1003.4 114.2Z" fill="#41423F"/>
<path d="M1071.3 109.5H1026.2C1025.7 109.5 1025.3 109.1 1025.3 108.6C1025.3 108.1 1025.7 107.7 1026.2 107.7H1071.3C1071.8 107.7 1072.2 108.1 1072.2 108.6C1072.1 109.1 1071.7 109.5 1071.3 109.5Z" fill="#41423F"/>
<path d="M1093.6 110H1079.3C1078.8 110 1078.4 109.6 1078.4 109.1C1078.4 108.6 1078.8 108.2 1079.3 108.2H1093.6C1094.1 108.2 1094.5 108.6 1094.5 109.1C1094.5 109.7 1094.1 110 1093.6 110Z" fill="#41423F"/>
<path d="M965.4 33.6999C960.8 33.6999 957 29.8999 957 25.2999C957 20.6999 960.8 16.8999 965.4 16.8999C970 16.8999 973.8 20.6999 973.8 25.2999C973.8 29.9999 970 33.6999 965.4 33.6999ZM965.4 18.5999C961.7 18.5999 958.7 21.5999 958.7 25.2999C958.7 28.9999 961.7 31.9999 965.4 31.9999C969.1 31.9999 972.1 28.9999 972.1 25.2999C972.1 21.5999 969.1 18.5999 965.4 18.5999Z" fill="#41423F"/>
<path d="M312 136.2C307.4 136.2 303.6 132.4 303.6 127.8C303.6 123.2 307.4 119.4 312 119.4C316.6 119.4 320.4 123.2 320.4 127.8C320.4 132.4 316.6 136.2 312 136.2ZM312 121.1C308.3 121.1 305.3 124.1 305.3 127.8C305.3 131.5 308.3 134.5 312 134.5C315.7 134.5 318.7 131.5 318.7 127.8C318.7 124.1 315.7 121.1 312 121.1Z" fill="#41423F"/>
<path d="M513.6 27.8C509 27.8 505.2 24 505.2 19.4C505.2 14.8 509 11 513.6 11C518.2 11 522 14.8 522 19.4C522 24 518.2 27.8 513.6 27.8ZM513.6 12.6C509.9 12.6 506.9 15.6 506.9 19.3C506.9 23 509.9 26 513.6 26C517.3 26 520.3 23 520.3 19.3C520.3 15.7 517.3 12.6 513.6 12.6Z" fill="#41423F"/>
<path d="M736.6 132.4C732 132.4 728.2 128.6 728.2 124C728.2 119.4 732 115.6 736.6 115.6C741.2 115.6 745 119.4 745 124C745 128.6 741.2 132.4 736.6 132.4ZM736.6 117.3C732.9 117.3 729.9 120.3 729.9 124C729.9 127.7 732.9 130.7 736.6 130.7C740.3 130.7 743.3 127.7 743.3 124C743.3 120.3 740.3 117.3 736.6 117.3Z" fill="#41423F"/>
<path d="M1097.4 97.8C1092.8 97.8 1089 94 1089 89.4C1089 84.8 1092.8 81 1097.4 81C1102 81 1105.8 84.8 1105.8 89.4C1105.8 94 1102.1 97.8 1097.4 97.8ZM1097.4 82.7C1093.7 82.7 1090.7 85.7 1090.7 89.4C1090.7 93.1 1093.7 96.1 1097.4 96.1C1101.1 96.1 1104.1 93.1 1104.1 89.4C1104.1 85.7 1101.1 82.7 1097.4 82.7Z" fill="#41423F"/>
<path d="M61.7 385.8C62 384.6 62.2 383.3 62.2 382C62.2 373.9 55.6 367.3 47.5 367.3C39.4 367.3 32.8 373.9 32.8 382C32.8 383.3 33 384.6 33.3 385.8C27.8 387.5 23.8 392.6 23.8 398.7C23.8 406.2 29.8 412.2 37.3 412.2C41.3 412.2 45 410.4 47.5 407.6C50 410.4 53.6 412.2 57.7 412.2C65.2 412.2 71.2 406.2 71.2 398.7C71.1 392.6 67.2 387.5 61.7 385.8Z" fill="#F2FFFB"/>
<path d="M31.6 410.9C33.3 411.7 35.3 412.2 37.3 412.2C38.8 412.2 40.3 411.9 41.7 411.5" fill="#21CE99"/>
<path d="M61.7 385.8C62 384.6 62.2 383.3 62.2 382C62.2 373.9 55.6 367.3 47.5 367.3C45.5 367.3 43.5 367.7 41.8 368.5C47.1 370.7 50.8 376 50.8 382C50.8 383.3 50.6 384.6 50.3 385.8C55.8 387.5 59.8 392.6 59.8 398.7C59.8 404.1 56.6 408.8 52 410.9C53.7 411.7 55.7 412.2 57.8 412.2C65.3 412.2 71.3 406.2 71.3 398.7C71.1 392.6 67.2 387.5 61.7 385.8Z" fill="#21CE99"/>
<path d="M57.6 413.1C53.8 413.1 50.1 411.6 47.4 408.9C44.7 411.6 41.1 413.1 37.2 413.1C29.2 413.1 22.8 406.6 22.8 398.7C22.8 392.6 26.5 387.3 32.1 385.2C31.9 384.1 31.8 383.1 31.8 382C31.8 373.4 38.8 366.4 47.4 366.4C56 366.4 63 373.4 63 382C63 383.1 62.9 384.2 62.7 385.2C68.3 387.3 72 392.6 72 398.7C72.1 406.6 65.6 413.1 57.6 413.1ZM47.5 406.6C47.8 406.6 48 406.7 48.2 406.9C50.6 409.6 54 411.2 57.7 411.2C64.6 411.2 70.3 405.6 70.3 398.6C70.3 393.1 66.8 388.2 61.5 386.6C61 386.5 60.8 386 60.9 385.5C61.2 384.3 61.4 383.1 61.4 381.9C61.4 374.3 55.2 368.1 47.6 368.1C40 368.1 33.8 374.3 33.8 381.9C33.8 383.1 34 384.3 34.3 385.5C34.4 386 34.2 386.5 33.7 386.6C28.4 388.3 24.9 393.1 24.9 398.6C24.9 405.5 30.5 411.2 37.5 411.2C41.1 411.2 44.6 409.6 47 406.9C47 406.8 47.2 406.6 47.5 406.6Z" fill="#231F1C"/>
<path d="M47.5 432.6C47 432.6 46.6 432.2 46.6 431.7V383.8C46.6 383.3 47 382.9 47.5 382.9C48 382.9 48.4 383.3 48.4 383.8V431.7C48.4 432.2 48 432.6 47.5 432.6Z" fill="#231F1C"/>
<path d="M47.5 396.3C47.3 396.3 47 396.2 46.8 396L40.8 389.4C40.5 389 40.5 388.4 40.9 388.1C41.3 387.8 41.9 387.8 42.2 388.2L48.2 394.8C48.5 395.2 48.5 395.8 48.1 396.1C47.9 396.2 47.7 396.3 47.5 396.3Z" fill="#231F1C"/>
<path d="M47.5 403.3C47.2 403.3 46.9 403.2 46.7 402.9C46.4 402.5 46.5 401.9 46.9 401.6L54.8 396.1C55.2 395.8 55.8 395.9 56.1 396.3C56.4 396.7 56.3 397.3 55.9 397.6L48 403.1C47.8 403.3 47.7 403.3 47.5 403.3Z" fill="#231F1C"/>
<path d="M1265.34 434H7.74371C6.77498 434 6 433.111 6 432C6 430.889 6.77498 430 7.74371 430H1265.25C1266.22 430 1266.99 430.889 1266.99 432C1267.09 433.111 1266.31 434 1265.34 434Z" fill="#231F1C"/>
<path d="M239.3 430.9H156V236.7L239.3 198.8V430.9Z" fill="#F2FFFB"/>
<path d="M200.1 216.6V430.9H239.3V198.8L200.1 216.6Z" fill="#21CE99"/>
<path d="M240.2 431.8H155V236.1L240.1 197.4V431.8H240.2ZM156.9 430H238.4V200.2L156.9 237.3V430V430Z" fill="#231F1C"/>
<path d="M229.1 269.2H166.2V250.8H229.1V269.2ZM168 267.3H227.3V252.6H168V267.3Z" fill="#231F1C"/>
<path d="M229.1 302.5H166.2V284.1H229.1V302.5ZM168 300.7H227.3V286H168V300.7Z" fill="#231F1C"/>
<path d="M229.1 335.9H166.2V317.5H229.1V335.9ZM168 334H227.3V319.3H168V334Z" fill="#231F1C"/>
<path d="M229.1 369.2H166.2V350.8H229.1V369.2ZM168 367.4H227.3V352.7H168V367.4Z" fill="#231F1C"/>
<path d="M229.1 402.6H166.2V384.2H229.1V402.6ZM168 400.7H227.3V386H168V400.7Z" fill="#231F1C"/>
<path d="M1158.37 321.2H1094.57V428.9H1158.37V321.2Z" fill="#F2FFFB"/>
<path d="M1169.77 321.2H1082.97L1096.67 289.8H1156.07L1169.77 321.2Z" fill="#F2FFFB"/>
<path d="M1170.57 320.8L1156.87 289.5C1156.77 289.2 1156.37 289 1156.07 289H1125.77C1126.07 289 1126.47 289.2 1126.57 289.5L1140.27 320.8C1140.37 321.1 1140.37 321.4 1140.17 321.6C1139.97 321.8 1139.77 322 1139.47 322H1128.77V428.9C1128.77 429.4 1128.37 429.8 1127.87 429.8H1158.17C1158.67 429.8 1159.07 429.4 1159.07 428.9V322H1169.77C1170.07 322 1170.37 321.9 1170.47 321.6C1170.67 321.4 1170.77 321.1 1170.57 320.8Z" fill="#21CE99"/>
<path d="M1158.27 429.8H1094.47C1093.97 429.8 1093.57 429.4 1093.57 428.9V321.2C1093.57 320.7 1093.97 320.3 1094.47 320.3H1158.27C1158.77 320.3 1159.17 320.7 1159.17 321.2V428.9C1159.17 429.4 1158.77 429.8 1158.27 429.8ZM1095.47 428H1157.37V322.1H1095.47V428Z" fill="#231F1C"/>
<path d="M1169.77 322.1H1082.97C1082.67 322.1 1082.37 321.9 1082.17 321.7C1081.97 321.4 1081.97 321.1 1082.07 320.8L1095.77 289.5C1095.87 289.2 1096.27 289 1096.57 289H1155.97C1156.37 289 1156.67 289.2 1156.77 289.5L1170.47 320.8C1170.57 321.1 1170.57 321.4 1170.37 321.7C1170.37 321.9 1170.17 322.1 1169.77 322.1ZM1084.37 320.2H1168.37L1155.47 290.7H1097.27L1084.37 320.2Z" fill="#231F1C"/>
<path d="M1112.37 366.7H1104.17C1103.67 366.7 1103.27 366.3 1103.27 365.8V335.2C1103.27 334.7 1103.67 334.3 1104.17 334.3H1112.37C1112.87 334.3 1113.27 334.7 1113.27 335.2V365.8C1113.27 366.3 1112.87 366.7 1112.37 366.7ZM1105.17 364.9H1111.47V336.2H1105.17V364.9Z" fill="#231F1C"/>
<path d="M1130.47 366.7H1122.27C1121.77 366.7 1121.37 366.3 1121.37 365.8V335.2C1121.37 334.7 1121.77 334.3 1122.27 334.3H1130.47C1130.97 334.3 1131.37 334.7 1131.37 335.2V365.8C1131.37 366.3 1130.97 366.7 1130.47 366.7ZM1123.27 364.9H1129.57V336.2H1123.27V364.9Z" fill="#231F1C"/>
<path d="M1148.57 366.7H1140.37C1139.87 366.7 1139.47 366.3 1139.47 365.8V335.2C1139.47 334.7 1139.87 334.3 1140.37 334.3H1148.57C1149.07 334.3 1149.47 334.7 1149.47 335.2V365.8C1149.47 366.3 1149.07 366.7 1148.57 366.7ZM1141.37 364.9H1147.67V336.2H1141.37V364.9Z" fill="#231F1C"/>
<path d="M1112.37 407.9H1104.17C1103.67 407.9 1103.27 407.5 1103.27 407V376.4C1103.27 375.9 1103.67 375.5 1104.17 375.5H1112.37C1112.87 375.5 1113.27 375.9 1113.27 376.4V407C1113.27 407.5 1112.87 407.9 1112.37 407.9ZM1105.17 406.1H1111.47V377.4H1105.17V406.1Z" fill="#231F1C"/>
<path d="M1130.47 407.9H1122.27C1121.77 407.9 1121.37 407.5 1121.37 407V376.4C1121.37 375.9 1121.77 375.5 1122.27 375.5H1130.47C1130.97 375.5 1131.37 375.9 1131.37 376.4V407C1131.37 407.5 1130.97 407.9 1130.47 407.9ZM1123.27 406.1H1129.57V377.4H1123.27V406.1Z" fill="#231F1C"/>
<path d="M1148.57 407.9H1140.37C1139.87 407.9 1139.47 407.5 1139.47 407V376.4C1139.47 375.9 1139.87 375.5 1140.37 375.5H1148.57C1149.07 375.5 1149.47 375.9 1149.47 376.4V407C1149.47 407.5 1149.07 407.9 1148.57 407.9ZM1141.37 406.1H1147.67V377.4H1141.37V406.1Z" fill="#231F1C"/>
<path d="M325.7 238.2H255.5V430.1H325.7V238.2Z" fill="#F2FFFB"/>
<path d="M332 220.6H249.2V237.3H332V220.6Z" fill="#F2FFFB"/>
<path d="M332 219.7H296.9C297.4 219.7 297.8 220.1 297.8 220.6V237.3C297.8 237.8 297.4 238.2 296.9 238.2H291.5V430.1C291.5 430.6 291.1 431 290.6 431H311H325.7C326.2 431 326.6 430.6 326.6 430.1V238.2H332C332.5 238.2 332.9 237.8 332.9 237.3V220.6C332.9 220.1 332.5 219.7 332 219.7Z" fill="#21CE99"/>
<path d="M325.7 431H255.5C255 431 254.6 430.6 254.6 430.1V237.3C254.6 236.8 255 236.4 255.5 236.4H325.7C326.2 236.4 326.6 236.8 326.6 237.3V430.1C326.6 430.6 326.2 431 325.7 431ZM256.4 429.2H324.8V238.2H256.4V429.2Z" fill="#231F1C"/>
<path d="M270.2 431H255.5C255 431 254.6 430.6 254.6 430.1V237.3C254.6 236.8 255 236.4 255.5 236.4H270.2C270.7 236.4 271.1 236.8 271.1 237.3V430.1C271.1 430.6 270.7 431 270.2 431ZM256.4 429.2H269.2V238.2H256.4V429.2Z" fill="#231F1C"/>
<path d="M325.7 431H311C310.5 431 310.1 430.6 310.1 430.1V237.3C310.1 236.8 310.5 236.4 311 236.4H325.7C326.2 236.4 326.6 236.8 326.6 237.3V430.1C326.6 430.6 326.2 431 325.7 431ZM311.9 429.2H324.7V238.2H311.9V429.2Z" fill="#231F1C"/>
<path d="M270.2 431H255.5C255 431 254.6 430.6 254.6 430.1V237.3C254.6 236.8 255 236.4 255.5 236.4H270.2C270.7 236.4 271.1 236.8 271.1 237.3V430.1C271.1 430.6 270.7 431 270.2 431ZM256.4 429.2H269.2V238.2H256.4V429.2Z" fill="#231F1C"/>
<path d="M325.7 431H311C310.5 431 310.1 430.6 310.1 430.1V237.3C310.1 236.8 310.5 236.4 311 236.4H325.7C326.2 236.4 326.6 236.8 326.6 237.3V430.1C326.6 430.6 326.2 431 325.7 431ZM311.9 429.2H324.7V238.2H311.9V429.2Z" fill="#231F1C"/>
<path d="M332 238.2H249.2C248.7 238.2 248.3 237.8 248.3 237.3V220.6C248.3 220.1 248.7 219.7 249.2 219.7H332C332.5 219.7 332.9 220.1 332.9 220.6V237.3C332.9 237.8 332.5 238.2 332 238.2ZM250.2 236.4H331.1V221.5H250.2V236.4V236.4Z" fill="#231F1C"/>
<path d="M303.1 259.7H278C277.5 259.7 277.1 259.3 277.1 258.8V251.2C277.1 250.7 277.5 250.3 278 250.3H303.1C303.6 250.3 304 250.7 304 251.2V258.8C304 259.3 303.6 259.7 303.1 259.7ZM278.9 257.8H302.2V252H278.9V257.8Z" fill="#231F1C"/>
<path d="M303.1 290H278C277.5 290 277.1 289.6 277.1 289.1V281.5C277.1 281 277.5 280.6 278 280.6H303.1C303.6 280.6 304 281 304 281.5V289.1C304 289.6 303.6 290 303.1 290ZM278.9 288.2H302.2V282.4H278.9V288.2Z" fill="#231F1C"/>
<path d="M303.1 320.3H278C277.5 320.3 277.1 319.9 277.1 319.4V311.8C277.1 311.3 277.5 310.9 278 310.9H303.1C303.6 310.9 304 311.3 304 311.8V319.4C304 319.9 303.6 320.3 303.1 320.3ZM278.9 318.5H302.2V312.7H278.9V318.5Z" fill="#231F1C"/>
<path d="M303.1 350.7H278C277.5 350.7 277.1 350.3 277.1 349.8V342.2C277.1 341.7 277.5 341.3 278 341.3H303.1C303.6 341.3 304 341.7 304 342.2V349.8C304 350.3 303.6 350.7 303.1 350.7ZM278.9 348.8H302.2V343H278.9V348.8Z" fill="#231F1C"/>
<path d="M303.1 381H278C277.5 381 277.1 380.6 277.1 380.1V372.5C277.1 372 277.5 371.6 278 371.6H303.1C303.6 371.6 304 372 304 372.5V380.1C304 380.6 303.6 381 303.1 381ZM278.9 379.2H302.2V373.4H278.9V379.2Z" fill="#231F1C"/>
<path d="M303.1 411.4H278C277.5 411.4 277.1 411 277.1 410.5V402.9C277.1 402.4 277.5 402 278 402H303.1C303.6 402 304 402.4 304 402.9V410.5C304 410.9 303.6 411.4 303.1 411.4ZM278.9 409.5H302.2V403.7H278.9V409.5Z" fill="#231F1C"/>
<path d="M590.4 218.5H562.3V232.6H590.4V218.5Z" fill="#F2FFFB"/>
<path d="M638.5 218.5H610.4V232.6H638.5V218.5Z" fill="#F2FFFB"/>
<path d="M641.6 255.8H559.3V431.7H641.6V255.8Z" fill="#F2FFFB"/>
<path d="M653.5 232.7H547.3V255.9H653.5V232.7Z" fill="#F2FFFB"/>
<path d="M639.5 231.7V217.6H609.5V231.7H616.9V256.8H604.9V432.7H642.5V256.8H654.4V231.7H639.5Z" fill="#21CE99"/>
<path d="M591.3 233.6H561.3V217.6H591.3V233.6ZM563.2 231.7H589.5V219.4H563.2V231.7Z" fill="#231F1C"/>
<path d="M639.5 233.6H609.5V217.6H639.5V233.6ZM611.3 231.7H637.6V219.4H611.3V231.7Z" fill="#231F1C"/>
<path d="M642.5 432.7H558.4V254.9H642.5V432.7ZM560.2 430.8H640.7V256.8H560.2V430.8Z" fill="#231F1C"/>
<path d="M654.4 256.8H546.4V231.8H654.4V256.8ZM548.2 254.9H652.6V233.5H548.2V254.9Z" fill="#231F1C"/>
<path d="M594.6 288.6H573.2V267.2H594.6V288.6ZM575 286.8H592.8V269H575V286.8Z" fill="#231F1C"/>
<path d="M627.7 288.6H606.3V267.2H627.7V288.6ZM608.1 286.8H625.9V269H608.1V286.8Z" fill="#231F1C"/>
<path d="M594.6 318.1H573.2V296.7H594.6V318.1ZM575 316.3H592.8V298.5H575V316.3Z" fill="#231F1C"/>
<path d="M627.7 318.1H606.3V296.7H627.7V318.1ZM608.1 316.3H625.9V298.5H608.1V316.3Z" fill="#231F1C"/>
<path d="M594.6 347.5H573.2V326.1H594.6V347.5ZM575 345.7H592.8V328H575V345.7Z" fill="#231F1C"/>
<path d="M627.7 347.5H606.3V326.1H627.7V347.5ZM608.1 345.7H625.9V328H608.1V345.7Z" fill="#231F1C"/>
<path d="M594.6 377H573.2V355.6H594.6V377ZM575 375.2H592.8V357.4H575V375.2Z" fill="#231F1C"/>
<path d="M627.7 377H606.3V355.6H627.7V377ZM608.1 375.2H625.9V357.4H608.1V375.2Z" fill="#231F1C"/>
<path d="M594.6 406.4H573.2V385H594.6V406.4ZM575 404.6H592.8V386.8H575V404.6Z" fill="#231F1C"/>
<path d="M627.7 406.4H606.3V385H627.7V406.4ZM608.1 404.6H625.9V386.8H608.1V404.6Z" fill="#231F1C"/>
<path d="M601.8 217.6H591.3V231.7H601.8V217.6Z" fill="#467177"/>
<path d="M802.1 189.3H723.8V431.8H802.1V189.3Z" fill="#F2FFFB"/>
<path d="M802.1 189.3H763V431.8H802.1V189.3Z" fill="#21CE99"/>
<path d="M803 432.7H722.9V188.4H803V432.7ZM724.7 430.8H801.2V190.2H724.7V430.8Z" fill="#231F1C"/>
<path d="M794.1 227.8H731.7V214.6H794.1V227.8ZM733.6 226H792.3V216.5H733.6V226Z" fill="#231F1C"/>
<path d="M794.1 260.3H731.7V247.1H794.1V260.3ZM733.6 258.5H792.3V249H733.6V258.5Z" fill="#231F1C"/>
<path d="M794.1 292.8H731.7V279.6H794.1V292.8ZM733.6 291H792.3V281.5H733.6V291Z" fill="#231F1C"/>
<path d="M794.1 325.3H731.7V312.1H794.1V325.3ZM733.6 323.5H792.3V314H733.6V323.5Z" fill="#231F1C"/>
<path d="M794.1 357.8H731.7V344.6H794.1V357.8ZM733.6 356H792.3V346.5H733.6V356Z" fill="#231F1C"/>
<path d="M794.1 390.3H731.7V377.1H794.1V390.3ZM733.6 388.5H792.3V379H733.6V388.5Z" fill="#231F1C"/>
<path d="M539.6 136.5H460.9V215.2H539.6V136.5Z" fill="#F2FFFB"/>
<path d="M535.6 214.6H465V431.9H535.6V214.6Z" fill="#F2FFFB"/>
<path d="M527.2 76.9H473.4V92.3H527.2V76.9Z" fill="#F2FFFB"/>
<path d="M535.6 107.2H465V130.9H535.6V107.2Z" fill="#F2FFFB"/>
<path d="M500.3 3.40002L473.4 76.9H527.2L500.3 3.40002Z" fill="#21CE99"/>
<path d="M543.5 142.3V130.8H536.5V108.1H537.1L536.5 106.9V106.3H536.1L528.1 92.1001V77.8H528.5L528.1 76.7001V75.9001H527.8L500.3 0.800049L482.6 48.9001L492.5 75.9001H492.8V76.7001L493.2 77.8H492.8V92.1001L500.8 106.3H501.2V106.9L501.9 108.1H501.2V130.8H508.2V142.3H505.3V209.5H508.2V221H501.2V432.8H536.5V221H543.5V209.5H540.5V142.3H543.5Z" fill="#21CE99"/>
<path d="M536.5 132.7H464.1V106.3H536.5V132.7ZM465.9 130.8H534.6V108.1H465.9V130.8V130.8Z" fill="#231F1C"/>
<path d="M535.6 107.2H465L473.5 92.2001H527.1L535.6 107.2Z" fill="#21CE99"/>
<path d="M536.5 432.8H464.1V213.7H536.5V432.8ZM465.9 430.9H534.6V215.5H465.9V430.9V430.9Z" fill="#231F1C"/>
<path d="M475.5 214.6H473.7V431.9H475.5V214.6Z" fill="#231F1C"/>
<path d="M488.3 214.6H486.5V431.9H488.3V214.6Z" fill="#231F1C"/>
<path d="M501.2 214.6H499.4V431.9H501.2V214.6Z" fill="#231F1C"/>
<path d="M514 214.6H512.2V431.9H514V214.6Z" fill="#231F1C"/>
<path d="M526.9 214.6H525.1V431.9H526.9V214.6Z" fill="#231F1C"/>
<path d="M528.5 77.8H472.1L500.3 0.800049L528.5 77.8ZM474.7 75.9001H525.8L500.2 6.10007L474.7 75.9001Z" fill="#231F1C"/>
<path d="M500.3 195.9C511.346 195.9 520.3 186.946 520.3 175.9C520.3 164.854 511.346 155.9 500.3 155.9C489.254 155.9 480.3 164.854 480.3 175.9C480.3 186.946 489.254 195.9 500.3 195.9Z" fill="#F2FFFB"/>
<path d="M500.3 197.2C488.5 197.2 479 187.6 479 175.9C479 164.1 488.6 154.6 500.3 154.6C512.1 154.6 521.6 164.2 521.6 175.9C521.6 187.7 512 197.2 500.3 197.2ZM500.3 157.3C490.1 157.3 481.7 165.6 481.7 175.9C481.7 186.1 490 194.5 500.3 194.5C510.6 194.5 518.9 186.2 518.9 175.9C518.9 165.6 510.5 157.3 500.3 157.3Z" fill="#231F1C"/>
<path d="M535.6 267H465V268.8H535.6V267Z" fill="#231F1C"/>
<path d="M535.6 275.2H465V277H535.6V275.2Z" fill="#231F1C"/>
<path d="M535.6 319.2H465V321H535.6V319.2Z" fill="#231F1C"/>
<path d="M535.6 327.4H465V329.2H535.6V327.4Z" fill="#231F1C"/>
<path d="M535.6 371.5H465V373.3H535.6V371.5Z" fill="#231F1C"/>
<path d="M535.6 379.6H465V381.4H535.6V379.6Z" fill="#231F1C"/>
<path d="M479.8 136.1H472.2V110.2H479.8V136.1ZM474 134.3H477.9V112.1H474V134.3Z" fill="#231F1C"/>
<path d="M496 136.1H488.4V110.2H496V136.1ZM490.2 134.3H494.1V112.1H490.2V134.3Z" fill="#231F1C"/>
<path d="M512.2 136.1H504.6V110.2H512.2V136.1ZM506.4 134.3H510.3V112.1H506.4V134.3Z" fill="#231F1C"/>
<path d="M528.4 136.1H520.8V110.2H528.4V136.1ZM522.6 134.3H526.5V112.1H522.6V134.3Z" fill="#231F1C"/>
<path d="M537.1 108.1H463.4L472.9 91.3H527.6L537.1 108.1ZM466.6 106.3H534L526.6 93.2001H474L466.6 106.3Z" fill="#231F1C"/>
<path d="M528.1 93.1H472.5V75.9H528.1V93.1ZM474.3 91.3H526.2V77.8H474.3V91.3Z" fill="#231F1C"/>
<path d="M542.5 210.4H458V220H542.5V210.4Z" fill="#21CE99"/>
<path d="M542.5 131.7H458V141.3H542.5V131.7Z" fill="#21CE99"/>
<path d="M543.5 221H457.1V209.6H543.5V221ZM458.9 219.1H541.6V211.3H458.9V219.1V219.1Z" fill="#231F1C"/>
<path d="M543.5 142.3H457.1V130.9H543.5V142.3ZM458.9 140.4H541.6V132.6H458.9V140.4V140.4Z" fill="#231F1C"/>
<path d="M488.1 88.9001H479.4V80.2001H488.1V88.9001ZM481.2 87.1001H486.2V82.1001H481.2V87.1001Z" fill="#231F1C"/>
<path d="M499.1 88.9001H490.4V80.2001H499.1V88.9001ZM492.2 87.1001H497.2V82.1001H492.2V87.1001Z" fill="#231F1C"/>
<path d="M510.2 88.9001H501.5V80.2001H510.2V88.9001ZM503.3 87.1001H508.3V82.1001H503.3V87.1001Z" fill="#231F1C"/>
<path d="M521.2 88.9001H512.5V80.2001H521.2V88.9001ZM514.3 87.1001H519.3V82.1001H514.3V87.1001Z" fill="#231F1C"/>
<path d="M415.7 208.5H342.9V405.8H415.7V208.5Z" fill="#F2FFFB"/>
<path d="M415.6 208.5H398.6V405.8H415.6V208.5Z" fill="#F2FFFB"/>
<path d="M359.9 208.5H342.9V405.8H359.9V208.5Z" fill="#F2FFFB"/>
<path d="M379.3 157L359.9 208.5H398.6L379.3 157Z" fill="#21CE99"/>
<path d="M407.2 179.8L398.6 208.5H415.7L407.2 179.8Z" fill="#21CE99"/>
<path d="M351.4 179.8L342.9 208.5H359.9L351.4 179.8Z" fill="#21CE99"/>
<path d="M167 208.5H94.2V405.8H167V208.5Z" fill="#F2FFFB"/>
<path d="M166.9 208.5H149.9V405.8H166.9V208.5Z" fill="#F2FFFB"/>
<path d="M111.2 208.5H94.2V405.8H111.2V208.5Z" fill="#F2FFFB"/>
<path d="M130.6 157L111.2 208.5H149.9L130.6 157Z" fill="#21CE99"/>
<path d="M158.4 179.8L149.9 208.5H166.9L158.4 179.8Z" fill="#21CE99"/>
<path d="M102.7 179.8L94.2 208.5H111.2L102.7 179.8Z" fill="#21CE99"/>
<path d="M416.6 384.5V209.4H416.9L416.6 208.4V207.6H416.3L407.2 176.6L398.5 205.6L379.3 154.5L369.3 181L377.2 207.6H377.4V208.4L377.7 209.4H377.4V384.5H387V432.2H403.9H405.7H426.2V384.5H416.6Z" fill="#21CE99"/>
<path d="M166.9 384.5V209.4H167.3L166.9 208.4V207.6H166.7L157.5 176.6L148.9 205.6L129.6 154.5L119.7 181L127.5 207.6H127.8V208.4L128.1 209.4H127.8V384.5H137.4V432.2H154.2H156.1H176.6V384.5H166.9Z" fill="#21CE99"/>
<path d="M167.9 406.7H149V207.6H167.8V406.7H167.9ZM150.9 404.8H166V209.4H150.8V404.8H150.9Z" fill="#231F1C"/>
<path d="M112.1 406.7H93.2999V207.6H112.1V406.7ZM95.0999 404.8H110.3V209.4H95.0999V404.8Z" fill="#231F1C"/>
<path d="M151.3 209.4H109.9L130.6 154.4L151.3 209.4ZM112.5 207.6H148.6L130.5 159.7L112.5 207.6Z" fill="#231F1C"/>
<path d="M168.2 209.4H148.7L158.4 176.6L168.2 209.4ZM151.2 207.6H165.8L158.5 183.1L151.2 207.6Z" fill="#231F1C"/>
<path d="M112.4 209.4H92.9L102.6 176.6L112.4 209.4ZM95.4 207.6H110L102.7 183.1L95.4 207.6Z" fill="#231F1C"/>
<path d="M167 277.8H94.2V279.6H167V277.8Z" fill="#231F1C"/>
<path d="M167 272.8H94.2V274.6H167V272.8Z" fill="#231F1C"/>
<path d="M167 317.7H94.2V319.5H167V317.7Z" fill="#231F1C"/>
<path d="M167 312.7H94.2V314.5H167V312.7Z" fill="#231F1C"/>
<path d="M167 357.7H94.2V359.5H167V357.7Z" fill="#231F1C"/>
<path d="M167 352.7H94.2V354.5H167V352.7Z" fill="#231F1C"/>
<path d="M84.4999 385.5V431.3H105C105 417.2 116.4 405.8 130.5 405.8C144.6 405.8 156 417.2 156 431.3H176.5V385.5H84.4999Z" fill="#21CE99"/>
<path d="M130.6 405.7C116.5 405.7 105.1 417.1 105.1 431.2H156.1C156.1 417.2 144.6 405.7 130.6 405.7Z" fill="#F2FFFB"/>
<path d="M177.5 432.2H155.2V431.3C155.2 417.7 144.2 406.7 130.6 406.7C117 406.7 106 417.7 106 431.3V432.2H83.7V384.6H177.5V432.2ZM157 430.3H175.7V386.3H85.5V430.3H104.2C104.7 416.2 116.3 404.8 130.6 404.8C144.8 404.8 156.5 416.2 157 430.3Z" fill="#231F1C"/>
<path d="M157 432.2H104.2V431.3C104.2 416.7 116.1 404.9 130.6 404.9C145.2 404.9 157 416.8 157 431.3V432.2ZM106 430.3H155.1C154.6 417.2 143.8 406.6 130.5 406.6C117.3 406.7 106.5 417.2 106 430.3Z" fill="#231F1C"/>
<path d="M124.2 386.6H116.9V362.7H124.2V386.6ZM118.7 384.8H122.3V364.6H118.7V384.8Z" fill="#231F1C"/>
<path d="M134.2 386.6H126.9V362.7H134.2V386.6ZM128.7 384.8H132.3V364.6H128.7V384.8Z" fill="#231F1C"/>
<path d="M144.2 386.6H136.9V362.7H144.2V386.6ZM138.7 384.8H142.3V364.6H138.7V384.8Z" fill="#231F1C"/>
<path d="M124.2 347.5H116.9V323.6H124.2V347.5ZM118.7 345.7H122.3V325.5H118.7V345.7Z" fill="#231F1C"/>
<path d="M134.2 347.5H126.9V323.6H134.2V347.5ZM128.7 345.7H132.3V325.5H128.7V345.7Z" fill="#231F1C"/>
<path d="M144.2 347.5H136.9V323.6H144.2V347.5ZM138.7 345.7H142.3V325.5H138.7V345.7Z" fill="#231F1C"/>
<path d="M124.2 306H116.9V282.1H124.2V306ZM118.7 304.2H122.3V284H118.7V304.2Z" fill="#231F1C"/>
<path d="M134.2 306H126.9V282.1H134.2V306ZM128.7 304.2H132.3V284H128.7V304.2Z" fill="#231F1C"/>
<path d="M144.2 306H136.9V282.1H144.2V306ZM138.7 304.2H142.3V284H138.7V304.2Z" fill="#231F1C"/>
<path d="M124.2 268.2H116.9V244.3H124.2V268.2ZM118.7 266.4H122.3V246.2H118.7V266.4Z" fill="#231F1C"/>
<path d="M134.2 268.2H126.9V244.3H134.2V268.2ZM128.7 266.4H132.3V246.2H128.7V266.4Z" fill="#231F1C"/>
<path d="M144.2 268.2H136.9V244.3H144.2V268.2ZM138.7 266.4H142.3V246.2H138.7V266.4Z" fill="#231F1C"/>
<path d="M167 238H94.2V239.8H167V238Z" fill="#231F1C"/>
<path d="M135.1 214.4H126.1V202C126.1 199.5 128.1 197.5 130.6 197.5C133.1 197.5 135.1 199.5 135.1 202V214.4Z" fill="#F2FFFB"/>
<path d="M136 215.3H125.2V201.9C125.2 198.9 127.6 196.5 130.6 196.5C133.6 196.5 136 198.9 136 201.9V215.3ZM127 213.5H134.2V202C134.2 200 132.6 198.4 130.6 198.4C128.6 198.4 127 200 127 202V213.5Z" fill="#231F1C"/>
<path d="M138.7 239.8H122.3V218.6H138.7V239.8ZM124.2 238H136.9V220.4H124.2V238Z" fill="#231F1C"/>
<path d="M131.4 405.7H129.6V431.2H131.4V405.7Z" fill="#231F1C"/>
<path d="M416.6 406.7H397.8V207.6H416.6V406.7ZM399.6 404.8H414.8V209.4H399.6V404.8Z" fill="#231F1C"/>
<path d="M360.8 406.7H342V207.6H360.8V406.7ZM343.8 404.8H359V209.4H343.8V404.8Z" fill="#231F1C"/>
<path d="M400 209.4H358.6L379.3 154.4L400 209.4ZM361.2 207.6H397.3L379.2 159.7L361.2 207.6Z" fill="#231F1C"/>
<path d="M416.9 209.4H397.4L407.1 176.6L416.9 209.4ZM399.9 207.6H414.5L407.2 183.1L399.9 207.6Z" fill="#231F1C"/>
<path d="M361.1 209.4H341.6L351.3 176.6L361.1 209.4ZM344.1 207.6H358.7L351.4 183.1L344.1 207.6Z" fill="#231F1C"/>
<path d="M415.7 277.8H342.9V279.6H415.7V277.8Z" fill="#231F1C"/>
<path d="M415.7 272.8H342.9V274.6H415.7V272.8Z" fill="#231F1C"/>
<path d="M415.7 317.7H342.9V319.5H415.7V317.7Z" fill="#231F1C"/>
<path d="M415.7 312.7H342.9V314.5H415.7V312.7Z" fill="#231F1C"/>
<path d="M415.7 357.7H342.9V359.5H415.7V357.7Z" fill="#231F1C"/>
<path d="M415.7 352.7H342.9V354.5H415.7V352.7Z" fill="#231F1C"/>
<path d="M333.3 385.5V431.3H353.8C353.8 417.2 365.2 405.8 379.3 405.8C393.4 405.8 404.8 417.2 404.8 431.3H425.3V385.5H333.3Z" fill="#21CE99"/>
<path d="M379.3 405.7C365.2 405.7 353.8 417.1 353.8 431.2H404.8C404.8 417.2 393.4 405.7 379.3 405.7Z" fill="#F2FFFB"/>
<path d="M426.2 432.2H403.9V431.3C403.9 417.7 392.9 406.7 379.3 406.7C365.7 406.7 354.7 417.7 354.7 431.3V432.2H332.4V384.6H426.2V432.2V432.2ZM405.7 430.3H424.4V386.3H334.2V430.3H352.9C353.4 416.2 365 404.8 379.3 404.8C393.5 404.8 405.2 416.2 405.7 430.3Z" fill="#231F1C"/>
<path d="M405.7 432.2H352.9V431.3C352.9 416.7 364.8 404.9 379.3 404.9C393.9 404.9 405.7 416.8 405.7 431.3V432.2V432.2ZM354.7 430.3H403.8C403.3 417.2 392.5 406.6 379.2 406.6C366 406.7 355.2 417.2 354.7 430.3Z" fill="#231F1C"/>
<path d="M372.9 386.6H365.6V362.7H372.9V386.6ZM367.4 384.8H371V364.6H367.4V384.8Z" fill="#231F1C"/>
<path d="M382.9 386.6H375.6V362.7H382.9V386.6ZM377.4 384.8H381V364.6H377.4V384.8Z" fill="#231F1C"/>
<path d="M392.9 386.6H385.6V362.7H392.9V386.6ZM387.5 384.8H391.1V364.6H387.5V384.8Z" fill="#231F1C"/>
<path d="M372.9 347.5H365.6V323.6H372.9V347.5ZM367.4 345.7H371V325.5H367.4V345.7Z" fill="#231F1C"/>
<path d="M382.9 347.5H375.6V323.6H382.9V347.5ZM377.4 345.7H381V325.5H377.4V345.7Z" fill="#231F1C"/>
<path d="M392.9 347.5H385.6V323.6H392.9V347.5ZM387.5 345.7H391.1V325.5H387.5V345.7Z" fill="#231F1C"/>
<path d="M372.9 306H365.6V282.1H372.9V306ZM367.4 304.2H371V284H367.4V304.2Z" fill="#231F1C"/>
<path d="M382.9 306H375.6V282.1H382.9V306ZM377.4 304.2H381V284H377.4V304.2Z" fill="#231F1C"/>
<path d="M392.9 306H385.6V282.1H392.9V306ZM387.5 304.2H391.1V284H387.5V304.2Z" fill="#231F1C"/>
<path d="M372.9 268.2H365.6V244.3H372.9V268.2ZM367.4 266.4H371V246.2H367.4V266.4Z" fill="#231F1C"/>
<path d="M382.9 268.2H375.6V244.3H382.9V268.2ZM377.4 266.4H381V246.2H377.4V266.4Z" fill="#231F1C"/>
<path d="M392.9 268.2H385.6V244.3H392.9V268.2ZM387.5 266.4H391.1V246.2H387.5V266.4Z" fill="#231F1C"/>
<path d="M415.7 238H342.9V239.8H415.7V238Z" fill="#231F1C"/>
<path d="M383.8 214.4H374.8V202C374.8 199.5 376.8 197.5 379.3 197.5C381.8 197.5 383.8 199.5 383.8 202V214.4Z" fill="#F2FFFB"/>
<path d="M384.7 215.3H373.9V201.9C373.9 198.9 376.3 196.5 379.3 196.5C382.3 196.5 384.7 198.9 384.7 201.9V215.3V215.3ZM375.7 213.5H382.9V202C382.9 200 381.3 198.4 379.3 198.4C377.3 198.4 375.7 200 375.7 202V213.5V213.5Z" fill="#231F1C"/>
<path d="M387.5 239.8H371.1V218.6H387.5V239.8ZM372.9 238H385.6V220.4H372.9V238Z" fill="#231F1C"/>
<path d="M380.1 405.7H378.3V431.2H380.1V405.7Z" fill="#231F1C"/>
<path d="M333.3 384.1H176.6V386.8H333.3V384.1Z" fill="#231F1C"/>
<path d="M177.6 409.3L175.6 407.4C182.3 400.4 197.6 394.3 221.3 389.4C238.8 385.8 254.6 384.1 254.8 384.1L255.1 386.8C254.4 386.9 192.6 393.5 177.6 409.3Z" fill="#231F1C"/>
<path d="M189.4 385.5H186.7V400.9H189.4V385.5Z" fill="#231F1C"/>
<path d="M201.8 385.5H199.1V396.2H201.8V385.5Z" fill="#231F1C"/>
<path d="M213.5 385.5H210.8V393.2H213.5V385.5Z" fill="#231F1C"/>
<path d="M223.4 385.5H220.7V390.8H223.4V385.5Z" fill="#231F1C"/>
<path d="M233.6 385.5H230.9V388.8H233.6V385.5Z" fill="#231F1C"/>
<path d="M332.3 409.3C317.2 393.5 255.4 386.9 254.8 386.8L255.1 384.1C255.3 384.1 271.1 385.8 288.6 389.4C312.3 394.3 327.7 400.4 334.3 407.4L332.3 409.3Z" fill="#231F1C"/>
<path d="M323 385.5H320.3V400.9H323V385.5Z" fill="#231F1C"/>
<path d="M310.7 385.5H308V396.2H310.7V385.5Z" fill="#231F1C"/>
<path d="M299 385.5H296.3V393.2H299V385.5Z" fill="#231F1C"/>
<path d="M289 385.5H286.3V390.8H289V385.5Z" fill="#231F1C"/>
<path d="M278.9 385.5H276.2V388.8H278.9V385.5Z" fill="#231F1C"/>
<path d="M942 352.6C942 262 914.8 188.5 881.3 188.5C847.8 188.5 820.6 262 820.6 352.6C820.6 381.3 823.3 408.3 828.1 431.8H934.5C939.3 408.4 942 381.4 942 352.6Z" fill="#F2FFFB"/>
<path d="M881.3 188.5C876 188.5 870.9 190.3 866 193.7C892.2 212 911.5 276.2 911.5 352.6C911.5 381.3 908.8 408.3 904 431.8H934.6C939.4 408.3 942.1 381.3 942.1 352.6C942 262 914.8 188.5 881.3 188.5Z" fill="#21CE99"/>
<path d="M935.2 432.8H827.3L827.2 432.1C822.3 407.9 819.6 380.5 819.6 352.7C819.6 308.8 825.9 267.4 837.4 236.3C849 204.9 864.6 187.6 881.2 187.6C897.8 187.6 913.4 204.9 925 236.3C936.5 267.4 942.8 308.7 942.8 352.7C942.8 380.5 940.2 407.9 935.2 432.1V432.8ZM828.8 430.9H933.7C938.5 407 941.1 380 941.1 352.6C941.1 262.6 914.3 189.4 881.3 189.4C848.3 189.4 821.5 262.6 821.5 352.6C821.5 380 824 407 828.8 430.9Z" fill="#231F1C"/>
<path d="M825.2 405.8C837.7 399.2 849.3 391.4 859.8 383C871 392.8 883.6 402.1 897.4 409.9C891.3 417.1 884.5 424.5 877.1 431.8H881C887.9 425 894.2 418.1 899.8 411.3C910.9 417.4 922.8 422.6 935.5 426.5C935.7 425.6 935.8 424.7 936 423.8C923.8 420 912.3 415 901.6 409.1C905.1 404.8 908.4 400.6 911.4 396.5C924.3 379.2 934.3 362.5 941.2 349.5C941.4 349.6 941.7 349.6 941.9 349.7C941.9 347.2 941.8 344.8 941.8 342.4C941.2 343.6 940.5 344.9 939.8 346.2C928.7 342.7 918.2 338.1 908.3 332.8C909.3 331.5 910.3 330.2 911.3 328.9C921.9 314.6 930.6 300.8 937.2 289.1C937 287.6 936.7 286.2 936.5 284.7C936.4 284.8 936.4 284.9 936.3 285C925 281 914.3 275.9 904.4 270.1C906.8 267.1 909.2 264 911.4 261.1C916.6 254.1 921.4 247.2 925.6 240.5C925.2 239.4 924.8 238.3 924.4 237.2C919.9 244.3 914.8 251.8 909.1 259.4C906.9 262.4 904.5 265.5 902 268.6C888.9 260.7 876.9 251.6 866.2 242C881.5 228.9 894.5 214.7 905 201.5C904.4 200.8 903.8 200.1 903.1 199.4C892.5 212.7 879.5 227 864.1 240.1C857.1 233.7 850.7 227.2 844.9 220.6C844.5 221.5 844 222.4 843.6 223.3C849.3 229.5 855.4 235.8 862 241.9C852.2 250.1 841.5 257.7 829.8 264.4C829.5 265.6 829.2 266.8 829 268L829.1 267.9C839.2 280.5 851.4 293.9 865.8 306.3C852.6 317.7 837.6 328.4 820.9 336.8C820.8 336.7 820.8 336.6 820.7 336.5C820.6 337.9 820.6 339.4 820.6 340.8C830.6 353.7 843 367.7 857.6 380.8C847.2 389.1 835.8 396.7 823.4 403.2C823.6 405 823.9 406.9 824.1 408.7C829.9 416.1 836.4 423.8 843.7 431.5H847.5C839.1 423.1 831.7 414.2 825.2 405.8ZM938.6 348.8C931.7 361.6 921.9 378 909.2 395C906.1 399.2 902.7 403.5 899.1 407.8C885.4 400.1 873 390.9 861.9 381.2C879.9 366.5 894.9 350.1 906.7 335C916.7 340.5 927.4 345.2 938.6 348.8ZM902.8 272.4C912.9 278.3 923.7 283.4 935.1 287.5C928.5 299.2 919.9 313 909.3 327.3C908.3 328.7 907.2 330.1 906.1 331.6C893 324.3 881.1 315.8 870.3 306.6C882.7 295.5 893.6 283.7 902.8 272.4ZM831.7 266.8C843.5 260 854.3 252.3 864.2 244C875 253.7 887 263 900.3 271C891.2 282.2 880.4 293.8 868 304.8C853.9 292.5 841.7 279.3 831.7 266.8ZM822.7 339.4C839.6 330.8 854.7 320 868 308.4C878.9 317.7 891 326.3 904.2 333.7C892.5 348.6 877.6 364.9 859.8 379.4C845.2 366.3 832.8 352.3 822.7 339.4Z" fill="#231F1C"/>
<path d="M743.4 414.3H595.3V431.9H743.4V414.3Z" fill="#F2FFFB"/>
<path d="M669.4 175.2C621.5 175.2 582.6 214 582.6 262C582.6 309.9 621.4 348.8 669.4 348.8C717.4 348.8 756.2 310 756.2 262C756.1 214 717.3 175.2 669.4 175.2ZM669.4 335.3C628.9 335.3 596 302.4 596 261.9C596 221.4 628.9 188.5 669.4 188.5C709.9 188.5 742.8 221.4 742.8 261.9C742.8 302.4 709.9 335.3 669.4 335.3Z" fill="#F2FFFB"/>
<path d="M669.4 175.2C666.1 175.2 662.8 175.4 659.5 175.8C680.8 178.2 699.8 188.4 713.6 203.4C731.4 216.8 742.8 238.1 742.8 262C742.8 286 731.3 307.2 713.6 320.6C699.8 335.6 680.9 345.7 659.5 348.2C662.7 348.6 666 348.8 669.4 348.8C717.3 348.8 756.2 310 756.2 262C756.1 214 717.3 175.2 669.4 175.2Z" fill="#21CE99"/>
<path d="M669.4 349.6C621.1 349.6 581.7 310.3 581.7 261.9C581.7 213.6 621 174.2 669.4 174.2C717.8 174.2 757.1 213.5 757.1 261.9C757 310.3 717.7 349.6 669.4 349.6ZM669.4 176.1C622.1 176.1 583.6 214.6 583.6 261.9C583.6 309.2 622.1 347.7 669.4 347.7C716.7 347.7 755.2 309.2 755.2 261.9C755.2 214.6 716.7 176.1 669.4 176.1ZM669.4 336.2C628.4 336.2 595.1 302.9 595.1 261.9C595.1 220.9 628.4 187.6 669.4 187.6C710.4 187.6 743.7 220.9 743.7 261.9C743.7 302.9 710.3 336.2 669.4 336.2ZM669.4 189.4C629.4 189.4 596.9 221.9 596.9 261.9C596.9 301.9 629.4 334.4 669.4 334.4C709.4 334.4 741.9 301.9 741.9 261.9C741.9 221.9 709.3 189.4 669.4 189.4Z" fill="#231F1C"/>
<path d="M679.3 165.3C679.3 170.8 674.9 175.2 669.4 175.2C663.9 175.2 659.5 170.8 659.5 165.3C659.5 159.8 663.9 155.4 669.4 155.4C674.9 155.4 679.3 159.8 679.3 165.3Z" fill="#21CE99"/>
<path d="M629.6 173.3C632.3 178 630.7 184.1 626 186.8C621.3 189.5 615.2 187.9 612.5 183.2C609.8 178.5 611.4 172.4 616.1 169.7C620.8 166.9 626.9 168.5 629.6 173.3Z" fill="#21CE99"/>
<path d="M590.6 205C595.3 207.7 597 213.8 594.2 218.5C591.5 223.2 585.4 224.9 580.7 222.1C576 219.4 574.3 213.3 577.1 208.6C579.8 203.9 585.9 202.3 590.6 205Z" fill="#21CE99"/>
<path d="M572.7 252C578.2 252 582.6 256.4 582.6 261.9C582.6 267.4 578.2 271.8 572.7 271.8C567.2 271.8 562.8 267.4 562.8 261.9C562.8 256.4 567.3 252 572.7 252Z" fill="#21CE99"/>
<path d="M580.7 301.7C585.4 299 591.5 300.6 594.2 305.3C596.9 310 595.3 316.1 590.6 318.8C585.9 321.5 579.8 319.9 577.1 315.2C574.4 310.5 576 304.4 580.7 301.7Z" fill="#21CE99"/>
<path d="M612.5 340.7C615.2 336 621.3 334.3 626 337.1C630.7 339.8 632.4 345.9 629.6 350.6C626.9 355.3 620.8 357 616.1 354.2C611.4 351.5 609.8 345.4 612.5 340.7Z" fill="#21CE99"/>
<path d="M659.5 358.6C659.5 353.1 663.9 348.7 669.4 348.7C674.9 348.7 679.3 353.1 679.3 358.6C679.3 364.1 674.9 368.5 669.4 368.5C663.9 368.5 659.5 364 659.5 358.6Z" fill="#21CE99"/>
<path d="M709.1 350.6C706.4 345.9 708 339.8 712.7 337.1C717.4 334.4 723.5 336 726.2 340.7C728.9 345.4 727.3 351.5 722.6 354.2C717.9 356.9 711.9 355.3 709.1 350.6Z" fill="#21CE99"/>
<path d="M748.1 318.8C743.4 316.1 741.7 310 744.5 305.3C747.2 300.6 753.3 298.9 758 301.7C762.7 304.4 764.4 310.5 761.6 315.2C758.9 319.9 752.9 321.5 748.1 318.8Z" fill="#21CE99"/>
<path d="M766 271.8C760.5 271.8 756.1 267.4 756.1 261.9C756.1 256.4 760.5 252 766 252C771.5 252 775.9 256.4 775.9 261.9C775.9 267.4 771.5 271.8 766 271.8Z" fill="#21CE99"/>
<path d="M758 222.2C753.3 224.9 747.2 223.3 744.5 218.6C741.8 213.9 743.4 207.8 748.1 205.1C752.8 202.4 758.9 204 761.6 208.7C764.4 213.4 762.7 219.4 758 222.2Z" fill="#21CE99"/>
<path d="M726.3 183.2C723.6 187.9 717.5 189.6 712.8 186.8C708.1 184.1 706.4 178 709.2 173.3C711.9 168.6 718 166.9 722.7 169.7C727.4 172.4 729 178.4 726.3 183.2Z" fill="#21CE99"/>
<path d="M669.4 176.1C663.4 176.1 658.6 171.3 658.6 165.3C658.6 159.3 663.4 154.5 669.4 154.5C675.4 154.5 680.2 159.3 680.2 165.3C680.2 171.2 675.3 176.1 669.4 176.1ZM669.4 156.3C664.5 156.3 660.4 160.3 660.4 165.3C660.4 170.2 664.4 174.3 669.4 174.3C674.3 174.3 678.4 170.3 678.4 165.3C678.3 160.3 674.3 156.3 669.4 156.3Z" fill="#231F1C"/>
<path d="M621.1 189C620.2 189 619.2 188.9 618.3 188.6C615.5 187.9 613.2 186.1 611.7 183.6C610.3 181.1 609.9 178.2 610.6 175.4C611.3 172.6 613.1 170.3 615.6 168.8C618.1 167.4 621 167 623.8 167.7C626.6 168.4 628.9 170.2 630.4 172.7C633.4 177.9 631.6 184.5 626.4 187.5C624.8 188.5 622.9 189 621.1 189ZM621 169.2C619.4 169.2 617.9 169.6 616.5 170.4C614.4 171.6 612.9 173.5 612.3 175.8C611.7 178.1 612 180.5 613.2 182.6C614.4 184.7 616.3 186.2 618.6 186.8C620.9 187.4 623.3 187.1 625.4 185.9C629.7 183.4 631.2 177.9 628.7 173.6C627.5 171.5 625.6 170 623.3 169.4C622.6 169.3 621.8 169.2 621 169.2Z" fill="#231F1C"/>
<path d="M585.7 224.4C583.9 224.4 582 223.9 580.3 223C575.1 220 573.4 213.4 576.3 208.2C579.3 203 585.9 201.3 591.1 204.2C593.6 205.6 595.4 208 596.1 210.8C596.8 213.6 596.5 216.5 595 219C593 222.5 589.4 224.4 585.7 224.4ZM585.7 204.6C582.6 204.6 579.6 206.2 577.9 209.1C575.4 213.4 576.9 218.9 581.2 221.4C585.5 223.9 591 222.4 593.5 218.1C596 213.8 594.5 208.3 590.2 205.8C588.7 205 587.2 204.6 585.7 204.6Z" fill="#231F1C"/>
<path d="M572.7 272.7C566.7 272.7 561.9 267.9 561.9 261.9C561.9 255.9 566.7 251.1 572.7 251.1C578.7 251.1 583.5 255.9 583.5 261.9C583.5 267.9 578.7 272.7 572.7 272.7ZM572.7 252.9C567.8 252.9 563.7 256.9 563.7 261.9C563.7 266.8 567.7 270.9 572.7 270.9C577.6 270.9 581.7 266.9 581.7 261.9C581.7 257 577.7 252.9 572.7 252.9Z" fill="#231F1C"/>
<path d="M585.7 321C582 321 578.3 319.1 576.3 315.6C573.3 310.4 575.1 303.8 580.3 300.8C585.5 297.8 592.1 299.6 595.1 304.8C596.5 307.3 596.9 310.2 596.2 313C595.5 315.8 593.7 318.1 591.2 319.6C589.4 320.6 587.5 321 585.7 321ZM581.2 302.5C576.9 305 575.4 310.5 577.9 314.8C580.4 319.1 585.9 320.6 590.2 318.1C592.3 316.9 593.8 315 594.4 312.7C595 310.4 594.7 308 593.5 305.9C591 301.5 585.5 300 581.2 302.5Z" fill="#231F1C"/>
<path d="M621 356.4C619.1 356.4 617.3 355.9 615.6 354.9C613.1 353.5 611.3 351.1 610.6 348.3C609.9 345.5 610.2 342.6 611.7 340.1C613.1 337.6 615.5 335.8 618.3 335.1C621.1 334.4 624 334.7 626.5 336.2C631.7 339.2 633.4 345.8 630.5 351C629.1 353.5 626.7 355.3 623.9 356C622.9 356.3 622 356.4 621 356.4ZM621.1 336.6C620.3 336.6 619.5 336.7 618.8 336.9C616.5 337.5 614.6 339 613.4 341.1C612.2 343.2 611.9 345.6 612.5 347.9C613.1 350.2 614.6 352.1 616.7 353.3C618.8 354.5 621.2 354.8 623.5 354.2C625.8 353.6 627.7 352.1 628.9 350C631.4 345.7 629.9 340.2 625.6 337.7C624.1 337 622.6 336.6 621.1 336.6Z" fill="#231F1C"/>
<path d="M669.4 369.4C663.4 369.4 658.6 364.6 658.6 358.6C658.6 352.6 663.4 347.8 669.4 347.8C675.4 347.8 680.2 352.6 680.2 358.6C680.2 364.5 675.3 369.4 669.4 369.4ZM669.4 349.6C664.5 349.6 660.4 353.6 660.4 358.6C660.4 363.5 664.4 367.6 669.4 367.6C674.3 367.6 678.4 363.6 678.4 358.6C678.3 353.6 674.3 349.6 669.4 349.6Z" fill="#231F1C"/>
<path d="M717.7 356.4C716.8 356.4 715.8 356.3 714.9 356C712.1 355.3 709.8 353.5 708.3 351C706.9 348.5 706.5 345.6 707.2 342.8C707.9 340 709.7 337.7 712.2 336.2C714.7 334.7 717.6 334.4 720.4 335.1C723.2 335.8 725.5 337.6 727 340.1C728.4 342.6 728.8 345.5 728.1 348.3C727.4 351.1 725.6 353.4 723.1 354.9C721.4 355.9 719.6 356.4 717.7 356.4ZM717.7 336.6C716.1 336.6 714.6 337 713.2 337.8C711.1 339 709.6 340.9 709 343.2C708.4 345.5 708.7 347.9 709.9 350C711.1 352.1 713 353.6 715.3 354.2C717.6 354.8 720 354.5 722.1 353.3C724.2 352.1 725.7 350.2 726.3 347.9C726.9 345.6 726.6 343.2 725.4 341.1C724.2 339 722.3 337.5 720 336.9C719.2 336.7 718.5 336.6 717.7 336.6Z" fill="#231F1C"/>
<path d="M753 321C751.2 321 749.3 320.5 747.6 319.6C742.4 316.6 740.7 310 743.6 304.8C746.6 299.6 753.2 297.9 758.4 300.8C760.9 302.2 762.7 304.6 763.4 307.4C764.1 310.2 763.8 313.1 762.3 315.6C760.4 319.1 756.8 321 753 321ZM748.6 318C752.9 320.5 758.4 319 760.9 314.7C762.1 312.6 762.4 310.2 761.8 307.9C761.2 305.6 759.7 303.6 757.6 302.5C753.3 300 747.8 301.5 745.3 305.8C742.8 310 744.3 315.5 748.6 318Z" fill="#231F1C"/>
<path d="M766 272.7C760 272.7 755.2 267.9 755.2 261.9C755.2 255.9 760 251.1 766 251.1C772 251.1 776.8 255.9 776.8 261.9C776.8 267.9 772 272.7 766 272.7ZM766 252.9C761.1 252.9 757 256.9 757 261.9C757 266.8 761 270.9 766 270.9C770.9 270.9 775 266.9 775 261.9C775 257 771 252.9 766 252.9Z" fill="#231F1C"/>
<path d="M753.1 224.4C749.4 224.4 745.7 222.5 743.7 219C740.7 213.8 742.5 207.2 747.7 204.2C752.9 201.2 759.5 203 762.5 208.2C763.9 210.7 764.3 213.6 763.6 216.4C762.9 219.2 761.1 221.5 758.6 223C756.8 223.9 754.9 224.4 753.1 224.4ZM753.1 204.6C751.6 204.6 750 205 748.6 205.8C744.3 208.3 742.8 213.8 745.3 218.1C747.8 222.4 753.3 223.9 757.6 221.4C759.7 220.2 761.2 218.3 761.8 216C762.4 213.7 762.1 211.3 760.9 209.2C759.2 206.2 756.2 204.6 753.1 204.6Z" fill="#231F1C"/>
<path d="M717.7 189C715.8 189 714 188.5 712.3 187.5C709.8 186.1 708 183.7 707.3 180.9C706.6 178.1 706.9 175.2 708.4 172.7C709.8 170.2 712.2 168.4 715 167.7C717.8 167 720.7 167.3 723.2 168.8C725.7 170.2 727.5 172.6 728.2 175.4C728.9 178.2 728.6 181.1 727.1 183.6C725.7 186.1 723.3 187.9 720.5 188.6C719.6 188.9 718.6 189 717.7 189ZM717.7 169.2C716.9 169.2 716.1 169.3 715.4 169.5C713.1 170.1 711.2 171.6 710 173.7C708.8 175.8 708.5 178.2 709.1 180.5C709.7 182.8 711.2 184.8 713.3 185.9C715.4 187.1 717.8 187.4 720.1 186.8C722.4 186.2 724.3 184.7 725.5 182.6C726.7 180.5 727 178.1 726.4 175.8C725.8 173.5 724.3 171.5 722.2 170.4C720.8 169.7 719.3 169.2 717.7 169.2Z" fill="#231F1C"/>
<path d="M670.3 188.5H668.5V335.3H670.3V188.5Z" fill="#231F1C"/>
<path d="M633.448 197.854L631.89 198.754L705.29 325.883L706.848 324.983L633.448 197.854Z" fill="#231F1C"/>
<path d="M606.239 224.423L605.339 225.982L732.468 299.382L733.368 297.823L606.239 224.423Z" fill="#231F1C"/>
<path d="M742.8 261H596V262.8H742.8V261Z" fill="#231F1C"/>
<path d="M732.518 224.439L605.374 297.824L606.274 299.383L733.418 225.998L732.518 224.439Z" fill="#231F1C"/>
<path d="M705.286 197.835L631.901 324.978L633.46 325.878L706.845 198.734L705.286 197.835Z" fill="#231F1C"/>
<path d="M642.3 406.1L630.9 404.8L661.5 261.9L672.8 263.2L642.3 406.1Z" fill="#F2FFFB"/>
<path d="M696.5 406.1L707.8 404.8L677.2 261.9L665.9 263.2L696.5 406.1Z" fill="#F2FFFB"/>
<path d="M696.5 406.1L707.8 404.8L677.2 261.9L665.9 263.2L696.5 406.1Z" fill="#F2FFFB"/>
<path d="M643 407.1L629.8 405.6L630 404.6L660.7 260.9L673.9 262.4L673.7 263.4L643 407.1ZM632 404L641.5 405.1L671.7 264.1L662.2 263L632 404Z" fill="#231F1C"/>
<path d="M695.7 407.1L695.5 406.3L664.7 262.5L677.9 261L678.1 261.8L708.9 405.6L695.7 407.1ZM667 264L697.2 405L706.7 403.9L676.5 262.9L667 264Z" fill="#231F1C"/>
<path d="M669.4 280C679.396 280 687.5 271.896 687.5 261.9C687.5 251.904 679.396 243.8 669.4 243.8C659.404 243.8 651.3 251.904 651.3 261.9C651.3 271.896 659.404 280 669.4 280Z" fill="#21CE99"/>
<path d="M669.4 281C658.9 281 650.3 272.5 650.3 261.9C650.3 251.4 658.8 242.8 669.4 242.8C679.9 242.8 688.5 251.3 688.5 261.9C688.4 272.4 679.9 281 669.4 281ZM669.4 244.7C659.9 244.7 652.2 252.4 652.2 261.9C652.2 271.4 659.9 279.1 669.4 279.1C678.9 279.1 686.6 271.4 686.6 261.9C686.6 252.4 678.9 244.7 669.4 244.7Z" fill="#231F1C"/>
<path d="M722.4 399.2H616.3V414.3H722.4V399.2Z" fill="#F2FFFB"/>
<path d="M722.4 414.3V399.2H690.6V414.3H711.7V431.8H743.4V414.3H722.4Z" fill="#21CE99"/>
<path d="M723.3 415.2H615.4V398.3H723.3V415.2ZM617.2 413.4H721.4V400.2H617.2V413.4Z" fill="#231F1C"/>
<path d="M744.3 432.8H594.4V413.4H744.3V432.8ZM596.2 430.9H742.5V415.2H596.2V430.9Z" fill="#231F1C"/>
<path d="M546.2 388.4C545.9 387.2 545.7 386 545.7 384.7C545.7 376.9 552 370.6 559.8 370.6C567.6 370.6 573.9 376.9 573.9 384.7C573.9 386 573.7 387.2 573.4 388.4C578.7 390 582.5 395 582.5 400.8C582.5 408 576.7 413.8 569.5 413.8C565.6 413.8 562.1 412.1 559.7 409.4C557.3 412.1 553.8 413.8 549.9 413.8C542.7 413.8 536.9 408 536.9 400.8C537.1 395 541 390.1 546.2 388.4Z" fill="#F2FFFB"/>
<path d="M573.5 388.4C573.8 387.2 574 386 574 384.7C574 376.9 567.7 370.6 559.9 370.6C557.8 370.6 555.8 371.1 554.1 371.9C559 374.1 562.4 379 562.4 384.7C562.4 386 562.2 387.2 561.9 388.4C567.2 390 571 395 571 400.8C571 405.9 568.1 410.2 563.9 412.4C565.7 413.3 567.6 413.8 569.7 413.8C576.9 413.8 582.7 408 582.7 400.8C582.6 395 578.8 390.1 573.5 388.4Z" fill="#21CE99"/>
<path d="M569.6 414.7C565.9 414.7 562.4 413.3 559.8 410.7C557.2 413.3 553.7 414.7 550 414.7C542.3 414.7 536.1 408.5 536.1 400.8C536.1 395 539.7 389.9 545 387.8C544.8 386.8 544.7 385.8 544.7 384.7C544.7 376.4 551.4 369.7 559.7 369.7C568 369.7 574.7 376.4 574.7 384.7C574.7 385.7 574.6 386.8 574.4 387.8C579.8 389.8 583.3 395 583.3 400.8C583.5 408.5 577.3 414.7 569.6 414.7ZM559.9 408.4C560.2 408.4 560.4 408.5 560.6 408.7C562.9 411.3 566.2 412.8 569.7 412.8C576.4 412.8 581.8 407.4 581.8 400.7C581.8 395.4 578.4 390.8 573.3 389.2C572.8 389.1 572.6 388.6 572.7 388.1C573 387 573.2 385.8 573.2 384.7C573.2 377.4 567.3 371.5 560 371.5C552.7 371.5 546.8 377.4 546.8 384.7C546.8 385.9 547 387 547.3 388.1C547.4 388.6 547.2 389.1 546.7 389.2C541.6 390.8 538.2 395.4 538.2 400.7C538.2 407.4 543.6 412.8 550.3 412.8C553.8 412.8 557.1 411.3 559.4 408.7C559.4 408.6 559.6 408.4 559.9 408.4Z" fill="#231F1C"/>
<path d="M559.9 433.5C559.4 433.5 559 433.1 559 432.6V386.5C559 386 559.4 385.6 559.9 385.6C560.4 385.6 560.8 386 560.8 386.5V432.6C560.8 433.1 560.4 433.5 559.9 433.5Z" fill="#231F1C"/>
<path d="M559.9 398.6C559.7 398.6 559.5 398.5 559.3 398.4C558.9 398.1 558.9 397.5 559.2 397.1L565 390.7C565.3 390.3 565.9 390.3 566.3 390.6C566.7 390.9 566.7 391.5 566.4 391.9L560.6 398.3C560.4 398.5 560.1 398.6 559.9 398.6Z" fill="#231F1C"/>
<path d="M559.9 405.3C559.7 405.3 559.5 405.2 559.4 405.1L551.9 399.9C551.5 399.6 551.4 399 551.7 398.6C552 398.2 552.6 398.1 553 398.4L560.5 403.7C560.9 404 561 404.6 560.7 405C560.4 405.2 560.2 405.3 559.9 405.3Z" fill="#231F1C"/>
<path d="M1152.7 393.3C1152.4 392.3 1152.3 391.2 1152.3 390.1C1152.3 383.4 1157.7 377.9 1164.5 377.9C1171.2 377.9 1176.7 383.3 1176.7 390.1C1176.7 391.2 1176.6 392.3 1176.3 393.3C1180.8 394.7 1184.1 399 1184.1 404C1184.1 410.2 1179.1 415.2 1172.9 415.2C1169.5 415.2 1166.5 413.7 1164.5 411.4C1162.4 413.7 1159.4 415.2 1156.1 415.2C1149.9 415.2 1144.9 410.2 1144.9 404C1144.9 399 1148.2 394.7 1152.7 393.3Z" fill="#F2FFFB"/>
<path d="M1176.2 393.3C1176.5 392.3 1176.6 391.2 1176.6 390.1C1176.6 383.4 1171.2 377.9 1164.4 377.9C1162.6 377.9 1160.9 378.3 1159.4 379C1163.6 380.9 1166.5 385.1 1166.5 390.1C1166.5 391.2 1166.4 392.3 1166.1 393.3C1170.6 394.7 1173.9 399 1173.9 404C1173.9 408.4 1171.4 412.1 1167.8 414C1169.3 414.8 1171 415.2 1172.8 415.2C1179 415.2 1184 410.2 1184 404C1184.1 399 1180.8 394.7 1176.2 393.3Z" fill="#21CE99"/>
<path d="M1172.9 416.1C1169.8 416.1 1166.7 414.9 1164.5 412.7C1162.3 414.9 1159.2 416.1 1156.1 416.1C1149.4 416.1 1144 410.7 1144 404C1144 399 1147.1 394.5 1151.7 392.7C1151.5 391.9 1151.4 391 1151.4 390.1C1151.4 382.9 1157.3 377 1164.5 377C1171.7 377 1177.6 382.9 1177.6 390.1C1177.6 391 1177.5 391.8 1177.3 392.7C1181.9 394.5 1185 398.9 1185 404C1185 410.7 1179.5 416.1 1172.9 416.1ZM1164.5 410.5C1164.8 410.5 1165 410.6 1165.2 410.8C1167.2 413 1170 414.3 1172.9 414.3C1178.6 414.3 1183.2 409.7 1183.2 404C1183.2 399.5 1180.3 395.5 1176 394.2C1175.5 394.1 1175.3 393.6 1175.4 393.1C1175.7 392.1 1175.8 391.2 1175.8 390.2C1175.8 384 1170.8 378.9 1164.5 378.9C1158.3 378.9 1153.2 383.9 1153.2 390.2C1153.2 391.2 1153.3 392.2 1153.6 393.1C1153.7 393.6 1153.5 394.1 1153 394.2C1148.7 395.5 1145.8 399.5 1145.8 404C1145.8 409.7 1150.4 414.3 1156.1 414.3C1159.1 414.3 1161.9 413 1163.8 410.8C1163.9 410.6 1164.2 410.5 1164.5 410.5Z" fill="#231F1C"/>
<path d="M1164.5 432.3C1164 432.3 1163.6 431.9 1163.6 431.4V391.7C1163.6 391.2 1164 390.8 1164.5 390.8C1165 390.8 1165.4 391.2 1165.4 391.7V431.4C1165.4 431.9 1165 432.3 1164.5 432.3Z" fill="#231F1C"/>
<path d="M1164.5 402.2C1164.3 402.2 1164.1 402.1 1163.9 402C1163.5 401.7 1163.5 401.1 1163.8 400.7L1168.8 395.2C1169.1 394.8 1169.7 394.8 1170.1 395.1C1170.5 395.4 1170.5 396 1170.2 396.4L1165.2 401.9C1165 402.1 1164.7 402.2 1164.5 402.2Z" fill="#231F1C"/>
<path d="M1164.5 408C1164.3 408 1164.1 407.9 1164 407.8L1157.5 403.3C1157.1 403 1157 402.4 1157.3 402C1157.6 401.6 1158.2 401.5 1158.6 401.8L1165.1 406.3C1165.5 406.6 1165.6 407.2 1165.3 407.6C1165 407.9 1164.7 408 1164.5 408Z" fill="#231F1C"/>
<path d="M828.5 382.5C828.9 381.2 829.1 379.8 829.1 378.3C829.1 369.5 821.9 362.3 813.1 362.3C804.3 362.3 797.1 369.5 797.1 378.3C797.1 379.7 797.3 381.1 797.7 382.5C791.7 384.4 787.4 390 787.4 396.6C787.4 404.7 794 411.3 802.1 411.3C806.5 411.3 810.5 409.4 813.2 406.3C815.9 409.4 819.9 411.3 824.3 411.3C832.4 411.3 839 404.7 839 396.6C838.9 389.9 834.5 384.3 828.5 382.5Z" fill="#F2FFFB"/>
<path d="M795.7 409.9C797.6 410.8 799.7 411.3 802 411.3C803.7 411.3 805.3 411 806.8 410.5" fill="#21CE99"/>
<path d="M828.5 382.5C828.9 381.2 829.1 379.8 829.1 378.3C829.1 369.5 821.9 362.3 813.1 362.3C810.9 362.3 808.8 362.8 806.8 363.6C812.5 366 816.6 371.7 816.6 378.3C816.6 379.7 816.4 381.1 816 382.5C822 384.4 826.3 390 826.3 396.6C826.3 402.5 822.8 407.6 817.8 409.9C819.7 410.8 821.8 411.3 824.1 411.3C832.2 411.3 838.8 404.7 838.8 396.6C838.9 389.9 834.5 384.3 828.5 382.5Z" fill="#21CE99"/>
<path d="M824.1 412.2C819.9 412.2 816 410.5 813 407.6C810.1 410.5 806.1 412.2 801.9 412.2C793.3 412.2 786.3 405.2 786.3 396.6C786.3 390 790.3 384.2 796.5 381.9C796.2 380.7 796.1 379.5 796.1 378.3C796.1 369 803.7 361.4 813 361.4C822.3 361.4 829.9 369 829.9 378.3C829.9 379.5 829.8 380.7 829.5 381.9C835.6 384.2 839.7 390 839.7 396.6C839.8 405.2 832.8 412.2 824.1 412.2ZM813.1 405.3C813.4 405.3 813.6 405.4 813.8 405.6C816.4 408.6 820.2 410.3 824.2 410.3C831.8 410.3 838 404.1 838 396.5C838 390.4 834.1 385.1 828.3 383.3C827.8 383.2 827.6 382.7 827.7 382.2C828 380.9 828.2 379.6 828.2 378.3C828.2 370 821.4 363.2 813.1 363.2C804.8 363.2 798 370 798 378.3C798 379.6 798.2 381 798.5 382.2C798.6 382.7 798.4 383.2 797.9 383.3C792.1 385.1 788.2 390.4 788.2 396.5C788.2 404.1 794.4 410.3 802 410.3C806 410.3 809.8 408.6 812.4 405.6C812.5 405.4 812.8 405.3 813.1 405.3Z" fill="#231F1C"/>
<path d="M813.1 433.5C812.6 433.5 812.2 433.1 812.2 432.6V380.3C812.2 379.8 812.6 379.4 813.1 379.4C813.6 379.4 814 379.8 814 380.3V432.6C814 433.1 813.6 433.5 813.1 433.5Z" fill="#231F1C"/>
<path d="M813.1 393.9C812.9 393.9 812.6 393.8 812.4 393.6L805.8 386.4C805.5 386 805.5 385.4 805.9 385.1C806.3 384.8 806.9 384.8 807.2 385.2L813.8 392.4C814.1 392.8 814.1 393.4 813.7 393.7C813.5 393.8 813.3 393.9 813.1 393.9Z" fill="#231F1C"/>
<path d="M813.1 401.5C812.8 401.5 812.5 401.4 812.3 401.1C812 400.7 812.1 400.1 812.5 399.8L821.1 393.8C821.5 393.5 822.1 393.6 822.4 394C822.7 394.4 822.6 395 822.2 395.3L813.6 401.3C813.4 401.5 813.2 401.5 813.1 401.5Z" fill="#231F1C"/>
<path d="M468.1 387.6C468.4 386.4 468.6 385.2 468.6 383.9C468.6 376.1 462.3 369.8 454.5 369.8C446.7 369.8 440.4 376.1 440.4 383.9C440.4 385.2 440.6 386.4 440.9 387.6C435.6 389.2 431.8 394.2 431.8 400C431.8 407.2 437.6 413 444.8 413C448.7 413 452.2 411.3 454.6 408.6C457 411.3 460.5 413 464.4 413C471.6 413 477.4 407.2 477.4 400C477.2 394.1 473.4 389.2 468.1 387.6Z" fill="#F2FFFB"/>
<path d="M439.2 411.7C440.9 412.5 442.7 412.9 444.7 412.9C446.2 412.9 447.6 412.6 448.9 412.2" fill="#21CE99"/>
<path d="M468.1 387.6C468.4 386.4 468.6 385.2 468.6 383.9C468.6 376.1 462.3 369.8 454.5 369.8C452.5 369.8 450.7 370.2 449 370.9C454.1 373 457.6 378.1 457.6 383.9C457.6 385.2 457.4 386.4 457.1 387.6C462.4 389.2 466.2 394.2 466.2 400C466.2 405.2 463.1 409.7 458.7 411.7C460.4 412.5 462.3 412.9 464.2 412.9C471.4 412.9 477.2 407.1 477.2 399.9C477.2 394.1 473.4 389.2 468.1 387.6Z" fill="#21CE99"/>
<path d="M464.2 413.8C460.5 413.8 457 412.4 454.4 409.8C451.8 412.4 448.3 413.8 444.6 413.8C436.9 413.8 430.7 407.6 430.7 399.9C430.7 394.1 434.3 389 439.6 386.9C439.4 385.9 439.3 384.9 439.3 383.8C439.3 375.5 446 368.8 454.3 368.8C462.6 368.8 469.3 375.5 469.3 383.8C469.3 384.8 469.2 385.9 469 386.9C474.4 388.9 477.9 394.1 477.9 399.9C478.1 407.6 471.9 413.8 464.2 413.8ZM454.5 407.6C454.8 407.6 455 407.7 455.2 407.9C457.5 410.5 460.8 412 464.3 412C471 412 476.4 406.6 476.4 399.9C476.4 394.6 473 390 467.9 388.4C467.4 388.3 467.2 387.8 467.3 387.3C467.6 386.2 467.8 385 467.8 383.9C467.8 376.6 461.9 370.7 454.6 370.7C447.3 370.7 441.4 376.6 441.4 383.9C441.4 385.1 441.6 386.2 441.9 387.3C442 387.8 441.8 388.3 441.3 388.4C436.2 390 432.8 394.6 432.8 399.9C432.8 406.6 438.2 412 444.9 412C448.4 412 451.7 410.5 454 407.9C454 407.7 454.2 407.6 454.5 407.6Z" fill="#231F1C"/>
<path d="M454.5 432.6C454 432.6 453.6 432.2 453.6 431.7V385.6C453.6 385.1 454 384.7 454.5 384.7C455 384.7 455.4 385.1 455.4 385.6V431.7C455.4 432.2 455 432.6 454.5 432.6Z" fill="#231F1C"/>
<path d="M454.5 397.7C454.3 397.7 454 397.6 453.8 397.4L448 391C447.7 390.6 447.7 390 448.1 389.7C448.5 389.4 449.1 389.4 449.4 389.8L455.2 396.2C455.5 396.6 455.5 397.2 455.1 397.5C454.9 397.6 454.7 397.7 454.5 397.7Z" fill="#231F1C"/>
<path d="M454.5 404.5C454.2 404.5 453.9 404.4 453.7 404.1C453.4 403.7 453.5 403.1 453.9 402.8L461.4 397.5C461.8 397.2 462.4 397.3 462.7 397.7C463 398.1 462.9 398.7 462.5 399L455 404.3C454.8 404.4 454.7 404.5 454.5 404.5Z" fill="#231F1C"/>
<path d="M540.5 216.2H460V135.7H540.5V216.2ZM461.9 214.3H538.8V137.4H461.9V214.3Z" fill="#231F1C"/>
<path d="M1266.6 450H11.4C5.60002 450 0.900024 445.3 0.900024 439.5C0.900024 433.7 5.60002 429 11.4 429H1266.6C1272.4 429 1277.1 433.7 1277.1 439.5C1277.1 445.3 1272.4 450 1266.6 450Z" fill="#21CE99"/>
<path d="M1266.6 450.8H11.4C5.1 450.8 0 445.7 0 439.4C0 433.1 5.1 428 11.4 428H1266.5C1272.8 428 1277.9 433.1 1277.9 439.4C1277.9 445.7 1272.8 450.8 1266.6 450.8ZM11.4 429.8C6.1 429.8 1.7 434.1 1.7 439.5C1.7 444.8 6 449.2 11.4 449.2H1266.5C1271.8 449.2 1276.2 444.9 1276.2 439.5C1276.2 434.2 1271.9 429.8 1266.5 429.8H11.4Z" fill="#41423F"/>
</svg>
