<svg width="1281" height="448" viewBox="0 0 1281 448" fill="none" xmlns="http://www.w3.org/2000/svg">
<path d="M235 211.7H184.4V246H235V211.7Z" fill="#F3FFF6"/>
<path d="M235.9 246.9H183.5V210.9H235.9V246.9ZM185.2 245.2H234.1V212.6H185.2V245.2V245.2Z" fill="#41423F"/>
<path d="M245.1 227.3H174.3V427H245.1V227.3Z" fill="#F3FFF6"/>
<path d="M245.9 427.8H173.4V226.4H245.9V427.8ZM175.1 426.1H244.2V228.1H175.1V426.1Z" fill="#41423F"/>
<path d="M202.6 243.2H188.5V322.8H202.6V243.2Z" fill="#71E08A"/>
<path d="M230.8 243.2H216.7V322.8H230.8V243.2Z" fill="#71E08A"/>
<path d="M202.6 331.4H188.5V411H202.6V331.4Z" fill="#71E08A"/>
<path d="M230.8 331.4H216.7V411H230.8V331.4Z" fill="#71E08A"/>
<path d="M203.5 323.7H187.7V242.3H203.5V323.7ZM189.4 322H201.8V244H189.4V322Z" fill="#41423F"/>
<path d="M231.7 323.7H215.9V242.3H231.7V323.7ZM217.6 322H230V244H217.6V322Z" fill="#41423F"/>
<path d="M203.5 411.9H187.7V330.5H203.5V411.9ZM189.4 410.2H201.8V332.3H189.4V410.2Z" fill="#41423F"/>
<path d="M231.7 411.9H215.9V330.5H231.7V411.9ZM217.6 410.2H230V332.3H217.6V410.2Z" fill="#41423F"/>
<path d="M724.9 170.2H631.7V426.2H724.9V170.2Z" fill="#F3FFF6"/>
<path d="M725.8 427.1H630.9V169.4H725.8V427.1ZM632.6 425.4H724V171.1H632.5V425.4H632.6Z" fill="#41423F"/>
<path d="M670.1 188.4H644.7V209H670.1V188.4Z" fill="#71E08A"/>
<path d="M711.9 188.4H686.5V209H711.9V188.4Z" fill="#71E08A"/>
<path d="M670.1 228.2H644.7V248.8H670.1V228.2Z" fill="#71E08A"/>
<path d="M711.9 228.2H686.5V248.8H711.9V228.2Z" fill="#71E08A"/>
<path d="M670.1 268H644.7V288.6H670.1V268Z" fill="#71E08A"/>
<path d="M711.9 268H686.5V288.6H711.9V268Z" fill="#71E08A"/>
<path d="M670.1 307.8H644.7V328.4H670.1V307.8Z" fill="#71E08A"/>
<path d="M711.9 307.8H686.5V328.4H711.9V307.8Z" fill="#71E08A"/>
<path d="M670.1 347.6H644.7V368.2H670.1V347.6Z" fill="#71E08A"/>
<path d="M711.9 347.6H686.5V368.2H711.9V347.6Z" fill="#71E08A"/>
<path d="M670.1 387.4H644.7V408H670.1V387.4Z" fill="#71E08A"/>
<path d="M711.9 387.4H686.5V408H711.9V387.4Z" fill="#71E08A"/>
<path d="M671 209.9H643.9V187.6H671V209.9ZM645.6 208.2H669.3V189.3H645.6V208.2Z" fill="#41423F"/>
<path d="M712.7 209.9H685.6V187.6H712.7V209.9ZM687.3 208.2H711V189.3H687.3V208.2Z" fill="#41423F"/>
<path d="M671 249.7H643.9V227.4H671V249.7ZM645.6 248H669.3V229.1H645.6V248Z" fill="#41423F"/>
<path d="M712.7 249.7H685.6V227.4H712.7V249.7ZM687.3 248H711V229.1H687.3V248Z" fill="#41423F"/>
<path d="M671 289.5H643.9V267.2H671V289.5ZM645.6 287.8H669.3V268.9H645.6V287.8Z" fill="#41423F"/>
<path d="M712.7 289.5H685.6V267.2H712.7V289.5ZM687.3 287.8H711V268.9H687.3V287.8Z" fill="#41423F"/>
<path d="M671 329.3H643.9V307H671V329.3ZM645.6 327.6H669.3V308.7H645.6V327.6Z" fill="#41423F"/>
<path d="M712.7 329.3H685.6V307H712.7V329.3ZM687.3 327.6H711V308.7H687.3V327.6Z" fill="#41423F"/>
<path d="M671 369.1H643.9V346.8H671V369.1ZM645.6 367.4H669.3V348.5H645.6V367.4Z" fill="#41423F"/>
<path d="M712.7 369.1H685.6V346.8H712.7V369.1ZM687.3 367.4H711V348.5H687.3V367.4Z" fill="#41423F"/>
<path d="M671 408.9H643.9V386.6H671V408.9ZM645.6 407.2H669.3V388.3H645.6V407.2Z" fill="#41423F"/>
<path d="M712.7 408.9H685.6V386.6H712.7V408.9ZM687.3 407.2H711V388.3H687.3V407.2Z" fill="#41423F"/>
<path d="M1211.3 122.5H1209.6V168.4H1211.3V122.5Z" fill="#41423F"/>
<path d="M1210.4 199.4C1197.3 199.4 1186.7 188.8 1186.7 175.7C1186.7 162.6 1197.3 152 1210.4 152C1223.5 152 1234.1 162.6 1234.1 175.7C1234.1 188.8 1223.5 199.4 1210.4 199.4Z" fill="#21CE99"/>
<path d="M1210.4 200.2C1196.9 200.2 1185.9 189.2 1185.9 175.7C1185.9 162.2 1196.9 151.2 1210.4 151.2C1223.9 151.2 1234.9 162.2 1234.9 175.7C1234.9 189.3 1223.9 200.2 1210.4 200.2ZM1210.4 152.9C1197.8 152.9 1187.6 163.1 1187.6 175.7C1187.6 188.3 1197.8 198.5 1210.4 198.5C1223 198.5 1233.2 188.3 1233.2 175.7C1233.2 163.1 1223 152.9 1210.4 152.9Z" fill="#41423F"/>
<path d="M1243.8 173.6H1177.1V234.8H1243.8V173.6Z" fill="#F3FFF6"/>
<path d="M1244.6 235.7H1176.2V172.7H1244.6V235.7ZM1178 234H1243V174.5H1178V234Z" fill="#41423F"/>
<path d="M1261.3 223.1H1159.6V427H1261.3V223.1Z" fill="#F3FFF6"/>
<path d="M1262.1 427.8H1158.7V222.2H1262.1V427.8ZM1160.5 426.1H1260.4V223.9H1160.5V426.1Z" fill="#41423F"/>
<path d="M1229.9 406.1H1190.9V227.2C1190.9 216.4 1199.6 207.7 1210.4 207.7C1221.2 207.7 1229.9 216.4 1229.9 227.2V406.1Z" fill="#21CE99"/>
<path d="M1230.8 407H1190.1V227.2C1190.1 216 1199.2 206.9 1210.4 206.9C1221.6 206.9 1230.7 216 1230.7 227.2V407H1230.8ZM1191.8 405.3H1229.1V227.3C1229.1 217 1220.7 208.7 1210.5 208.7C1200.3 208.7 1191.9 217.1 1191.9 227.3V405.3H1191.8Z" fill="#41423F"/>
<path d="M1220.2 239H1200.7V243.6H1220.2V239Z" fill="#71E08A"/>
<path d="M1220.2 268.6H1200.7V273.2H1220.2V268.6Z" fill="#71E08A"/>
<path d="M1220.2 298.2H1200.7V302.8H1220.2V298.2Z" fill="#71E08A"/>
<path d="M1220.2 327.8H1200.7V332.4H1220.2V327.8Z" fill="#71E08A"/>
<path d="M1220.2 357.4H1200.7V362H1220.2V357.4Z" fill="#71E08A"/>
<path d="M1220.2 387H1200.7V391.6H1220.2V387Z" fill="#71E08A"/>
<path d="M1221 244.5H1199.8V238.2H1221V244.5ZM1201.5 242.7H1219.3V239.8H1201.5V242.7Z" fill="#41423F"/>
<path d="M1221 274.1H1199.8V267.8H1221V274.1ZM1201.5 272.3H1219.3V269.4H1201.5V272.3Z" fill="#41423F"/>
<path d="M1221 303.7H1199.8V297.4H1221V303.7ZM1201.5 302H1219.3V299H1201.5V302Z" fill="#41423F"/>
<path d="M1221 333.3H1199.8V327H1221V333.3ZM1201.5 331.6H1219.3V328.7H1201.5V331.6Z" fill="#41423F"/>
<path d="M1221 362.9H1199.8V356.6H1221V362.9ZM1201.5 361.2H1219.3V358.3H1201.5V361.2Z" fill="#41423F"/>
<path d="M1221 392.5H1199.8V386.2H1221V392.5ZM1201.5 390.8H1219.3V387.9H1201.5V390.8Z" fill="#41423F"/>
<path d="M1234.1 184.4H1186.8V196.9H1234.1V184.4Z" fill="#71E08A"/>
<path d="M1234.9 197.8H1185.9V183.6H1234.9V197.8ZM1187.6 196.1H1233.2V185.3H1187.6V196.1Z" fill="#41423F"/>
<path d="M1243.8 397.6C1243.3 397.6 1242.9 397.2 1242.9 396.7V239C1242.9 238.5 1243.3 238.1 1243.8 238.1C1244.3 238.1 1244.7 238.5 1244.7 239V396.8C1244.6 397.2 1244.2 397.6 1243.8 397.6Z" fill="#41423F"/>
<path d="M1177.1 397.6C1176.6 397.6 1176.2 397.2 1176.2 396.7V239C1176.2 238.5 1176.6 238.1 1177.1 238.1C1177.6 238.1 1178 238.5 1178 239V396.8C1178 397.2 1177.6 397.6 1177.1 397.6Z" fill="#41423F"/>
<path d="M1138 167.1H1058.1V426.3H1138V167.1Z" fill="#F7F9F9"/>
<path d="M1138.8 427.1H1057.2V166.3H1138.8V427.1ZM1058.9 425.4H1137.1V168H1058.9V425.4Z" fill="#41423F"/>
<path d="M1092.7 187.1H1068.6V211.3H1092.7V187.1Z" fill="#71E08A"/>
<path d="M1127.5 187.1H1103.4V211.3H1127.5V187.1Z" fill="#71E08A"/>
<path d="M1092.7 232.2H1068.6V256.4H1092.7V232.2Z" fill="#71E08A"/>
<path d="M1127.5 232.2H1103.4V256.4H1127.5V232.2Z" fill="#71E08A"/>
<path d="M1092.7 277.3H1068.6V301.5H1092.7V277.3Z" fill="#71E08A"/>
<path d="M1127.5 277.3H1103.4V301.5H1127.5V277.3Z" fill="#71E08A"/>
<path d="M1092.7 322.4H1068.6V346.6H1092.7V322.4Z" fill="#71E08A"/>
<path d="M1127.5 322.4H1103.4V346.6H1127.5V322.4Z" fill="#71E08A"/>
<path d="M1092.7 367.5H1068.6V391.7H1092.7V367.5Z" fill="#71E08A"/>
<path d="M1127.5 367.5H1103.4V391.7H1127.5V367.5Z" fill="#71E08A"/>
<path d="M1093.5 212.2H1067.7V186.3H1093.5V212.2ZM1069.4 210.5H1091.7V188H1069.4V210.5Z" fill="#41423F"/>
<path d="M1128.4 212.2H1102.6V186.3H1128.4V212.2ZM1104.3 210.5H1126.6V188H1104.3V210.5Z" fill="#41423F"/>
<path d="M1093.5 257.3H1067.7V231.4H1093.5V257.3ZM1069.4 255.6H1091.7V233.1H1069.4V255.6Z" fill="#41423F"/>
<path d="M1128.4 257.3H1102.6V231.4H1128.4V257.3ZM1104.3 255.6H1126.6V233.1H1104.3V255.6Z" fill="#41423F"/>
<path d="M1093.5 302.4H1067.7V276.5H1093.5V302.4ZM1069.4 300.7H1091.7V278.2H1069.4V300.7Z" fill="#41423F"/>
<path d="M1128.4 302.4H1102.6V276.5H1128.4V302.4ZM1104.3 300.7H1126.6V278.2H1104.3V300.7Z" fill="#41423F"/>
<path d="M1093.5 347.5H1067.7V321.6H1093.5V347.5ZM1069.4 345.8H1091.7V323.3H1069.4V345.8Z" fill="#41423F"/>
<path d="M1128.4 347.5H1102.6V321.6H1128.4V347.5ZM1104.3 345.8H1126.6V323.3H1104.3V345.8Z" fill="#41423F"/>
<path d="M1093.5 392.6H1067.7V366.7H1093.5V392.6ZM1069.4 390.9H1091.7V368.4H1069.4V390.9Z" fill="#41423F"/>
<path d="M1128.4 392.6H1102.6V366.7H1128.4V392.6ZM1104.3 390.9H1126.6V368.4H1104.3V390.9Z" fill="#41423F"/>
<path d="M1019.9 189.6H973.8V214.4H1019.9V189.6Z" fill="#F3FFF6"/>
<path d="M1020.8 215.2H973V188.7H1020.8V215.2ZM974.7 213.5H1019.1V190.4H974.7V213.5Z" fill="#41423F"/>
<path d="M1034 207.3H959.8V433.1H1034V207.3Z" fill="#F3FFF6"/>
<path d="M1034.8 434H958.9V206.5H1034.8V434ZM960.6 432.3H1033V208.2H960.6V432.3Z" fill="#41423F"/>
<path d="M979.4 239H977.7V401.5H979.4V239Z" fill="#41423F"/>
<path d="M1016 239H1014.3V401.5H1016V239Z" fill="#41423F"/>
<path d="M997.7 239H996V401.5H997.7V239Z" fill="#41423F"/>
<path d="M807.005 151.531L796.47 177.151L798.875 178.139L809.409 152.52L807.005 151.531Z" fill="#41423F"/>
<path d="M811.2 151.5C810.7 152.8 809.1 153.5 807.8 152.9C806.5 152.3 805.8 150.8 806.4 149.5C806.9 148.2 808.5 147.5 809.8 148.1C811.1 148.7 811.8 150.2 811.2 151.5Z" fill="#F7F9F9"/>
<path d="M808.8 154C808.4 154 807.9 153.9 807.5 153.7C805.7 153 804.9 151 805.6 149.2C806.3 147.4 808.3 146.6 810.1 147.3C811.9 148 812.7 150 812 151.8C811.5 153.2 810.2 154 808.8 154ZM808.8 148.8C808.1 148.8 807.5 149.2 807.2 149.9C806.8 150.8 807.3 151.8 808.1 152.2C809 152.6 810 152.1 810.4 151.3C810.8 150.4 810.3 149.4 809.5 149C809.3 148.8 809 148.8 808.8 148.8Z" fill="#41423F"/>
<path d="M802.4 196.4H781.8V220.7H802.4V196.4Z" fill="#F3FFF6"/>
<path d="M803.2 221.6H780.9V195.6H803.2V221.6ZM782.6 219.9H801.5V197.3H782.6V219.9Z" fill="#41423F"/>
<path d="M786.9 203.7C804.6 211 824.9 202.5 832.1 184.8L768 158.4C760.8 176.2 769.2 196.5 786.9 203.7Z" fill="#F3FFF6"/>
<path d="M800.1 207.2C795.6 207.2 791 206.3 786.6 204.5C768.5 197.1 759.8 176.3 767.3 158.1L767.6 157.3L833.3 184.3L833 185.1C827.3 198.9 814.1 207.2 800.1 207.2ZM787.3 202.9C804.3 209.9 823.7 202 831.1 185.3L768.6 159.6C762 176.7 770.3 196 787.3 202.9Z" fill="#41423F"/>
<path d="M766.2 164.8C765.5 168 765.4 171.2 765.6 174.3L822.9 197.9C825.3 195.8 827.4 193.4 829.2 190.7L766.2 164.8Z" fill="#21CE99"/>
<path d="M823 198.8L764.7 174.8V174.3C764.4 171 764.7 167.7 765.3 164.5L765.5 163.5L830.4 190.2L829.8 191.1C828 193.8 825.8 196.3 823.4 198.5L823 198.8ZM766.4 173.7L822.7 196.9C824.6 195.2 826.4 193.2 827.9 191.1L766.9 166C766.4 168.5 766.2 171.1 766.4 173.7Z" fill="#41423F"/>
<path d="M836 210.2H748.1V425H836V210.2Z" fill="#21CE99"/>
<path d="M836.9 425.8H747.2V209.4H836.9V425.8ZM748.9 424.1H835.1V211.1H748.9V424.1Z" fill="#41423F"/>
<path d="M775.9 232.2H762.3V404.8H775.9V232.2Z" fill="#71E08A"/>
<path d="M798.9 232.2H785.3V404.8H798.9V232.2Z" fill="#71E08A"/>
<path d="M821.8 232.2H808.2V404.8H821.8V232.2Z" fill="#71E08A"/>
<path d="M776.7 405.6H761.4V231.3H776.7V405.6ZM763.2 403.9H775V233H763.2V403.9Z" fill="#41423F"/>
<path d="M799.7 405.6H784.4V231.3H799.7V405.6ZM786.1 403.9H798V233H786.2V403.9H786.1Z" fill="#41423F"/>
<path d="M822.6 405.6H807.3V231.3H822.6V405.6ZM809.1 403.9H820.9V233H809.1V403.9Z" fill="#41423F"/>
<path d="M485.6 170.2H409.9V425.9H485.6V170.2Z" fill="#21CE99"/>
<path d="M486.4 426.8H409V169.4H486.4V426.8ZM410.7 425.1H484.7V171.1H410.7V425.1V425.1Z" fill="#41423F"/>
<path d="M477.4 205.2H418.1V217.3H477.4V205.2Z" fill="#71E08A"/>
<path d="M477.4 240H418.1V252.1H477.4V240Z" fill="#71E08A"/>
<path d="M477.4 274.7H418.1V286.8H477.4V274.7Z" fill="#71E08A"/>
<path d="M477.4 309.4H418.1V321.5H477.4V309.4Z" fill="#71E08A"/>
<path d="M477.4 344.1H418.1V356.2H477.4V344.1Z" fill="#71E08A"/>
<path d="M477.4 378.8H418.1V390.9H477.4V378.8Z" fill="#71E08A"/>
<path d="M478.2 218.2H417.2V204.4H478.2V218.2ZM418.9 216.5H476.5V206.1H418.9V216.5Z" fill="#41423F"/>
<path d="M478.2 252.9H417.2V239.1H478.2V252.9ZM418.9 251.2H476.5V240.8H418.9V251.2Z" fill="#41423F"/>
<path d="M478.2 287.6H417.2V273.8H478.2V287.6ZM418.9 285.9H476.5V275.5H418.9V285.9Z" fill="#41423F"/>
<path d="M478.2 322.4H417.2V308.6H478.2V322.4ZM418.9 320.7H476.5V310.3H418.9V320.7Z" fill="#41423F"/>
<path d="M478.2 357.1H417.2V343.3H478.2V357.1ZM418.9 355.4H476.5V345H418.9V355.4Z" fill="#41423F"/>
<path d="M478.2 391.8H417.2V378H478.2V391.8ZM418.9 390.1H476.5V379.7H418.9V390.1Z" fill="#41423F"/>
<path d="M154.7 427.6H61.1001V154.3L154.7 199.1V427.6Z" fill="#F3FFF6"/>
<path d="M155.6 428.4H60.3V152.9L155.6 198.6V428.4ZM62 426.7H153.9V199.7L62 155.7V426.7Z" fill="#41423F"/>
<path d="M142.2 224.5H72.5V227.1H142.2V224.5Z" fill="#41423F"/>
<path d="M142.2 252.9H72.5V255.5H142.2V252.9Z" fill="#41423F"/>
<path d="M142.2 281.2H72.5V283.8H142.2V281.2Z" fill="#41423F"/>
<path d="M142.2 309.6H72.5V312.2H142.2V309.6Z" fill="#41423F"/>
<path d="M142.2 337.9H72.5V340.5H142.2V337.9Z" fill="#41423F"/>
<path d="M142.2 366.3H72.5V368.9H142.2V366.3Z" fill="#41423F"/>
<path d="M142.2 394.7H72.5V397.3H142.2V394.7Z" fill="#41423F"/>
<path d="M581.7 167.1H531.9V191.3H581.7V167.1Z" fill="#F3FFF6"/>
<path d="M582.6 192.2H531.1V166.3H582.6V192.2ZM532.8 190.5H580.9V168H532.8V190.5Z" fill="#41423F"/>
<path d="M592.9 181.9H520.7V217H592.9V181.9Z" fill="#F3FFF6"/>
<path d="M593.8 217.9H519.9V181H593.8V217.9ZM521.6 216.1H592.1V182.7H521.6V216.1Z" fill="#41423F"/>
<path d="M603.1 199.5H510.6V432.5H603.1V199.5Z" fill="#F3FFF6"/>
<path d="M603.1 199.5H510.6V432.5H603.1V199.5Z" fill="#F3FFF6"/>
<path d="M603.9 433.4H509.7V198.6H603.9V433.4ZM511.4 431.6H602.2V200.3H511.4V431.6Z" fill="#41423F"/>
<path d="M590.5 222.6H523.1V225.2H590.5V222.6Z" fill="#41423F"/>
<path d="M590.5 244.5H523.1V247.1H590.5V244.5Z" fill="#41423F"/>
<path d="M590.5 266.4H523.1V269H590.5V266.4Z" fill="#41423F"/>
<path d="M590.5 288.4H523.1V291H590.5V288.4Z" fill="#41423F"/>
<path d="M590.5 310.3H523.1V312.9H590.5V310.3Z" fill="#41423F"/>
<path d="M590.5 332.3H523.1V334.9H590.5V332.3Z" fill="#41423F"/>
<path d="M590.5 354.2H523.1V356.8H590.5V354.2Z" fill="#41423F"/>
<path d="M590.5 376.1H523.1V378.7H590.5V376.1Z" fill="#41423F"/>
<path d="M590.5 398.1H523.1V400.7H590.5V398.1Z" fill="#41423F"/>
<path d="M58.2999 338.8C58.2999 347.7 51.0999 355 42.0999 355C33.1999 355 25.8999 347.8 25.8999 338.8C25.8999 329.9 33.0999 322.6 42.0999 322.6C51.0999 322.6 58.2999 329.8 58.2999 338.8Z" fill="#0FAB7B"/>
<path d="M64.3999 371.1C64.3999 383.5 54.3999 393.5 41.9999 393.5C29.5999 393.5 19.5999 383.5 19.5999 371.1C19.5999 358.7 29.5999 348.7 41.9999 348.7C54.2999 348.7 64.3999 358.7 64.3999 371.1Z" fill="#0FAB7B"/>
<path d="M42 394.4C29.2 394.4 18.7 384 18.7 371.1C18.7 362.8 23.1 355.2 30.3 351C27 347.8 25.1 343.4 25.1 338.8C25.1 329.4 32.7 321.8 42.1 321.8C51.5 321.8 59.1 329.4 59.1 338.8C59.1 343.5 57.2 347.9 53.8 351.1C60.8 355.3 65.2 362.8 65.2 371.1C65.2 383.9 54.8 394.4 42 394.4ZM42.1 323.4C33.6 323.4 26.8 330.3 26.8 338.7C26.8 343.2 28.8 347.5 32.3 350.4C32.5 350.6 32.6 350.9 32.6 351.1C32.6 351.4 32.4 351.6 32.1 351.8C24.9 355.5 20.4 362.9 20.4 371C20.4 382.9 30.1 392.6 42 392.6C53.9 392.6 63.6 382.9 63.6 371C63.6 363 59.2 355.7 52.1 351.9C51.8 351.8 51.7 351.5 51.6 351.2C51.6 350.9 51.7 350.6 51.9 350.5C55.5 347.6 57.5 343.3 57.5 338.7C57.4 330.3 50.6 323.4 42.1 323.4Z" fill="#41423F"/>
<path d="M42.1 419.8C41.6 419.8 41.2 419.4 41.2 418.9V333.9C41.2 333.4 41.6 333 42.1 333C42.6 333 43 333.4 43 333.9V418.9C43 419.4 42.6 419.8 42.1 419.8Z" fill="#41423F"/>
<path d="M42 345.6C41.8 345.6 41.7 345.6 41.5 345.5L35.3 341.4C34.9 341.1 34.8 340.6 35.1 340.2C35.4 339.8 35.9 339.7 36.3 340L42.5 344.1C42.9 344.4 43 344.9 42.7 345.3C42.5 345.5 42.2 345.6 42 345.6Z" fill="#41423F"/>
<path d="M42.1 376.4C41.8 376.4 41.6 376.3 41.4 376C41.1 375.6 41.2 375.1 41.6 374.8L52.3 367.3C52.7 367 53.2 367.1 53.5 367.5C53.8 367.9 53.7 368.4 53.3 368.7L42.6 376.2C42.5 376.3 42.3 376.4 42.1 376.4Z" fill="#41423F"/>
<path d="M996.9 346.7C996.9 356.4 989 364.3 979.3 364.3C969.6 364.3 961.7 356.4 961.7 346.7C961.7 337 969.6 329.1 979.3 329.1C989 329.1 996.9 337 996.9 346.7Z" fill="#0FAB7B"/>
<path d="M979.1 406.2C992.576 406.2 1003.5 395.276 1003.5 381.8C1003.5 368.324 992.576 357.4 979.1 357.4C965.624 357.4 954.7 368.324 954.7 381.8C954.7 395.276 965.624 406.2 979.1 406.2Z" fill="#0FAB7B"/>
<path d="M979.1 407.1C965.2 407.1 953.9 395.8 953.9 381.9C953.9 372.8 958.7 364.6 966.5 360.1C962.9 356.6 960.8 351.8 960.8 346.8C960.8 336.6 969.1 328.3 979.3 328.3C989.5 328.3 997.8 336.6 997.8 346.8C997.8 351.9 995.7 356.8 992 360.2C999.7 364.7 1004.4 372.9 1004.4 381.9C1004.3 395.7 993 407.1 979.1 407.1ZM979.3 329.9C970.1 329.9 962.5 337.4 962.5 346.7C962.5 351.7 964.7 356.3 968.5 359.5C968.7 359.7 968.8 360 968.8 360.2C968.8 360.5 968.6 360.7 968.3 360.9C960.4 365 955.5 373 955.5 381.8C955.5 394.8 966.1 405.3 979 405.3C992 405.3 1002.5 394.7 1002.5 381.8C1002.5 373.1 997.7 365.1 989.9 361C989.6 360.9 989.5 360.6 989.4 360.3C989.4 360 989.5 359.7 989.7 359.6C993.6 356.4 995.8 351.7 995.8 346.7C996 337.4 988.5 329.9 979.3 329.9Z" fill="#41423F"/>
<path d="M979.3 434.7C978.8 434.7 978.4 434.3 978.4 433.8V341.3C978.4 340.8 978.8 340.4 979.3 340.4C979.8 340.4 980.2 340.8 980.2 341.3V433.8C980.1 434.4 979.7 434.7 979.3 434.7Z" fill="#41423F"/>
<path d="M979.1 354C978.9 354 978.8 354 978.6 353.9L971.8 349.5C971.4 349.2 971.3 348.7 971.6 348.3C971.9 347.9 972.4 347.8 972.8 348.1L979.6 352.5C980 352.8 980.1 353.3 979.8 353.7C979.6 353.9 979.4 354 979.1 354Z" fill="#41423F"/>
<path d="M979.3 387.5C979 387.5 978.8 387.4 978.6 387.1C978.3 386.7 978.4 386.2 978.8 385.9L990.4 377.7C990.8 377.4 991.3 377.5 991.6 377.9C991.9 378.3 991.8 378.8 991.4 379.1L979.8 387.3C979.6 387.5 979.4 387.5 979.3 387.5Z" fill="#41423F"/>
<path d="M1230.9 347C1230.9 356.7 1238.8 364.6 1248.5 364.6C1258.2 364.6 1266.1 356.7 1266.1 347C1266.1 337.3 1258.2 329.4 1248.5 329.4C1238.8 329.4 1230.9 337.3 1230.9 347Z" fill="#0FAB7B"/>
<path d="M1271.27 391.524C1276.4 379.065 1270.46 364.803 1258 359.67C1245.54 354.537 1231.28 360.477 1226.15 372.936C1221.02 385.396 1226.96 399.658 1239.42 404.791C1251.88 409.923 1266.14 403.984 1271.27 391.524Z" fill="#0FAB7B"/>
<path d="M1248.7 407.4C1234.8 407.4 1223.5 396.1 1223.5 382.2C1223.5 373.2 1228.2 365 1235.9 360.5C1232.2 357 1230.1 352.2 1230.1 347.1C1230.1 336.9 1238.4 328.6 1248.6 328.6C1258.8 328.6 1267.1 336.9 1267.1 347.1C1267.1 352.2 1265 356.9 1261.4 360.4C1269.2 364.9 1274 373.2 1274 382.2C1273.9 396.1 1262.6 407.4 1248.7 407.4ZM1248.5 330.3C1239.3 330.3 1231.7 337.8 1231.7 347.1C1231.7 352.1 1233.9 356.8 1237.8 360C1238 360.2 1238.1 360.5 1238.1 360.7C1238.1 361 1237.9 361.2 1237.6 361.4C1229.9 365.5 1225 373.5 1225 382.2C1225 395.2 1235.6 405.7 1248.5 405.7C1261.5 405.7 1272 395.1 1272 382.2C1272 373.4 1267.1 365.3 1259.2 361.3C1258.9 361.2 1258.8 360.9 1258.7 360.6C1258.7 360.3 1258.8 360 1259 359.9C1262.8 356.7 1265 352 1265 347.1C1265.3 337.8 1257.8 330.3 1248.5 330.3Z" fill="#41423F"/>
<path d="M1248.5 435.1C1248 435.1 1247.6 434.7 1247.6 434.2V341.7C1247.6 341.2 1248 340.8 1248.5 340.8C1249 340.8 1249.4 341.2 1249.4 341.7V434.2C1249.4 434.7 1249 435.1 1248.5 435.1Z" fill="#41423F"/>
<path d="M1248.7 354.4C1248.4 354.4 1248.1 354.3 1248 354C1247.7 353.6 1247.9 353.1 1248.2 352.8L1255 348.4C1255.4 348.1 1255.9 348.3 1256.2 348.6C1256.5 349 1256.3 349.5 1256 349.8L1249.2 354.2C1249 354.4 1248.8 354.4 1248.7 354.4Z" fill="#41423F"/>
<path d="M1248.5 387.9C1248.3 387.9 1248.2 387.8 1248 387.7L1236.4 379.5C1236 379.2 1235.9 378.7 1236.2 378.3C1236.5 377.9 1237 377.8 1237.4 378.1L1249 386.3C1249.4 386.6 1249.5 387.1 1249.2 387.5C1249 387.8 1248.8 387.9 1248.5 387.9Z" fill="#41423F"/>
<path d="M1031.6 236.6C1030.5 233.1 1030.1 229.9 1030 227.2V222.6C1030 220.5 1028.3 218.7 1026.1 218.7H1019.3V229.7H1022.2C1022.2 234.5 1023 242.6 1028.1 250.7C1032.4 257.7 1037.9 261.6 1041.1 263.6L1046.4 256.2C1042.8 253.7 1035 247.5 1031.6 236.6Z" fill="#F3FFF6"/>
<path d="M1041.3 264.8L1040.6 264.4C1035.2 261.1 1030.6 256.5 1027.3 251.2C1022.6 243.6 1021.4 235.9 1021.3 230.6H1018.4V217.9H1026.1C1028.7 217.9 1030.8 220 1030.8 222.6V227.2C1030.9 230.3 1031.5 233.4 1032.4 236.4C1035.4 246 1041.9 252.1 1046.8 255.6L1047.5 256.1L1041.3 264.8ZM1020.2 228.9H1023.1V229.8C1023.1 234.9 1024.1 242.7 1028.8 250.4C1031.8 255.3 1036 259.5 1040.8 262.6L1045.1 256.6C1040.1 252.9 1033.8 246.6 1030.8 237C1029.8 233.9 1029.3 230.7 1029.1 227.4V222.7C1029.1 221 1027.8 219.7 1026.1 219.7H1020.1V228.9H1020.2Z" fill="#41423F"/>
<path d="M1033.4 205.6H1018.2V210.4H1022.1V234.6C1022.1 236.7 1023.8 238.3 1025.8 238.3C1027.8 238.3 1029.5 236.6 1029.5 234.6V210.4H1033.4V205.6V205.6Z" fill="#71E08A"/>
<path d="M1025.8 239.1C1023.3 239.1 1021.2 237 1021.2 234.5V211.2H1017.3V204.7H1034.2V211.2H1030.3V234.5C1030.4 237.1 1028.3 239.1 1025.8 239.1ZM1019 209.5H1022.9V234.5C1022.9 236.1 1024.2 237.4 1025.8 237.4C1027.4 237.4 1028.7 236.1 1028.7 234.5V209.5H1032.6V206.4H1019V209.5Z" fill="#41423F"/>
<path d="M1033.6 195.2C1033.6 194.9 1033.6 194.7 1033.5 194.5C1033 189.5 1029.3 179.7 1029.3 179.7C1029.3 179.7 1027.7 181.3 1025.8 183.5C1023.8 181.3 1022.3 179.7 1022.3 179.7C1022.3 179.7 1018.6 189.5 1018.1 194.5C1018.1 194.7 1018 195 1018 195.2C1018 195.2 1018 195.2 1018 195.3C1018 195.4 1018 195.4 1018 195.5C1018 195.9 1018 196.3 1018.1 196.6C1018.8 199.6 1021.7 201.7 1025.2 201.9C1025.3 201.9 1025.3 201.9 1025.4 201.9C1025.6 201.9 1025.7 201.9 1025.9 201.9C1026.1 201.9 1026.2 201.9 1026.4 201.9C1026.5 201.9 1026.5 201.9 1026.6 201.9C1030 201.7 1033 199.5 1033.7 196.6C1033.8 196.3 1033.8 195.9 1033.8 195.5C1033.6 195.3 1033.6 195.3 1033.6 195.2Z" fill="#21CE99"/>
<path d="M1025.7 202.6C1025.5 202.6 1025.4 202.6 1025.2 202.6H1025C1021.1 202.3 1017.9 199.9 1017.2 196.6C1017.1 196.3 1017.1 195.8 1017.1 195.3V195.2L1018 195.1H1017.1C1017.1 194.8 1017.1 194.6 1017.2 194.3C1017.7 189.3 1021.3 179.7 1021.5 179.3L1022 178L1022.9 179C1022.9 179 1024.2 180.3 1025.8 182.1C1027.5 180.3 1028.7 179 1028.7 179L1029.6 178L1030.1 179.3C1030.3 179.7 1033.9 189.3 1034.4 194.3C1034.4 194.5 1034.5 194.8 1034.5 195.1V195.2H1033.6H1034.5V195.3C1034.5 195.8 1034.5 196.2 1034.4 196.5C1033.7 199.7 1030.4 202.2 1026.6 202.5H1026.5C1026.1 202.6 1026 202.6 1025.7 202.6C1025.7 202.6 1025.8 202.6 1025.7 202.6ZM1025.8 200.9C1026 200.9 1026.1 200.9 1026.3 200.9H1026.5C1029.6 200.7 1032.2 198.8 1032.8 196.2C1032.8 196 1032.9 195.7 1032.9 195.3V195.1C1032.9 194.9 1032.9 194.7 1032.9 194.5C1032.5 190.7 1030.2 184 1029.2 181.2C1028.6 181.9 1027.6 182.9 1026.6 184L1026 184.7L1025.4 184C1024.4 182.9 1023.5 181.9 1022.8 181.2C1021.8 184 1019.5 190.7 1019.1 194.5C1019.1 194.7 1019.1 194.9 1019.1 195.1V195.3C1019.1 195.7 1019.1 196 1019.2 196.2C1019.8 198.7 1022.4 200.6 1025.5 200.8H1025.6C1025.5 200.9 1025.6 200.9 1025.8 200.9Z" fill="#41423F"/>
<path d="M1023.6 188.4L1022.8 188.1C1024.3 183.8 1025.6 183.1 1025.7 183L1026.1 183.7L1025.9 183.3L1026.1 183.7C1026.1 183.7 1025.1 184.5 1023.6 188.4Z" fill="#41423F"/>
<path d="M1020.1 231.8H1019V218.8H1020.1C1023.2 218.8 1025.7 221.3 1025.7 224.4V226.3C1025.7 229.3 1023.2 231.8 1020.1 231.8Z" fill="#F3FFF6"/>
<path d="M1020.1 232.6H1018.1V217.9H1020.1C1023.7 217.9 1026.5 220.8 1026.5 224.3V226.2C1026.6 229.7 1023.7 232.6 1020.1 232.6ZM1019.8 230.9H1020.1C1022.7 230.9 1024.8 228.8 1024.8 226.2V224.3C1024.8 221.7 1022.7 219.6 1020.1 219.6H1019.8V230.9Z" fill="#41423F"/>
<path d="M1091.3 236.5H1061.1V274.7H1091.3V236.5Z" fill="#21CE99"/>
<path d="M1092.2 275.6H1060.3V235.7H1092.2V275.6ZM1061.9 273.9H1090.4V237.4H1061.9V273.9Z" fill="#41423F"/>
<path d="M1082.5 267.7H1070L1073.2 254.7H1079.2L1082.5 267.7Z" fill="#F3FFF6"/>
<path d="M1083.6 268.6H1068.9L1072.6 253.8H1079.9L1083.6 268.6ZM1071 266.9H1081.3L1078.5 255.5H1073.8L1071 266.9Z" fill="#41423F"/>
<path d="M1107.3 395.6L1101.5 278.1C1101 269.9 1094.2 263.6 1085.9 263.6H1066.3C1063.7 263.6 1061.2 264.2 1059.1 265.4L1043.9 252.7L1037.1 265.7C1037.1 265.7 1042 276.1 1050.5 282.4L1045 395.5H1107.3V395.6Z" fill="#F3FFF6"/>
<path d="M1107.3 395.6L1101.5 278.1C1101 269.9 1094.2 263.6 1085.9 263.6H1066.3C1063.7 263.6 1061.2 264.2 1059.1 265.4L1043.9 252.7L1037.1 265.7C1037.1 265.7 1042 276.1 1050.5 282.4L1045 395.5H1107.3V395.6Z" fill="#21CE99"/>
<path d="M1108.2 396.5H1044.2L1049.7 282.9C1041.3 276.5 1036.6 266.5 1036.4 266.1L1036.2 265.7L1043.7 251.4L1059.3 264.4C1061.5 263.3 1064 262.8 1066.4 262.8H1086C1094.6 262.8 1101.8 269.5 1102.4 278.1L1108.2 396.5ZM1046 394.8H1106.5L1100.8 278.2C1100.3 270.5 1093.8 264.5 1086.1 264.5H1066.5C1064.1 264.5 1061.7 265.1 1059.6 266.2L1059.1 266.5L1044.2 254.1L1038.1 265.8C1039.1 267.7 1043.8 276.4 1051.1 281.9L1051.5 282.2V282.7L1046 394.8Z" fill="#41423F"/>
<path d="M1127.24 284.669L1102.72 272.443L1085.09 307.792L1109.61 320.017L1127.24 284.669Z" fill="#71E08A"/>
<path d="M1110.1 321.2L1084 308.2L1102.4 271.3L1128.5 284.3L1110.1 321.2ZM1086.3 307.5L1109.3 319L1126.2 285.2L1103.2 273.7L1086.3 307.5Z" fill="#41423F"/>
<path d="M1119.5 302.9L1120.5 303.4L1114.7 315.1L1113.7 314.6C1110.9 313.2 1109.8 309.9 1111.2 307.1L1112 305.4C1113.4 302.6 1116.7 301.5 1119.5 302.9Z" fill="#F3FFF6"/>
<path d="M1115.1 316.2L1113.3 315.3C1110.1 313.7 1108.8 309.8 1110.4 306.7L1111.2 305C1112.8 301.8 1116.7 300.5 1119.8 302.1L1121.6 303L1115.1 316.2ZM1117 303.1C1116.5 303.1 1116 303.2 1115.5 303.3C1114.3 303.7 1113.3 304.5 1112.8 305.7L1112 307.4C1110.8 309.7 1111.8 312.6 1114.1 313.8L1114.3 313.9L1119.4 303.8L1119.2 303.7C1118.4 303.3 1117.7 303.1 1117 303.1Z" fill="#41423F"/>
<path d="M1088.9 262.5C1088.9 262.5 1072.9 293.7 1046.3 305.7V332.1C1046.3 332.1 1094.6 299 1094.4 262.5H1088.9Z" fill="#F3FFF6"/>
<path d="M1045.5 333.8V305.2L1046 305C1072.1 293.2 1088.1 262.5 1088.2 262.2L1088.4 261.7H1095.3V262.6C1095.5 299.1 1047.3 332.6 1046.8 332.9L1045.5 333.8ZM1047.2 306.3V330.5C1054.9 324.9 1093.1 295.3 1093.6 263.4H1089.5C1087.3 267.3 1071.7 294.9 1047.2 306.3Z" fill="#41423F"/>
<path d="M1046.7 320.1L1046 318.5C1080.1 303.2 1090.9 262.6 1091 262.2L1092.7 262.6C1092.5 263.2 1081.5 304.5 1046.7 320.1Z" fill="#41423F"/>
<path d="M1129.3 390H1023.3V412.5H1129.3V390Z" fill="#F3FFF6"/>
<path d="M1130.1 413.3H1022.4V389.1H1130.1V413.3ZM1024.1 411.6H1128.4V390.8H1024.1V411.6Z" fill="#41423F"/>
<path d="M1147.1 403.3H1004.7V425.8H1147.1V403.3Z" fill="#F3FFF6"/>
<path d="M1148 426.7H1003.9V402.5H1148V426.7ZM1005.6 425H1146.3V404.2H1005.6V425Z" fill="#41423F"/>
<path d="M1094.1 237.1C1094.1 236.7 1094.1 236.3 1094 235.9L1115 230.3L1091.3 228.1C1091.2 227.9 1091.1 227.8 1090.9 227.6C1090.7 227.4 1090.6 227.2 1090.4 226.9C1090.2 226.7 1090.1 226.5 1089.9 226.3C1089.7 226.1 1089.6 225.9 1089.4 225.7L1099.9 208.9L1083.5 221.6C1083.4 221.6 1083.3 221.5 1083.2 221.5C1083.1 221.5 1083 221.4 1082.9 221.4C1082.7 221.3 1082.6 221.3 1082.4 221.2C1082.3 221.2 1082.2 221.1 1082 221.1C1081.8 221 1081.7 221 1081.5 220.9C1081.4 220.9 1081.2 220.8 1081.1 220.8C1080.9 220.8 1080.8 220.7 1080.6 220.7L1076.2 196L1071.8 220.7C1071.6 220.7 1071.5 220.8 1071.3 220.8C1071.2 220.8 1071 220.9 1070.9 220.9C1070.7 220.9 1070.6 221 1070.4 221.1C1070.3 221.1 1070.2 221.2 1070 221.2C1069.8 221.3 1069.7 221.3 1069.5 221.4C1069.4 221.4 1069.3 221.5 1069.2 221.5C1069.1 221.5 1069 221.6 1068.9 221.6L1052.5 208.9L1063 225.7C1062.8 225.9 1062.7 226.1 1062.5 226.2C1062.3 226.4 1062.2 226.6 1062 226.8C1061.8 227 1061.7 227.2 1061.5 227.4C1061.4 227.6 1061.3 227.8 1061.1 227.9L1037.4 230.1L1058.4 235.7C1058.4 236.2 1058.3 236.7 1058.3 237.2C1058.3 237.6 1058.3 238 1058.3 238.4L1076.1 246.4L1093.9 238.4C1093.9 238 1093.9 237.6 1093.9 237.2C1094.1 237.3 1094.1 237.2 1094.1 237.1Z" fill="#71E08A"/>
<path d="M1076.2 247.6L1057.6 239.2V238.7C1057.6 238.3 1057.5 237.9 1057.5 237.4C1057.5 237.1 1057.5 236.8 1057.5 236.5L1032.6 229.9L1060.7 227.2C1060.8 227.1 1060.8 227.1 1060.9 227C1061.1 226.8 1061.2 226.5 1061.4 226.3C1061.6 226.1 1061.8 225.8 1062 225.6L1062.1 225.5L1049.4 205.2L1069.2 220.5L1069.5 220.4C1069.6 220.3 1069.8 220.3 1069.9 220.2L1070.4 220C1070.5 220 1070.7 219.9 1070.8 219.9L1071.1 219.8L1076.3 190.9L1081.5 219.8H1081.6C1081.7 219.8 1081.8 219.9 1081.9 219.9C1082 219.9 1082.1 220 1082.3 220L1082.8 220.2C1083 220.3 1083.1 220.3 1083.3 220.4L1083.4 220.5H1083.5L1103.3 205.2L1090.6 225.5L1090.7 225.6C1090.9 225.9 1091.1 226.1 1091.3 226.3C1091.5 226.5 1091.7 226.8 1091.8 227C1091.8 227.1 1091.9 227.1 1091.9 227.2L1120 229.9L1095.1 236.5C1095.1 236.7 1095.1 236.8 1095.1 237V237.1C1095.1 237.2 1095.1 237.3 1095.1 237.3C1095.1 237.7 1095.1 238.1 1095 238.6V239.1L1076.2 247.6ZM1059.2 238.1L1076.2 245.8L1093.2 238.1C1093.2 237.9 1093.2 237.7 1093.2 237.5V237.2C1093.2 236.8 1093.2 236.4 1093.1 236.1L1093 235.4L1110.1 230.9L1090.7 229.1L1090.5 228.8C1090.4 228.6 1090.3 228.5 1090.2 228.3V228.2C1090 228 1089.9 227.8 1089.8 227.6C1089.6 227.4 1089.5 227.2 1089.3 227C1089.1 226.8 1088.9 226.6 1088.8 226.4L1088.3 225.9L1096.6 212.6L1083.6 222.7L1082.5 222.3C1082.3 222.2 1082.2 222.2 1082 222.1L1081.5 221.9C1081.4 221.9 1081.3 221.8 1081.2 221.8L1080.7 221.7C1080.6 221.7 1080.5 221.6 1080.4 221.6L1079.9 221.5L1076.2 200.9L1072.5 221.5L1072 221.6C1071.9 221.6 1071.8 221.7 1071.7 221.7L1071.2 221.8C1071.1 221.8 1071 221.9 1070.9 221.9L1070.5 222C1070.4 222 1070.3 222.1 1070.1 222.1L1069.7 222.3C1069.6 222.3 1069.5 222.4 1069.4 222.4L1068.9 222.6L1055.9 212.5L1064.2 225.8L1063.7 226.3C1063.5 226.5 1063.4 226.6 1063.2 226.8C1063 227 1062.8 227.2 1062.7 227.4C1062.5 227.6 1062.4 227.8 1062.2 228C1062.1 228.2 1062 228.4 1061.8 228.5L1061.6 228.8L1042.2 230.6L1059.3 235.1L1059.2 235.8C1059.2 236.3 1059.1 236.8 1059.1 237.2C1059.2 237.6 1059.2 237.8 1059.2 238.1Z" fill="#41423F"/>
<path d="M1091.3 241.5C1091.3 251.3 1084.5 259.3 1076.2 259.3C1067.9 259.3 1061.1 251.3 1061.1 241.5C1061.1 231.7 1067.9 223.7 1076.2 223.7C1084.5 223.7 1091.3 231.7 1091.3 241.5Z" fill="#F3FFF6"/>
<path d="M1076.2 260.2C1067.4 260.2 1060.2 251.8 1060.2 241.6C1060.2 231.4 1067.4 223 1076.2 223C1085 223 1092.2 231.4 1092.2 241.6C1092.2 251.8 1085 260.2 1076.2 260.2ZM1076.2 224.6C1068.3 224.6 1061.9 232.2 1061.9 241.5C1061.9 250.8 1068.3 258.4 1076.2 258.4C1084.1 258.4 1090.5 250.8 1090.5 241.5C1090.5 232.2 1084.1 224.6 1076.2 224.6Z" fill="#41423F"/>
<path d="M1076.2 223.8C1068 223.8 1061.3 231.6 1061.1 241.2C1073.6 238 1076.2 229.7 1076.2 229.7C1077.9 237.4 1087.3 240.3 1091.3 241.2C1091.2 231.5 1084.5 223.8 1076.2 223.8Z" fill="#21CE99"/>
<path d="M1060.2 242.3V241.2C1060.4 231.1 1067.5 222.9 1076.2 222.9C1084.8 222.9 1092 231.1 1092.2 241.2V242.3L1091.1 242.1C1087.3 241.3 1078.8 238.7 1076 232.1C1074.4 234.9 1070.3 239.7 1061.3 242.1L1060.2 242.3ZM1076.4 226.4L1077.1 229.5C1078.5 236.1 1086.2 239 1090.5 240.1C1089.9 231.5 1083.7 224.6 1076.3 224.6C1068.9 224.6 1062.7 231.4 1062.1 240C1073 236.7 1075.5 229.5 1075.5 229.4L1076.4 226.4Z" fill="#41423F"/>
<path d="M556.9 235.2H547.4V259.4H556.9V235.2Z" fill="#F3FFF6"/>
<path d="M671.3 235.2H661.8V259.4H671.3V235.2Z" fill="#F3FFF6"/>
<path d="M557.7 260.2H546.5V234.3H557.7V260.2ZM548.2 258.5H556V236H548.2V258.5Z" fill="#41423F"/>
<path d="M672.1 260.2H660.9V234.3H672.1V260.2ZM662.6 258.5H670.4V236H662.6V258.5Z" fill="#41423F"/>
<path d="M677.7 246.7H655.3V413.3H677.7V246.7Z" fill="#F3FFF6"/>
<path d="M677.7 246.7H655.3V413.3H677.7V246.7Z" fill="#21CE99"/>
<path d="M678.6 414.1H654.5V245.8H678.6V414.1ZM656.2 412.4H676.9V247.5H656.2V412.4Z" fill="#41423F"/>
<path d="M667.4 246.7H665.7V413.3H667.4V246.7Z" fill="#41423F"/>
<path d="M522.6 401.8L522 399.3C573.3 386.3 609.6 353.5 630.9 328.2C654.1 300.8 665.2 276.2 665.3 275.9L667.6 276.9C667.5 277.1 656.2 302.1 632.9 329.7C611.3 355.4 574.7 388.6 522.6 401.8Z" fill="#41423F"/>
<path d="M810.4 401.8C758.4 388.6 721.7 355.4 700.1 329.9C676.7 302.2 665.5 277.3 665.4 277.1L667.7 276.1C667.8 276.3 678.9 301 702.1 328.4C723.4 353.6 759.7 386.4 811 399.5L810.4 401.8Z" fill="#41423F"/>
<path d="M522.5 401.8L522.1 399.3C573.5 391.1 609.7 370.5 631.1 354.6C654.2 337.4 665.4 322 665.5 321.8L667.6 323.3C667.5 323.5 656.2 339.2 632.8 356.6C611.1 372.7 574.5 393.5 522.5 401.8Z" fill="#41423F"/>
<path d="M810.5 401.8C758.5 393.5 721.9 372.6 700.3 356.6C676.9 339.2 665.6 323.5 665.5 323.3L667.6 321.8C667.7 322 678.8 337.4 702 354.6C723.3 370.5 759.6 391.1 811 399.3L810.5 401.8Z" fill="#41423F"/>
<path d="M522.4 401.8L522.2 399.2C620.9 392.8 665.4 367.7 665.8 367.4L667.1 369.6C666.7 370 621.7 395.4 522.4 401.8Z" fill="#41423F"/>
<path d="M810.6 401.8C711.4 395.3 666.3 370 665.9 369.7L667.2 367.5C667.6 367.8 712.3 392.8 810.8 399.3L810.6 401.8Z" fill="#41423F"/>
<path d="M563.3 246.7H540.9V413.3H563.3V246.7Z" fill="#F3FFF6"/>
<path d="M563.3 246.7H540.9V413.3H563.3V246.7Z" fill="#21CE99"/>
<path d="M564.2 414.1H540V245.8H564.1V414.1H564.2ZM541.8 412.4H562.5V247.5H541.8V412.4Z" fill="#41423F"/>
<path d="M552.9 246.7H551.2V413.3H552.9V246.7Z" fill="#41423F"/>
<path d="M831.2 400.6H387.4V426H831.2V400.6Z" fill="#F3FFF6"/>
<path d="M832.1 426.8H386.5V399.7H832V426.8H832.1ZM388.3 425.1H830.4V401.4H388.3V425.1Z" fill="#41423F"/>
<path d="M408.2 401.8L407.6 399.3C458.9 386.3 495.2 353.5 516.5 328.2C539.7 300.8 550.8 276.2 550.9 275.9L553.2 276.9C553.1 277.1 541.8 302.1 518.5 329.7C496.9 355.4 460.3 388.6 408.2 401.8Z" fill="#41423F"/>
<path d="M696 401.8C644 388.6 607.3 355.4 585.7 329.9C562.3 302.2 551.1 277.3 551 277.1L553.3 276.1C553.4 276.3 564.5 301 587.7 328.4C609 353.6 645.3 386.4 696.6 399.5L696 401.8Z" fill="#41423F"/>
<path d="M408.1 401.8L407.7 399.3C459.1 391.1 495.3 370.5 516.7 354.6C539.8 337.4 551 322 551.1 321.8L553.2 323.3C553.1 323.5 541.8 339.2 518.4 356.6C496.7 372.7 460.1 393.5 408.1 401.8Z" fill="#41423F"/>
<path d="M696.1 401.8C644.1 393.5 607.5 372.6 585.9 356.6C562.5 339.2 551.2 323.5 551.1 323.3L553.2 321.8C553.3 322 564.4 337.4 587.6 354.6C608.9 370.5 645.2 391.1 696.6 399.3L696.1 401.8Z" fill="#41423F"/>
<path d="M408 401.8L407.8 399.2C506.5 392.8 551 367.7 551.4 367.4L552.7 369.6C552.3 370 507.2 395.4 408 401.8Z" fill="#41423F"/>
<path d="M696.2 401.8C597 395.3 551.9 370 551.5 369.7L552.8 367.5C553.2 367.8 597.9 392.8 696.4 399.3L696.2 401.8Z" fill="#41423F"/>
<path d="M946.9 442.7H855.8V201.6L946.9 163.8V442.7Z" fill="#21CE99"/>
<path d="M947.8 443.5H855V201.1L947.8 162.6V443.5ZM856.6 441.8H946V165.1L856.6 202.2V441.8Z" fill="#41423F"/>
<path d="M935.6 179.7L867.1 208.1V231L935.6 202.6V179.7Z" fill="#71E08A"/>
<path d="M867.1 351.6L935.6 323.1V300.4L867.1 328.9V351.6Z" fill="#71E08A"/>
<path d="M867.1 432.5H935.6V390.8L867.1 419.3V432.5Z" fill="#71E08A"/>
<path d="M867.1 321.4L935.6 293V270.3L867.1 298.7V321.4Z" fill="#71E08A"/>
<path d="M867.1 381.7L935.6 353.2V330.6L867.1 359V381.7Z" fill="#71E08A"/>
<path d="M867.1 411.8L935.6 383.4V360.7L867.1 389.1V411.8Z" fill="#71E08A"/>
<path d="M867.1 268.6V291.3L935.6 262.9V240.2L867.1 268.6Z" fill="#71E08A"/>
<path d="M935.6 210L867.1 238.5V261.2L935.6 232.7V210Z" fill="#71E08A"/>
<path d="M866.2 232.3V207.5L936.4 178.4V203.2L866.2 232.3ZM867.9 208.7V229.8L934.7 202.1V181L867.9 208.7Z" fill="#41423F"/>
<path d="M866.2 352.8V328.3L936.4 299.2V323.7L866.2 352.8ZM867.9 329.4V350.2L934.7 322.5V301.7L867.9 329.4Z" fill="#41423F"/>
<path d="M936.5 433.4H866.3V418.7L936.5 389.6V433.4ZM867.9 431.7H934.7V392.1L867.9 419.8V431.7Z" fill="#41423F"/>
<path d="M866.2 322.7V298.2L936.4 269.1V293.6L866.2 322.7ZM867.9 299.3V320.1L934.7 292.4V271.6L867.9 299.3Z" fill="#41423F"/>
<path d="M866.2 383V358.5L936.4 329.4V353.9L866.2 383ZM867.9 359.6V380.4L934.7 352.7V331.9L867.9 359.6Z" fill="#41423F"/>
<path d="M866.2 413.1V388.6L936.4 359.5V384L866.2 413.1ZM867.9 389.7V410.5L934.7 382.8V362L867.9 389.7Z" fill="#41423F"/>
<path d="M866.2 292.6V268L936.4 238.9V263.4L866.2 292.6ZM867.9 269.2V290L934.7 262.3V241.5L867.9 269.2Z" fill="#41423F"/>
<path d="M866.2 262.4V237.9L936.4 208.8V233.3L866.2 262.4ZM867.9 239V259.8L934.7 232.1V211.3L867.9 239Z" fill="#41423F"/>
<path d="M313.9 66.6001H312.2V168.8H313.9V66.6001Z" fill="#41423F"/>
<path d="M320.8 105.6H305.4V183.1H320.8V105.6Z" fill="#21CE99"/>
<path d="M321.6 184H304.5V104.8H321.6V184ZM306.2 182.3H319.9V106.5H306.2V182.3Z" fill="#41423F"/>
<path d="M332.8 147.9H293.2V205.1H332.8V147.9Z" fill="#21CE99"/>
<path d="M333.7 206H292.3V147.1H333.7V206ZM294.1 204.3H332V148.8H294.1V204.3Z" fill="#41423F"/>
<path d="M349.4 163.8H276.8V221H349.4V163.8Z" fill="#F3FFF6"/>
<path d="M350.2 221.9H275.9V163H350.2V221.9ZM277.6 220.2H348.5V164.7H277.6V220.2Z" fill="#41423F"/>
<path d="M366.5 197.4H259.5V425.2H366.5V197.4Z" fill="#F3FFF6"/>
<path d="M367.4 426.1H258.7V196.6H367.4V426.1ZM260.4 424.4H365.7V198.3H260.4V424.4Z" fill="#41423F"/>
<path d="M332.8 183.1H293.2V398.8H332.8V183.1Z" fill="#21CE99"/>
<path d="M333.7 399.6H292.3V182.3H333.7V399.6ZM294.1 397.9H332V184H294.1V397.9Z" fill="#41423F"/>
<path d="M285.7 216.7H268V225.2H285.7V216.7Z" fill="#71E08A"/>
<path d="M358.1 216.7H340.4V225.2H358.1V216.7Z" fill="#71E08A"/>
<path d="M285.7 251.4H268V259.9H285.7V251.4Z" fill="#71E08A"/>
<path d="M358.1 251.4H340.4V259.9H358.1V251.4Z" fill="#71E08A"/>
<path d="M285.7 286.1H268V294.6H285.7V286.1Z" fill="#71E08A"/>
<path d="M358.1 286.1H340.4V294.6H358.1V286.1Z" fill="#71E08A"/>
<path d="M285.7 320.8H268V329.3H285.7V320.8Z" fill="#71E08A"/>
<path d="M358.1 320.8H340.4V329.3H358.1V320.8Z" fill="#71E08A"/>
<path d="M285.7 355.5H268V364H285.7V355.5Z" fill="#71E08A"/>
<path d="M358.1 355.5H340.4V364H358.1V355.5Z" fill="#71E08A"/>
<path d="M285.7 390.2H268V398.7H285.7V390.2Z" fill="#71E08A"/>
<path d="M358.1 390.2H340.4V398.7H358.1V390.2Z" fill="#71E08A"/>
<path d="M286.5 226.1H267.1V215.8H286.5V226.1ZM268.9 224.4H284.9V217.6H268.9V224.4Z" fill="#41423F"/>
<path d="M358.9 226.1H339.5V215.8H358.9V226.1ZM341.3 224.4H357.3V217.6H341.3V224.4Z" fill="#41423F"/>
<path d="M286.5 260.8H267.1V250.5H286.5V260.8ZM268.9 259.1H284.9V252.3H268.9V259.1Z" fill="#41423F"/>
<path d="M358.9 260.8H339.5V250.5H358.9V260.8ZM341.3 259.1H357.3V252.3H341.3V259.1Z" fill="#41423F"/>
<path d="M286.5 295.5H267.1V285.2H286.5V295.5ZM268.9 293.8H284.9V287H268.9V293.8Z" fill="#41423F"/>
<path d="M358.9 295.5H339.5V285.2H358.9V295.5ZM341.3 293.8H357.3V287H341.3V293.8Z" fill="#41423F"/>
<path d="M286.5 330.2H267.1V320H286.5V330.2ZM268.9 328.5H284.9V321.7H268.9V328.5Z" fill="#41423F"/>
<path d="M358.9 330.2H339.5V320H358.9V330.2ZM341.3 328.5H357.3V321.7H341.3V328.5Z" fill="#41423F"/>
<path d="M286.5 364.9H267.1V354.6H286.5V364.9ZM268.9 363.2H284.9V356.4H268.9V363.2Z" fill="#41423F"/>
<path d="M358.9 364.9H339.5V354.6H358.9V364.9ZM341.3 363.2H357.3V356.4H341.3V363.2Z" fill="#41423F"/>
<path d="M286.5 399.6H267.1V389.3H286.5V399.6ZM268.9 397.9H284.9V391.1H268.9V397.9Z" fill="#41423F"/>
<path d="M358.9 399.6H339.5V389.3H358.9V399.6ZM341.3 397.9H357.3V391.1H341.3V397.9Z" fill="#41423F"/>
<path d="M305.4 379.7C304.9 379.7 304.5 379.3 304.5 378.8V205.1C304.5 204.6 304.9 204.2 305.4 204.2C305.9 204.2 306.3 204.6 306.3 205.1V378.8C306.2 379.3 305.8 379.7 305.4 379.7Z" fill="white"/>
<path d="M320.7 379.7C320.2 379.7 319.8 379.3 319.8 378.8V205.1C319.8 204.6 320.2 204.2 320.7 204.2C321.2 204.2 321.6 204.6 321.6 205.1V378.8C321.6 379.3 321.2 379.7 320.7 379.7Z" fill="white"/>
<path d="M75.6 404.9C63.9 404.9 54.5 414.3 54.5 426H96.7C96.7 414.3 87.2 404.9 75.6 404.9Z" fill="#0FAB7B"/>
<path d="M96.7001 426.8H54.5001C54.0001 426.8 53.6001 426.4 53.6001 425.9C53.6001 413.8 63.4001 403.9 75.6001 403.9C87.7001 403.9 97.6001 413.7 97.6001 425.9C97.5001 426.4 97.1001 426.8 96.7001 426.8ZM55.3001 425.1H95.8001C95.4001 414.3 86.5001 405.7 75.6001 405.7C64.7001 405.7 55.8001 414.3 55.3001 425.1Z" fill="#41423F"/>
<path d="M1187.5 404C1199.2 404 1208.6 413.4 1208.6 425.1H1166.4C1166.4 413.5 1175.8 404 1187.5 404Z" fill="#0FAB7B"/>
<path d="M1208.6 426H1166.4C1165.9 426 1165.5 425.6 1165.5 425.1C1165.5 413 1175.3 403.1 1187.5 403.1C1199.6 403.1 1209.5 412.9 1209.5 425.1C1209.4 425.6 1209 426 1208.6 426ZM1167.2 424.3H1207.7C1207.3 413.5 1198.3 404.9 1187.5 404.9C1176.6 404.9 1167.7 413.5 1167.2 424.3Z" fill="#41423F"/>
<path d="M1159.1 404C1170.8 404 1180.2 413.4 1180.2 425.1H1138C1138 413.5 1147.4 404 1159.1 404Z" fill="#0FAB7B"/>
<path d="M1180.2 426H1138C1137.5 426 1137.1 425.6 1137.1 425.1C1137.1 413 1146.9 403.1 1159.1 403.1C1171.2 403.1 1181.1 412.9 1181.1 425.1C1181 425.6 1180.7 426 1180.2 426ZM1138.9 424.3H1179.4C1179 413.5 1170.1 404.9 1159.2 404.9C1148.2 404.9 1139.3 413.5 1138.9 424.3Z" fill="#41423F"/>
<path d="M41.9999 404.9C30.2999 404.9 20.8999 414.3 20.8999 426H63.0999C63.0999 414.3 53.5999 404.9 41.9999 404.9Z" fill="#0FAB7B"/>
<path d="M63.1 426.8H20.9C20.4 426.8 20 426.4 20 425.9C20 413.8 29.8 403.9 42 403.9C54.1 403.9 64 413.7 64 425.9C63.9 426.4 63.5 426.8 63.1 426.8ZM21.7 425.1H62.2C61.8 414.3 52.9 405.7 42 405.7C31.1 405.7 22.2 414.3 21.7 425.1Z" fill="#41423F"/>
<path d="M164.6 279.6L91 348.5H238.2L164.6 279.6Z" fill="#21CE99"/>
<path d="M240.4 349.4H88.8L164.6 278.4L240.4 349.4ZM93.1001 347.7H236L164.5 280.8L93.1001 347.7Z" fill="#41423F"/>
<path d="M112.9 339.9L164.6 291.4L216.3 339.9H112.9Z" fill="#F3FFF6"/>
<path d="M218.5 340.7H110.7L164.6 290.2L218.5 340.7ZM115 339H214.1L164.5 292.6L115 339Z" fill="#41423F"/>
<path d="M131.8 354.1H121.4V410.3H131.8V354.1Z" fill="#21CE99"/>
<path d="M157.1 354.1H146.7V410.3H157.1V354.1Z" fill="#21CE99"/>
<path d="M182.5 354.1H172.1V410.3H182.5V354.1Z" fill="#21CE99"/>
<path d="M207.8 354.1H197.4V410.3H207.8V354.1Z" fill="#21CE99"/>
<path d="M132.6 411.2H120.5V353.3H132.6V411.2ZM122.2 409.5H130.9V355H122.2V409.5Z" fill="#41423F"/>
<path d="M157.9 411.2H145.8V353.3H157.9V411.2ZM147.6 409.5H156.3V355H147.6V409.5Z" fill="#41423F"/>
<path d="M183.3 411.2H171.2V353.3H183.3V411.2ZM172.9 409.5H181.6V355H172.9V409.5Z" fill="#41423F"/>
<path d="M208.6 411.2H196.5V353.3H208.6V411.2ZM198.3 409.5H207V355H198.3V409.5Z" fill="#41423F"/>
<path d="M207.8 348.6H121.4V357.3H207.8V348.6Z" fill="#F3FFF6"/>
<path d="M208.6 358.1H120.5V347.7H208.6V358.1ZM122.2 356.4H206.9V349.4H122.2V356.4Z" fill="#41423F"/>
<path d="M221.2 407.4H107.9V426H221.2V407.4Z" fill="#F3FFF6"/>
<path d="M222.1 426.8H107.1V406.5H222.1V426.8ZM108.8 425.1H220.4V408.2H108.8V425.1Z" fill="#41423F"/>
<path d="M123 420.2H116V413.2H123V420.2ZM117.7 418.5H121.2V415H117.7V418.5Z" fill="#41423F"/>
<path d="M145.5 420.2H138.5V413.2H145.5V420.2ZM140.3 418.5H143.8V415H140.3V418.5Z" fill="#41423F"/>
<path d="M168.1 420.2H161.1V413.2H168.1V420.2ZM162.8 418.5H166.3V415H162.8V418.5Z" fill="#41423F"/>
<path d="M190.6 420.2H183.6V413.2H190.6V420.2ZM185.4 418.5H188.9V415H185.4V418.5Z" fill="#41423F"/>
<path d="M213.2 420.2H206.2V413.2H213.2V420.2ZM207.9 418.5H211.4V415H207.9V418.5Z" fill="#41423F"/>
<path d="M226.5 404.9C214.8 404.9 205.4 414.3 205.4 426H247.6C247.6 414.3 238.2 404.9 226.5 404.9Z" fill="#0FAB7B"/>
<path d="M247.6 426.8H205.4C204.9 426.8 204.5 426.4 204.5 425.9C204.5 413.8 214.3 403.9 226.5 403.9C238.6 403.9 248.5 413.7 248.5 425.9C248.5 426.4 248.1 426.8 247.6 426.8ZM206.3 425.1H246.8C246.4 414.3 237.5 405.7 226.6 405.7C215.6 405.7 206.7 414.3 206.3 425.1Z" fill="#41423F"/>
<path d="M362.8 333.8C362.8 343.5 370.7 351.4 380.4 351.4C390.1 351.4 398 343.5 398 333.8C398 324.1 390.1 316.2 380.4 316.2C370.7 316.2 362.8 324.1 362.8 333.8Z" fill="#0FAB7B"/>
<path d="M380.6 393.4C394.076 393.4 405 382.476 405 369C405 355.524 394.076 344.6 380.6 344.6C367.124 344.6 356.2 355.524 356.2 369C356.2 382.476 367.124 393.4 380.6 393.4Z" fill="#0FAB7B"/>
<path d="M380.6 394.2C366.7 394.2 355.4 382.9 355.4 369C355.4 360 360.1 351.8 367.8 347.3C364.1 343.8 362 339 362 333.9C362 323.7 370.3 315.4 380.5 315.4C390.7 315.4 399 323.7 399 333.9C399 339 396.9 343.7 393.3 347.2C401.1 351.7 405.9 360 405.9 369C405.8 382.9 394.5 394.2 380.6 394.2ZM380.4 317.1C371.2 317.1 363.6 324.6 363.6 333.9C363.6 338.9 365.8 343.6 369.7 346.8C369.9 347 370 347.3 370 347.5C370 347.8 369.8 348 369.5 348.2C361.8 352.3 356.9 360.3 356.9 369C356.9 382 367.5 392.5 380.4 392.5C393.4 392.5 403.9 381.9 403.9 369C403.9 360.2 399 352.1 391.1 348.1C390.8 348 390.7 347.7 390.6 347.4C390.6 347.1 390.7 346.8 390.9 346.7C394.7 343.5 396.9 338.8 396.9 333.9C397.2 324.6 389.7 317.1 380.4 317.1Z" fill="#41423F"/>
<path d="M380.4 421.9C379.9 421.9 379.5 421.5 379.5 421V328.5C379.5 328 379.9 327.6 380.4 327.6C380.9 327.6 381.3 328 381.3 328.5V421C381.3 421.5 380.9 421.9 380.4 421.9Z" fill="#41423F"/>
<path d="M380.6 341.2C380.3 341.2 380 341.1 379.9 340.8C379.6 340.4 379.8 339.9 380.1 339.6L386.9 335.2C387.3 334.9 387.8 335.1 388.1 335.4C388.4 335.8 388.2 336.3 387.9 336.6L381.1 341C380.9 341.1 380.8 341.2 380.6 341.2Z" fill="#41423F"/>
<path d="M380.4 374.7C380.2 374.7 380.1 374.6 379.9 374.5L368.3 366.3C367.9 366 367.8 365.5 368.1 365.1C368.4 364.7 368.9 364.6 369.3 364.9L380.9 373.1C381.3 373.4 381.4 373.9 381.1 374.3C381 374.5 380.7 374.7 380.4 374.7Z" fill="#41423F"/>
<path d="M854.9 404.1C843.2 404.1 833.8 413.5 833.8 425.2H876C876 413.5 866.6 404.1 854.9 404.1Z" fill="#0FAB7B"/>
<path d="M876 426H833.8C833.3 426 832.9 425.6 832.9 425.1C832.9 413 842.7 403.1 854.9 403.1C867 403.1 876.9 412.9 876.9 425.1C876.9 425.6 876.5 426 876 426ZM834.7 424.3H875.2C874.8 413.5 865.9 404.9 855 404.9C844.1 404.9 835.2 413.5 834.7 424.3Z" fill="#41423F"/>
<path d="M827 404.1C815.3 404.1 805.9 413.5 805.9 425.2H848.1C848.1 413.5 838.7 404.1 827 404.1Z" fill="#0FAB7B"/>
<path d="M848.1 426H805.9C805.4 426 805 425.6 805 425.1C805 413 814.8 403.1 827 403.1C839.1 403.1 849 412.9 849 425.1C849 425.6 848.6 426 848.1 426ZM806.8 424.3H847.3C846.9 413.5 838 404.9 827.1 404.9C816.2 404.9 807.3 413.5 806.8 424.3Z" fill="#41423F"/>
<path d="M395.5 404.9C383.8 404.9 374.4 414.3 374.4 426H416.6C416.6 414.3 407.2 404.9 395.5 404.9Z" fill="#0FAB7B"/>
<path d="M416.6 426.8H374.4C373.9 426.8 373.5 426.4 373.5 425.9C373.5 413.8 383.3 403.9 395.5 403.9C407.6 403.9 417.5 413.7 417.5 425.9C417.5 426.4 417.1 426.8 416.6 426.8ZM375.3 425.1H415.8C415.4 414.3 406.5 405.7 395.6 405.7C384.6 405.7 375.7 414.3 375.3 425.1Z" fill="#41423F"/>
<path d="M429 404.9C417.3 404.9 407.9 414.3 407.9 426H450.1C450.1 414.3 440.7 404.9 429 404.9Z" fill="#0FAB7B"/>
<path d="M450.1 426.8H407.9C407.4 426.8 407 426.4 407 425.9C407 413.8 416.8 403.9 429 403.9C441.1 403.9 451 413.7 451 425.9C451 426.4 450.6 426.8 450.1 426.8ZM408.8 425.1H449.3C448.9 414.3 440 405.7 429.1 405.7C418.1 405.7 409.2 414.3 408.8 425.1Z" fill="#41423F"/>
<path d="M1266.6 447H11.3999C5.5999 447 0.899902 442.3 0.899902 436.5C0.899902 430.7 5.5999 426 11.3999 426H1266.6C1272.4 426 1277.1 430.7 1277.1 436.5C1277.1 442.3 1272.4 447 1266.6 447Z" fill="#21CE99"/>
<path d="M1266.6 447.8H11.4C5.1 447.8 0 442.7 0 436.4C0 430.1 5.1 425 11.4 425H1266.5C1272.8 425 1277.9 430.1 1277.9 436.4C1277.9 442.7 1272.8 447.8 1266.6 447.8ZM11.4 426.8C6.1 426.8 1.7 431.1 1.7 436.5C1.7 441.8 6 446.2 11.4 446.2H1266.5C1271.8 446.2 1276.2 441.9 1276.2 436.5C1276.2 431.2 1271.9 426.8 1266.5 426.8H11.4Z" fill="#41423F"/>
<path d="M101.6 73.0001C101.6 63.0001 93.5001 54.8001 83.4001 54.8001C79.0001 54.8001 75.0001 56.4001 71.8001 58.9001C68.0001 54.2001 62.2001 51.1001 55.6001 51.1001C44.2001 51.1001 34.9001 60.4001 34.9001 71.8001C34.9001 74.1001 35.3001 76.4001 36.0001 78.5001H100.6C101.2 76.8001 101.6 74.9001 101.6 73.0001Z" fill="#71E08A"/>
<path d="M100.7 79.4001H36.0001C35.6001 79.4001 35.3001 79.2 35.2001 78.8C34.4001 76.6 34.1001 74.2001 34.1001 71.9001C34.1001 60.0001 43.8001 50.3 55.7001 50.3C62.0001 50.3 67.9001 53.0001 72.0001 57.7001C75.3001 55.2001 79.3001 53.9001 83.4001 53.9001C93.9001 53.9001 102.4 62.4001 102.4 72.9001C102.4 74.9001 102.1 76.8001 101.5 78.7001C101.4 79.1001 101.1 79.4001 100.7 79.4001ZM36.7001 77.7001H100C100.4 76.2001 100.7 74.6001 100.7 73.0001C100.7 63.4001 92.9001 55.7001 83.4001 55.7001C79.4001 55.7001 75.5001 57.1001 72.4001 59.6001C72.2001 59.7001 72.0001 59.8 71.8001 59.8C71.6001 59.8 71.4001 59.7001 71.2001 59.5001C67.4001 54.8001 61.8001 52.1001 55.7001 52.1001C44.8001 52.1001 35.8001 61.0001 35.8001 72.0001C35.8001 73.8001 36.1001 75.8001 36.7001 77.7001Z" fill="#41423F"/>
<path d="M107.1 87.3H51.6002C51.1002 87.3 50.7002 86.9 50.7002 86.4C50.7002 85.9 51.1002 85.5 51.6002 85.5H107.1C107.6 85.5 108 85.9 108 86.4C108 86.9 107.6 87.3 107.1 87.3Z" fill="#41423F"/>
<path d="M143.3 87.3H117C116.5 87.3 116.1 86.9 116.1 86.4C116.1 85.9 116.5 85.5 117 85.5H143.3C143.8 85.5 144.2 85.9 144.2 86.4C144.2 86.9 143.8 87.3 143.3 87.3Z" fill="#41423F"/>
<path d="M1106.7 49.9C1106.7 39.9 1114.8 31.7 1124.9 31.7C1129.3 31.7 1133.3 33.3 1136.5 35.8C1140.3 31.1 1146.1 28 1152.7 28C1164.1 28 1173.4 37.3 1173.4 48.7C1173.4 51 1173 53.3 1172.3 55.4H1107.7C1107 53.7 1106.7 51.8 1106.7 49.9Z" fill="#71E08A"/>
<path d="M1172.2 56.3H1107.6C1107.2 56.3 1106.9 56.1001 1106.8 55.7001C1106.2 53.8001 1105.9 51.9001 1105.9 49.9001C1105.9 39.4001 1114.4 30.9001 1124.9 30.9001C1129 30.9001 1133 32.2001 1136.3 34.7001C1140.4 30.0001 1146.3 27.3 1152.6 27.3C1164.5 27.3 1174.2 37.0001 1174.2 48.9001C1174.2 51.3001 1173.8 53.6 1173 55.8C1172.9 56.1 1172.6 56.3 1172.2 56.3ZM1108.2 54.6001H1171.6C1172.2 52.7001 1172.5 50.8 1172.5 48.8C1172.5 37.9 1163.6 28.9001 1152.6 28.9001C1146.5 28.9001 1140.9 31.6 1137.1 36.3C1137 36.5 1136.7 36.6001 1136.5 36.6001C1136.3 36.6001 1136 36.6001 1135.9 36.4001C1132.8 33.9001 1128.9 32.5001 1124.9 32.5001C1115.3 32.5001 1107.6 40.3 1107.6 49.8C1107.5 51.5 1107.8 53.1001 1108.2 54.6001Z" fill="#41423F"/>
<path d="M1156.6 64.2H1101.1C1100.6 64.2 1100.2 63.8 1100.2 63.3C1100.2 62.8 1100.6 62.4 1101.1 62.4H1156.6C1157.1 62.4 1157.5 62.8 1157.5 63.3C1157.4 63.9 1157.1 64.2 1156.6 64.2Z" fill="#41423F"/>
<path d="M1091.2 64.2H1064.9C1064.4 64.2 1064 63.8 1064 63.3C1064 62.8 1064.4 62.4 1064.9 62.4H1091.2C1091.7 62.4 1092.1 62.8 1092.1 63.3C1092.1 63.9 1091.7 64.2 1091.2 64.2Z" fill="#41423F"/>
<path d="M402.9 114.8C402.9 104.8 411 96.6 421.1 96.6C425.5 96.6 429.5 98.2 432.7 100.7C436.5 96 442.3 92.9 448.9 92.9C460.3 92.9 469.6 102.2 469.6 113.6C469.6 115.9 469.2 118.2 468.5 120.3H403.9C403.2 118.6 402.9 116.8 402.9 114.8Z" fill="#71E08A"/>
<path d="M468.4 121.2H403.8C403.4 121.2 403.1 121 403 120.6C402.4 118.7 402.1 116.8 402.1 114.8C402.1 104.3 410.6 95.8 421.1 95.8C425.2 95.8 429.2 97.1001 432.5 99.6001C436.6 94.9001 442.5 92.2001 448.8 92.2001C460.7 92.2001 470.4 101.9 470.4 113.8C470.4 116.2 470 118.5 469.3 120.7C469.1 121 468.8 121.2 468.4 121.2ZM404.4 119.5H467.8C468.4 117.6 468.7 115.7 468.7 113.7C468.7 102.8 459.8 93.8 448.8 93.8C442.7 93.8 437.1 96.5001 433.3 101.2C433.2 101.4 432.9 101.5 432.7 101.5C432.5 101.5 432.2 101.5 432.1 101.3C429 98.8 425.1 97.4001 421.1 97.4001C411.5 97.4001 403.8 105.2 403.8 114.7C403.8 116.4 404 118 404.4 119.5Z" fill="#41423F"/>
<path d="M439.6 113.4H384.1C383.6 113.4 383.2 113 383.2 112.5C383.2 112 383.6 111.6 384.1 111.6H439.6C440.1 111.6 440.5 112 440.5 112.5C440.4 113 440 113.4 439.6 113.4Z" fill="#41423F"/>
<path d="M374.2 114H356.6C356.1 114 355.7 113.6 355.7 113.1C355.7 112.6 356.1 112.2 356.6 112.2H374.2C374.7 112.2 375.1 112.6 375.1 113.1C375.1 113.6 374.7 114 374.2 114Z" fill="#41423F"/>
<path d="M932.1 112.4C932.1 104.2 925.5 97.6001 917.3 97.6001C913.7 97.6001 910.5 98.9001 907.9 101C904.8 97.2001 900.1 94.7001 894.8 94.7001C885.5 94.7001 878 102.2 878 111.5C878 113.4 878.3 115.2 878.9 116.9H931.4C931.8 115.5 932.1 114 932.1 112.4Z" fill="#71E08A"/>
<path d="M931.4 117.8H878.9C878.5 117.8 878.2 117.6 878.1 117.2C877.5 115.4 877.2 113.4 877.2 111.5C877.2 101.7 885.1 93.8 894.9 93.8C900 93.8 904.8 96 908.2 99.8C910.9 97.8 914.1 96.8 917.5 96.8C926.1 96.8 933.1 103.8 933.1 112.4C933.1 114 932.8 115.6 932.4 117.2C932.1 117.6 931.8 117.8 931.4 117.8ZM879.5 116.1H930.8C931.1 114.9 931.3 113.7 931.3 112.4C931.3 104.7 925.1 98.5001 917.4 98.5001C914.2 98.5001 911 99.6001 908.6 101.7C908.4 101.8 908.2 101.9 908 101.9C907.8 101.9 907.6 101.8 907.4 101.6C904.3 97.8001 899.8 95.6001 894.9 95.6001C886.1 95.6001 878.9 102.8 878.9 111.6C878.8 113.1 879 114.6 879.5 116.1Z" fill="#41423F"/>
<path d="M947.4 111.4H902.3C901.8 111.4 901.4 111 901.4 110.5C901.4 110 901.8 109.6 902.3 109.6H947.4C947.9 109.6 948.3 110 948.3 110.5C948.2 111 947.8 111.4 947.4 111.4Z" fill="#41423F"/>
<path d="M969.7 111.9H955.4C954.9 111.9 954.5 111.5 954.5 111C954.5 110.5 954.9 110.1 955.4 110.1H969.7C970.2 110.1 970.6 110.5 970.6 111C970.6 111.6 970.2 111.9 969.7 111.9Z" fill="#41423F"/>
<path d="M244 84.0001C266.754 84.0001 285.2 65.5542 285.2 42.8001C285.2 20.0459 266.754 1.6001 244 1.6001C221.246 1.6001 202.8 20.0459 202.8 42.8001C202.8 65.5542 221.246 84.0001 244 84.0001Z" fill="#21CE99"/>
<path d="M244 84.9C220.8 84.9 201.9 66 201.9 42.9C201.9 19.7 220.8 0.800049 244 0.800049C267.2 0.800049 286.1 19.7 286.1 42.9C286.1 66 267.2 84.9 244 84.9ZM244 2.50005C221.8 2.50005 203.7 20.6 203.7 42.8C203.7 65 221.8 83.1001 244 83.1001C266.2 83.1001 284.3 65 284.3 42.8C284.4 20.6 266.3 2.50005 244 2.50005Z" fill="#41423F"/>
<path d="M841.5 35.6001C836.9 35.6001 833.1 31.8001 833.1 27.2001C833.1 22.6001 836.9 18.8 841.5 18.8C846.1 18.8 849.9 22.6001 849.9 27.2001C849.9 31.9001 846.1 35.6001 841.5 35.6001ZM841.5 20.5001C837.8 20.5001 834.8 23.5001 834.8 27.2001C834.8 30.9001 837.8 33.9001 841.5 33.9001C845.2 33.9001 848.2 30.9001 848.2 27.2001C848.2 23.5001 845.2 20.5001 841.5 20.5001Z" fill="#41423F"/>
<path d="M188.1 138.1C183.5 138.1 179.7 134.3 179.7 129.7C179.7 125.1 183.5 121.3 188.1 121.3C192.7 121.3 196.5 125.1 196.5 129.7C196.5 134.3 192.7 138.1 188.1 138.1ZM188.1 123C184.4 123 181.4 126 181.4 129.7C181.4 133.4 184.4 136.4 188.1 136.4C191.8 136.4 194.8 133.4 194.8 129.7C194.8 126 191.8 123 188.1 123Z" fill="#41423F"/>
<path d="M389.7 29.7C385.1 29.7 381.3 25.9 381.3 21.3C381.3 16.7 385.1 12.9 389.7 12.9C394.3 12.9 398.1 16.7 398.1 21.3C398.1 25.9 394.3 29.7 389.7 29.7ZM389.7 14.5C386 14.5 383 17.5 383 21.2C383 24.9 386 27.9 389.7 27.9C393.4 27.9 396.4 24.9 396.4 21.2C396.4 17.6 393.4 14.5 389.7 14.5Z" fill="#41423F"/>
<path d="M612.7 134.3C608.1 134.3 604.3 130.5 604.3 125.9C604.3 121.3 608.1 117.5 612.7 117.5C617.3 117.5 621.1 121.3 621.1 125.9C621.1 130.5 617.3 134.3 612.7 134.3ZM612.7 119.2C609 119.2 606 122.2 606 125.9C606 129.6 609 132.6 612.7 132.6C616.4 132.6 619.4 129.6 619.4 125.9C619.4 122.2 616.4 119.2 612.7 119.2Z" fill="#41423F"/>
<path d="M1074.6 133C1070 133 1066.2 129.2 1066.2 124.6C1066.2 120 1070 116.2 1074.6 116.2C1079.2 116.2 1083 120 1083 124.6C1083 129.2 1079.3 133 1074.6 133ZM1074.6 117.9C1070.9 117.9 1067.9 120.9 1067.9 124.6C1067.9 128.3 1070.9 131.3 1074.6 131.3C1078.3 131.3 1081.3 128.3 1081.3 124.6C1081.3 120.9 1078.3 117.9 1074.6 117.9Z" fill="#41423F"/>
</svg>
