<svg width="1440" height="1024" preserveAspectRatio="none" viewBox="0 0 1440 1024" fill="none" xmlns="http://www.w3.org/2000/svg">
<g clip-path="url(#clip0)">
<path d="M1550.5 683C2102.03 711.803 1440 616.858 1440 616.858L1440 0L0 0V221.056C0 221.056 -303.471 266.5 92 545C487.471 823.5 1081.5 748 1440 872C1798.5 996 998.971 654.197 1550.5 683Z" fill="#E0D2ED"/>
<path d="M1440 875.5C1623.23 875.5 1440 616.859 1440 616.859L1440 0L-28.0002 0V221.056C-28.0002 221.056 -228.731 841 -45.5002 841C137.73 841 366.269 507.5 549.5 507.5C733.808 507.5 1256.77 875.5 1440 875.5Z" fill="#8F4FBC"/>
<path d="M1605.5 813.5C2147.97 1029.2 1925.5 283.5 1925.5 283.5L1440 0L0.000244141 0L-49.0004 -105C-49.0004 -105 -562 425.5 -114.5 683C333 940.5 540.265 377.454 720 377.454C900.793 377.454 1063.03 597.803 1605.5 813.5Z" fill="#522CB3" fill-opacity="0.7"/>
<path d="M1963.5 765.5C2505.97 981.197 2061.29 340.5 2061.29 340.5L1575.79 56.9998L1660.5 -153L86.7915 -47.9999C86.7915 -47.9999 -946 593.5 -286 765.5C374 937.5 676.056 434.454 855.791 434.454C1036.58 434.454 1421.03 549.803 1963.5 765.5Z" fill="#723CB5" fill-opacity="0.49"/>
</g>
<defs>
<clipPath id="clip0">
<rect width="1440" height="1024" fill="white"/>
</clipPath>
</defs>
</svg>
