<svg width="427" height="298" viewBox="0 0 427 298" fill="none" xmlns="http://www.w3.org/2000/svg">
<path d="M4.96 292C3.744 292 2.88 291.765 2.368 291.296C1.87733 290.805 1.632 290.091 1.632 289.152C1.632 288.875 1.64267 288.437 1.664 287.84C1.70667 287.221 1.76 286.496 1.824 285.664C1.888 284.832 1.952 283.925 2.016 282.944C2.10133 281.963 2.18667 280.96 2.272 279.936C2.37867 278.677 2.464 277.6 2.528 276.704C2.61333 275.787 2.67733 275.008 2.72 274.368C2.76267 273.707 2.79467 273.163 2.816 272.736C2.85867 272.288 2.88 271.904 2.88 271.584C2.90133 271.243 2.912 270.933 2.912 270.656C2.93333 270.379 2.944 270.08 2.944 269.76C2.944 269.589 2.99733 269.472 3.104 269.408C3.21067 269.323 3.31733 269.28 3.424 269.28C3.97867 269.28 4.58667 269.269 5.248 269.248C5.90933 269.205 6.57067 269.163 7.232 269.12C7.89333 269.077 8.53333 269.045 9.152 269.024C9.77067 268.981 10.3147 268.96 10.784 268.96C12.1493 268.96 13.3227 269.131 14.304 269.472C15.2853 269.792 16.0747 270.272 16.672 270.912C17.2907 271.531 17.7387 272.288 18.016 273.184C18.3147 274.08 18.464 275.104 18.464 276.256C18.464 277.515 18.2933 278.731 17.952 279.904C17.632 281.056 17.12 282.08 16.416 282.976C15.712 283.872 14.8053 284.587 13.696 285.12C12.5867 285.653 11.264 285.92 9.728 285.92C8.81067 285.92 8.032 285.824 7.392 285.632L6.944 291.52C6.92267 291.691 6.88 291.819 6.816 291.904C6.752 291.968 6.624 292 6.432 292H4.96ZM10.144 273.76C9.86667 273.76 9.55733 273.781 9.216 273.824C8.87467 273.845 8.512 273.877 8.128 273.92C8.08533 274.816 8.032 275.904 7.968 277.184C7.904 278.464 7.81867 279.808 7.712 281.216C8.032 281.301 8.34133 281.365 8.64 281.408C8.96 281.429 9.248 281.44 9.504 281.44C10.2507 281.44 10.848 281.269 11.296 280.928C11.7653 280.565 12.128 280.128 12.384 279.616C12.64 279.104 12.8107 278.571 12.896 278.016C12.9813 277.461 13.024 276.981 13.024 276.576C13.024 275.659 12.8107 274.965 12.384 274.496C11.9787 274.005 11.232 273.76 10.144 273.76ZM23.8365 292.288C22.5138 292.288 21.5645 291.936 20.9885 291.232C20.4125 290.528 20.1245 289.365 20.1245 287.744C20.1245 287.488 20.1352 287.168 20.1565 286.784C20.1992 286.4 20.2418 285.909 20.2845 285.312C20.3485 284.693 20.4232 283.936 20.5085 283.04C20.5938 282.144 20.6792 281.056 20.7645 279.776C20.8712 278.496 20.9778 276.992 21.0845 275.264C21.2125 273.536 21.3405 271.531 21.4685 269.248C21.4898 268.779 21.5432 268.501 21.6285 268.416C21.6925 268.352 21.8632 268.32 22.1405 268.32H23.3885C24.0285 268.32 24.5618 268.395 24.9885 268.544C25.4152 268.693 25.7565 268.896 26.0125 269.152C26.2685 269.408 26.4498 269.707 26.5565 270.048C26.6632 270.368 26.7165 270.709 26.7165 271.072C26.7165 271.499 26.6845 272.117 26.6205 272.928C26.5778 273.717 26.5138 274.613 26.4285 275.616C26.3432 276.619 26.2578 277.664 26.1725 278.752C26.0872 279.84 26.0018 280.885 25.9165 281.888C25.8312 282.869 25.7565 283.755 25.6925 284.544C25.6498 285.333 25.6285 285.931 25.6285 286.336C25.6285 286.891 25.7245 287.285 25.9165 287.52C26.1298 287.755 26.3538 287.925 26.5885 288.032C26.8232 288.117 27.0365 288.181 27.2285 288.224C27.4418 288.245 27.5485 288.309 27.5485 288.416C27.5485 288.885 27.4952 289.355 27.3885 289.824C27.2818 290.272 27.0898 290.688 26.8125 291.072C26.5352 291.435 26.1512 291.733 25.6605 291.968C25.1912 292.181 24.5832 292.288 23.8365 292.288ZM37.1728 292.32C36.2341 292.32 35.2954 292.203 34.3568 291.968C33.4394 291.733 32.6074 291.328 31.8608 290.752C31.1354 290.176 30.5381 289.408 30.0688 288.448C29.5994 287.488 29.3648 286.283 29.3648 284.832C29.3648 284.299 29.4074 283.659 29.4928 282.912C29.5781 282.165 29.7381 281.397 29.9728 280.608C30.2288 279.819 30.5701 279.04 30.9968 278.272C31.4448 277.483 32.0208 276.779 32.7248 276.16C33.4288 275.541 34.2821 275.04 35.2848 274.656C36.2874 274.272 37.4821 274.08 38.8688 274.08C39.9781 274.08 40.9168 274.208 41.6848 274.464C42.4528 274.72 43.0714 275.072 43.5408 275.52C44.0101 275.947 44.3514 276.448 44.5648 277.024C44.7781 277.6 44.8848 278.219 44.8848 278.88C44.8848 279.861 44.6821 280.693 44.2768 281.376C43.8928 282.059 43.3808 282.635 42.7408 283.104C42.1221 283.552 41.4288 283.904 40.6608 284.16C39.8928 284.416 39.1354 284.619 38.3888 284.768C37.6421 284.896 36.9488 284.981 36.3088 285.024C35.6901 285.045 35.2101 285.056 34.8688 285.056C34.8688 285.461 34.9221 285.867 35.0288 286.272C35.1568 286.656 35.3381 286.997 35.5728 287.296C35.8074 287.595 36.1168 287.84 36.5008 288.032C36.8848 288.224 37.3541 288.32 37.9088 288.32C38.4634 288.32 38.8901 288.235 39.1888 288.064C39.5088 287.872 39.7648 287.669 39.9568 287.456C40.1488 287.221 40.3088 287.019 40.4368 286.848C40.5861 286.656 40.7781 286.56 41.0128 286.56C41.1194 286.56 41.3008 286.592 41.5568 286.656C41.8341 286.699 42.1114 286.805 42.3888 286.976C42.6661 287.147 42.9114 287.381 43.1248 287.68C43.3381 287.979 43.4448 288.363 43.4448 288.832C43.4448 289.451 43.2528 289.984 42.8688 290.432C42.4848 290.88 41.9834 291.243 41.3648 291.52C40.7674 291.797 40.0954 292 39.3488 292.128C38.6021 292.256 37.8768 292.32 37.1728 292.32ZM37.7808 278.336C37.3114 278.336 36.9061 278.475 36.5648 278.752C36.2448 279.008 35.9674 279.339 35.7328 279.744C35.5194 280.149 35.3488 280.597 35.2208 281.088C35.1141 281.579 35.0288 282.048 34.9648 282.496C36.2874 282.475 37.3541 282.251 38.1648 281.824C38.9968 281.397 39.4128 280.789 39.4128 280C39.4128 279.573 39.2741 279.189 38.9968 278.848C38.7408 278.507 38.3354 278.336 37.7808 278.336ZM45.852 288.064C45.852 286.144 46.716 284.64 48.444 283.552C50.172 282.464 52.7213 281.877 56.092 281.792C56.1133 281.557 56.124 281.365 56.124 281.216C56.1453 281.045 56.156 280.843 56.156 280.608C56.156 279.925 56.028 279.381 55.772 278.976C55.516 278.571 54.9827 278.368 54.172 278.368C53.724 278.368 53.3613 278.432 53.084 278.56C52.8067 278.688 52.5827 278.869 52.412 279.104C52.2413 279.317 52.1027 279.584 51.996 279.904C51.8893 280.224 51.7933 280.576 51.708 280.96C51.6653 281.152 51.5693 281.28 51.42 281.344C51.2707 281.387 51.036 281.408 50.716 281.408C48.54 281.408 47.452 280.587 47.452 278.944C47.452 278.283 47.6013 277.653 47.9 277.056C48.22 276.459 48.6787 275.947 49.276 275.52C49.8947 275.072 50.6627 274.72 51.58 274.464C52.4973 274.208 53.564 274.08 54.78 274.08C57.148 274.08 58.8653 274.571 59.932 275.552C60.9987 276.533 61.532 277.92 61.532 279.712C61.532 279.947 61.5 280.373 61.436 280.992C61.3933 281.589 61.3293 282.229 61.244 282.912C61.18 283.573 61.116 284.203 61.052 284.8C61.0093 285.397 60.988 285.813 60.988 286.048C60.988 286.581 61.084 286.965 61.276 287.2C61.468 287.413 61.6813 287.563 61.916 287.648C62.172 287.733 62.396 287.797 62.588 287.84C62.78 287.883 62.876 287.989 62.876 288.16C62.876 288.629 62.812 289.109 62.684 289.6C62.556 290.091 62.3427 290.539 62.044 290.944C61.7667 291.349 61.372 291.68 60.86 291.936C60.3693 292.192 59.7613 292.32 59.036 292.32C58.012 292.32 57.244 292.075 56.732 291.584C56.22 291.093 55.8787 290.411 55.708 289.536C55.196 290.283 54.524 290.933 53.692 291.488C52.8813 292.043 51.8147 292.32 50.492 292.32C49.852 292.32 49.244 292.245 48.668 292.096C48.1133 291.947 47.6227 291.701 47.196 291.36C46.7907 291.019 46.46 290.581 46.204 290.048C45.9693 289.493 45.852 288.832 45.852 288.064ZM55.804 284.416C55.2493 284.416 54.7053 284.459 54.172 284.544C53.6387 284.629 53.1587 284.768 52.732 284.96C52.3267 285.131 51.996 285.365 51.74 285.664C51.484 285.963 51.356 286.325 51.356 286.752C51.356 287.243 51.5053 287.584 51.804 287.776C52.124 287.968 52.4653 288.064 52.828 288.064C53.1693 288.064 53.5107 287.989 53.852 287.84C54.1933 287.691 54.492 287.467 54.748 287.168C55.0253 286.848 55.26 286.464 55.452 286.016C55.644 285.568 55.7613 285.035 55.804 284.416ZM72.2993 274.08C74.1126 274.08 75.4459 274.443 76.2993 275.168C77.1526 275.872 77.5793 276.779 77.5793 277.888C77.5793 278.827 77.2806 279.541 76.6833 280.032C76.1073 280.523 75.2646 280.768 74.1553 280.768C73.8566 280.768 73.6539 280.736 73.5473 280.672C73.4406 280.608 73.3873 280.491 73.3873 280.32C73.3873 280.128 73.3659 279.915 73.3233 279.68C73.3019 279.424 73.2273 279.189 73.0993 278.976C72.9926 278.741 72.8113 278.549 72.5553 278.4C72.3206 278.251 71.9793 278.176 71.5312 278.176C70.9339 278.176 70.4539 278.325 70.0913 278.624C69.7286 278.901 69.5473 279.253 69.5473 279.68C69.5473 280.128 69.7286 280.491 70.0913 280.768C70.4753 281.024 70.9446 281.269 71.4993 281.504C72.0753 281.739 72.6939 281.984 73.3553 282.24C74.0166 282.475 74.6246 282.795 75.1793 283.2C75.7553 283.605 76.2246 284.117 76.5873 284.736C76.9713 285.333 77.1633 286.112 77.1633 287.072C77.1633 288.608 76.6193 289.867 75.5313 290.848C74.4433 291.829 72.8113 292.32 70.6353 292.32C70.0379 292.32 69.3446 292.267 68.5553 292.16C67.7873 292.075 67.0513 291.936 66.3473 291.744C65.6433 291.531 65.0459 291.253 64.5553 290.912C64.0859 290.571 63.8513 290.144 63.8513 289.632C63.8513 289.44 63.8833 289.205 63.9473 288.928C64.0326 288.651 64.1499 288.384 64.2993 288.128C64.4699 287.872 64.6619 287.659 64.8753 287.488C65.1099 287.296 65.3873 287.2 65.7073 287.2C65.9633 287.2 66.1979 287.264 66.4113 287.392C66.6246 287.52 66.8699 287.659 67.1473 287.808C67.4459 287.936 67.8086 288.064 68.2352 288.192C68.6619 288.32 69.2273 288.384 69.9313 288.384C70.4646 288.384 70.9339 288.32 71.3393 288.192C71.7659 288.064 71.9792 287.776 71.9792 287.328C71.9792 286.923 71.8086 286.603 71.4673 286.368C71.1259 286.112 70.6886 285.877 70.1553 285.664C69.6433 285.451 69.0779 285.227 68.4593 284.992C67.8619 284.736 67.2966 284.405 66.7633 284C66.2513 283.595 65.8246 283.083 65.4833 282.464C65.1419 281.824 64.9713 281.003 64.9713 280C64.9713 278.912 65.1846 277.995 65.6113 277.248C66.0593 276.48 66.6246 275.861 67.3073 275.392C68.0113 274.923 68.8006 274.592 69.6753 274.4C70.5499 274.187 71.4246 274.08 72.2993 274.08ZM87.2665 292.32C86.3278 292.32 85.3892 292.203 84.4505 291.968C83.5332 291.733 82.7012 291.328 81.9545 290.752C81.2292 290.176 80.6318 289.408 80.1625 288.448C79.6932 287.488 79.4585 286.283 79.4585 284.832C79.4585 284.299 79.5012 283.659 79.5865 282.912C79.6718 282.165 79.8318 281.397 80.0665 280.608C80.3225 279.819 80.6638 279.04 81.0905 278.272C81.5385 277.483 82.1145 276.779 82.8185 276.16C83.5225 275.541 84.3758 275.04 85.3785 274.656C86.3812 274.272 87.5758 274.08 88.9625 274.08C90.0718 274.08 91.0105 274.208 91.7785 274.464C92.5465 274.72 93.1652 275.072 93.6345 275.52C94.1038 275.947 94.4452 276.448 94.6585 277.024C94.8718 277.6 94.9785 278.219 94.9785 278.88C94.9785 279.861 94.7758 280.693 94.3705 281.376C93.9865 282.059 93.4745 282.635 92.8345 283.104C92.2158 283.552 91.5225 283.904 90.7545 284.16C89.9865 284.416 89.2292 284.619 88.4825 284.768C87.7358 284.896 87.0425 284.981 86.4025 285.024C85.7838 285.045 85.3038 285.056 84.9625 285.056C84.9625 285.461 85.0158 285.867 85.1225 286.272C85.2505 286.656 85.4318 286.997 85.6665 287.296C85.9012 287.595 86.2105 287.84 86.5945 288.032C86.9785 288.224 87.4478 288.32 88.0025 288.32C88.5572 288.32 88.9838 288.235 89.2825 288.064C89.6025 287.872 89.8585 287.669 90.0505 287.456C90.2425 287.221 90.4025 287.019 90.5305 286.848C90.6798 286.656 90.8718 286.56 91.1065 286.56C91.2132 286.56 91.3945 286.592 91.6505 286.656C91.9278 286.699 92.2052 286.805 92.4825 286.976C92.7598 287.147 93.0052 287.381 93.2185 287.68C93.4318 287.979 93.5385 288.363 93.5385 288.832C93.5385 289.451 93.3465 289.984 92.9625 290.432C92.5785 290.88 92.0772 291.243 91.4585 291.52C90.8612 291.797 90.1892 292 89.4425 292.128C88.6958 292.256 87.9705 292.32 87.2665 292.32ZM87.8745 278.336C87.4052 278.336 86.9998 278.475 86.6585 278.752C86.3385 279.008 86.0612 279.339 85.8265 279.744C85.6132 280.149 85.4425 280.597 85.3145 281.088C85.2078 281.579 85.1225 282.048 85.0585 282.496C86.3812 282.475 87.4478 282.251 88.2585 281.824C89.0905 281.397 89.5065 280.789 89.5065 280C89.5065 279.573 89.3678 279.189 89.0905 278.848C88.8345 278.507 88.4292 278.336 87.8745 278.336ZM111.237 274.08C113.05 274.08 114.383 274.443 115.237 275.168C116.09 275.872 116.517 276.779 116.517 277.888C116.517 278.827 116.218 279.541 115.621 280.032C115.045 280.523 114.202 280.768 113.093 280.768C112.794 280.768 112.591 280.736 112.485 280.672C112.378 280.608 112.325 280.491 112.325 280.32C112.325 280.128 112.303 279.915 112.261 279.68C112.239 279.424 112.165 279.189 112.037 278.976C111.93 278.741 111.749 278.549 111.493 278.4C111.258 278.251 110.917 278.176 110.469 278.176C109.871 278.176 109.391 278.325 109.029 278.624C108.666 278.901 108.485 279.253 108.485 279.68C108.485 280.128 108.666 280.491 109.029 280.768C109.413 281.024 109.882 281.269 110.437 281.504C111.013 281.739 111.631 281.984 112.293 282.24C112.954 282.475 113.562 282.795 114.117 283.2C114.693 283.605 115.162 284.117 115.525 284.736C115.909 285.333 116.101 286.112 116.101 287.072C116.101 288.608 115.557 289.867 114.469 290.848C113.381 291.829 111.749 292.32 109.573 292.32C108.975 292.32 108.282 292.267 107.493 292.16C106.725 292.075 105.989 291.936 105.285 291.744C104.581 291.531 103.983 291.253 103.493 290.912C103.023 290.571 102.789 290.144 102.789 289.632C102.789 289.44 102.821 289.205 102.885 288.928C102.97 288.651 103.087 288.384 103.237 288.128C103.407 287.872 103.599 287.659 103.813 287.488C104.047 287.296 104.325 287.2 104.645 287.2C104.901 287.2 105.135 287.264 105.349 287.392C105.562 287.52 105.807 287.659 106.085 287.808C106.383 287.936 106.746 288.064 107.173 288.192C107.599 288.32 108.165 288.384 108.869 288.384C109.402 288.384 109.871 288.32 110.277 288.192C110.703 288.064 110.917 287.776 110.917 287.328C110.917 286.923 110.746 286.603 110.405 286.368C110.063 286.112 109.626 285.877 109.093 285.664C108.581 285.451 108.015 285.227 107.397 284.992C106.799 284.736 106.234 284.405 105.701 284C105.189 283.595 104.762 283.083 104.421 282.464C104.079 281.824 103.909 281.003 103.909 280C103.909 278.912 104.122 277.995 104.549 277.248C104.997 276.48 105.562 275.861 106.245 275.392C106.949 274.923 107.738 274.592 108.613 274.4C109.487 274.187 110.362 274.08 111.237 274.08ZM126.204 292.32C125.265 292.32 124.327 292.203 123.388 291.968C122.471 291.733 121.639 291.328 120.892 290.752C120.167 290.176 119.569 289.408 119.1 288.448C118.631 287.488 118.396 286.283 118.396 284.832C118.396 284.299 118.439 283.659 118.524 282.912C118.609 282.165 118.769 281.397 119.004 280.608C119.26 279.819 119.601 279.04 120.028 278.272C120.476 277.483 121.052 276.779 121.756 276.16C122.46 275.541 123.313 275.04 124.316 274.656C125.319 274.272 126.513 274.08 127.9 274.08C129.009 274.08 129.948 274.208 130.716 274.464C131.484 274.72 132.103 275.072 132.572 275.52C133.041 275.947 133.383 276.448 133.596 277.024C133.809 277.6 133.916 278.219 133.916 278.88C133.916 279.861 133.713 280.693 133.308 281.376C132.924 282.059 132.412 282.635 131.772 283.104C131.153 283.552 130.46 283.904 129.692 284.16C128.924 284.416 128.167 284.619 127.42 284.768C126.673 284.896 125.98 284.981 125.34 285.024C124.721 285.045 124.241 285.056 123.9 285.056C123.9 285.461 123.953 285.867 124.06 286.272C124.188 286.656 124.369 286.997 124.604 287.296C124.839 287.595 125.148 287.84 125.532 288.032C125.916 288.224 126.385 288.32 126.94 288.32C127.495 288.32 127.921 288.235 128.22 288.064C128.54 287.872 128.796 287.669 128.988 287.456C129.18 287.221 129.34 287.019 129.468 286.848C129.617 286.656 129.809 286.56 130.044 286.56C130.151 286.56 130.332 286.592 130.588 286.656C130.865 286.699 131.143 286.805 131.42 286.976C131.697 287.147 131.943 287.381 132.156 287.68C132.369 287.979 132.476 288.363 132.476 288.832C132.476 289.451 132.284 289.984 131.9 290.432C131.516 290.88 131.015 291.243 130.396 291.52C129.799 291.797 129.127 292 128.38 292.128C127.633 292.256 126.908 292.32 126.204 292.32ZM126.812 278.336C126.343 278.336 125.937 278.475 125.596 278.752C125.276 279.008 124.999 279.339 124.764 279.744C124.551 280.149 124.38 280.597 124.252 281.088C124.145 281.579 124.06 282.048 123.996 282.496C125.319 282.475 126.385 282.251 127.196 281.824C128.028 281.397 128.444 280.789 128.444 280C128.444 279.573 128.305 279.189 128.028 278.848C127.772 278.507 127.367 278.336 126.812 278.336ZM139.555 292.288C138.233 292.288 137.283 291.936 136.707 291.232C136.131 290.528 135.843 289.365 135.843 287.744C135.843 287.488 135.854 287.168 135.875 286.784C135.918 286.4 135.961 285.909 136.003 285.312C136.067 284.693 136.142 283.936 136.227 283.04C136.313 282.144 136.398 281.056 136.483 279.776C136.59 278.496 136.697 276.992 136.803 275.264C136.931 273.536 137.059 271.531 137.187 269.248C137.209 268.779 137.262 268.501 137.347 268.416C137.411 268.352 137.582 268.32 137.859 268.32H139.107C139.747 268.32 140.281 268.395 140.707 268.544C141.134 268.693 141.475 268.896 141.731 269.152C141.987 269.408 142.169 269.707 142.275 270.048C142.382 270.368 142.435 270.709 142.435 271.072C142.435 271.499 142.403 272.117 142.339 272.928C142.297 273.717 142.233 274.613 142.147 275.616C142.062 276.619 141.977 277.664 141.891 278.752C141.806 279.84 141.721 280.885 141.635 281.888C141.55 282.869 141.475 283.755 141.411 284.544C141.369 285.333 141.347 285.931 141.347 286.336C141.347 286.891 141.443 287.285 141.635 287.52C141.849 287.755 142.073 287.925 142.307 288.032C142.542 288.117 142.755 288.181 142.947 288.224C143.161 288.245 143.267 288.309 143.267 288.416C143.267 288.885 143.214 289.355 143.107 289.824C143.001 290.272 142.809 290.688 142.531 291.072C142.254 291.435 141.87 291.733 141.379 291.968C140.91 292.181 140.302 292.288 139.555 292.288ZM152.892 292.32C151.953 292.32 151.014 292.203 150.076 291.968C149.158 291.733 148.326 291.328 147.58 290.752C146.854 290.176 146.257 289.408 145.788 288.448C145.318 287.488 145.084 286.283 145.084 284.832C145.084 284.299 145.126 283.659 145.212 282.912C145.297 282.165 145.457 281.397 145.692 280.608C145.948 279.819 146.289 279.04 146.716 278.272C147.164 277.483 147.74 276.779 148.444 276.16C149.148 275.541 150.001 275.04 151.004 274.656C152.006 274.272 153.201 274.08 154.588 274.08C155.697 274.08 156.636 274.208 157.404 274.464C158.172 274.72 158.79 275.072 159.26 275.52C159.729 275.947 160.07 276.448 160.284 277.024C160.497 277.6 160.604 278.219 160.604 278.88C160.604 279.861 160.401 280.693 159.996 281.376C159.612 282.059 159.1 282.635 158.46 283.104C157.841 283.552 157.148 283.904 156.38 284.16C155.612 284.416 154.854 284.619 154.108 284.768C153.361 284.896 152.668 284.981 152.028 285.024C151.409 285.045 150.929 285.056 150.588 285.056C150.588 285.461 150.641 285.867 150.748 286.272C150.876 286.656 151.057 286.997 151.292 287.296C151.526 287.595 151.836 287.84 152.22 288.032C152.604 288.224 153.073 288.32 153.628 288.32C154.182 288.32 154.609 288.235 154.908 288.064C155.228 287.872 155.484 287.669 155.676 287.456C155.868 287.221 156.028 287.019 156.156 286.848C156.305 286.656 156.497 286.56 156.732 286.56C156.838 286.56 157.02 286.592 157.276 286.656C157.553 286.699 157.83 286.805 158.108 286.976C158.385 287.147 158.63 287.381 158.844 287.68C159.057 287.979 159.164 288.363 159.164 288.832C159.164 289.451 158.972 289.984 158.588 290.432C158.204 290.88 157.702 291.243 157.084 291.52C156.486 291.797 155.814 292 155.068 292.128C154.321 292.256 153.596 292.32 152.892 292.32ZM153.5 278.336C153.03 278.336 152.625 278.475 152.284 278.752C151.964 279.008 151.686 279.339 151.452 279.744C151.238 280.149 151.068 280.597 150.94 281.088C150.833 281.579 150.748 282.048 150.684 282.496C152.006 282.475 153.073 282.251 153.884 281.824C154.716 281.397 155.132 280.789 155.132 280C155.132 279.573 154.993 279.189 154.716 278.848C154.46 278.507 154.054 278.336 153.5 278.336ZM170.595 288.064C171.213 288.064 171.747 287.979 172.195 287.808C172.664 287.637 173.069 287.445 173.411 287.232C173.752 287.019 174.04 286.827 174.275 286.656C174.509 286.485 174.723 286.4 174.915 286.4C175.405 286.4 175.651 286.72 175.651 287.36C175.651 287.509 175.619 287.723 175.555 288C175.491 288.256 175.405 288.533 175.299 288.832C175.192 289.109 175.075 289.376 174.947 289.632C174.84 289.888 174.733 290.08 174.627 290.208C174.52 290.315 174.328 290.485 174.051 290.72C173.795 290.955 173.443 291.189 172.995 291.424C172.547 291.659 172.024 291.861 171.427 292.032C170.829 292.224 170.168 292.32 169.443 292.32C168.632 292.32 167.789 292.203 166.915 291.968C166.061 291.712 165.283 291.285 164.579 290.688C163.875 290.069 163.288 289.248 162.819 288.224C162.371 287.179 162.147 285.877 162.147 284.32C162.147 283.765 162.179 283.136 162.243 282.432C162.328 281.707 162.488 280.971 162.723 280.224C162.957 279.456 163.267 278.709 163.651 277.984C164.056 277.237 164.589 276.576 165.251 276C165.912 275.424 166.701 274.965 167.619 274.624C168.557 274.261 169.667 274.08 170.947 274.08C171.992 274.08 172.888 274.208 173.635 274.464C174.403 274.699 175.032 275.029 175.523 275.456C176.013 275.861 176.376 276.341 176.611 276.896C176.867 277.451 176.995 278.048 176.995 278.688C176.995 279.84 176.632 280.693 175.907 281.248C175.181 281.781 174.157 282.048 172.835 282.048C172.515 282.048 172.291 282.027 172.163 281.984C172.056 281.92 172.003 281.792 172.003 281.6C172.003 281.088 171.992 280.629 171.971 280.224C171.949 279.819 171.885 279.477 171.779 279.2C171.693 278.923 171.555 278.709 171.363 278.56C171.171 278.411 170.893 278.336 170.531 278.336C169.869 278.336 169.336 278.549 168.931 278.976C168.547 279.403 168.248 279.925 168.035 280.544C167.843 281.141 167.715 281.76 167.651 282.4C167.608 283.04 167.587 283.573 167.587 284C167.587 285.515 167.821 286.571 168.291 287.168C168.781 287.765 169.549 288.064 170.595 288.064ZM185.661 278.72C185.597 279.531 185.522 280.331 185.437 281.12C185.373 281.909 185.309 282.656 185.245 283.36C185.181 284.064 185.127 284.693 185.085 285.248C185.063 285.803 185.053 286.229 185.053 286.528C185.053 287.083 185.117 287.456 185.245 287.648C185.373 287.819 185.586 287.904 185.885 287.904C186.119 287.904 186.322 287.861 186.493 287.776C186.663 287.691 186.823 287.595 186.973 287.488C187.122 287.381 187.25 287.285 187.357 287.2C187.485 287.115 187.623 287.072 187.773 287.072C187.922 287.072 188.061 287.157 188.189 287.328C188.317 287.499 188.381 287.893 188.381 288.512C188.381 289.685 188.061 290.613 187.421 291.296C186.781 291.979 185.682 292.32 184.125 292.32C182.589 292.32 181.447 291.968 180.701 291.264C179.975 290.539 179.613 289.44 179.613 287.968C179.613 287.648 179.623 287.275 179.645 286.848C179.687 286.4 179.741 285.824 179.805 285.12C179.869 284.416 179.943 283.552 180.029 282.528C180.135 281.504 180.242 280.235 180.349 278.72H178.653C178.482 278.72 178.375 278.688 178.333 278.624C178.311 278.539 178.301 278.421 178.301 278.272L178.397 276.64C178.418 276.363 178.45 276.096 178.493 275.84C178.557 275.563 178.663 275.317 178.813 275.104C178.983 274.891 179.218 274.72 179.517 274.592C179.815 274.464 180.21 274.4 180.701 274.4C180.85 274.016 181.021 273.557 181.213 273.024C181.405 272.491 181.597 271.979 181.789 271.488C181.981 270.976 182.162 270.549 182.333 270.208C182.525 269.867 182.695 269.696 182.845 269.696H183.773C184.669 269.696 185.287 269.973 185.629 270.528C185.97 271.083 186.141 271.744 186.141 272.512C186.141 272.939 186.109 273.568 186.045 274.4H189.405C189.746 274.4 189.917 274.549 189.917 274.848L189.789 276.576C189.746 277.216 189.565 277.739 189.245 278.144C188.946 278.528 188.317 278.72 187.357 278.72H185.661ZM205.605 292.32C204.133 292.32 202.906 292.117 201.925 291.712C200.965 291.285 200.197 290.709 199.621 289.984C199.045 289.259 198.64 288.416 198.405 287.456C198.17 286.475 198.053 285.429 198.053 284.32C198.053 283.04 198.202 281.792 198.501 280.576C198.821 279.339 199.354 278.24 200.101 277.28C200.848 276.32 201.829 275.552 203.045 274.976C204.282 274.379 205.818 274.08 207.653 274.08C210.341 274.08 212.261 274.741 213.413 276.064C214.586 277.365 215.173 279.2 215.173 281.568C215.173 282.229 215.12 282.965 215.013 283.776C214.928 284.565 214.746 285.355 214.469 286.144C214.213 286.933 213.85 287.701 213.381 288.448C212.933 289.195 212.357 289.856 211.653 290.432C210.949 291.008 210.096 291.467 209.093 291.808C208.112 292.149 206.949 292.32 205.605 292.32ZM207.109 278.336C206.298 278.336 205.648 278.549 205.157 278.976C204.688 279.381 204.325 279.883 204.069 280.48C203.834 281.056 203.674 281.675 203.589 282.336C203.525 282.976 203.493 283.52 203.493 283.968C203.493 285.376 203.717 286.411 204.165 287.072C204.613 287.733 205.253 288.064 206.085 288.064C206.832 288.064 207.44 287.829 207.909 287.36C208.4 286.891 208.773 286.325 209.029 285.664C209.306 285.003 209.488 284.309 209.573 283.584C209.68 282.859 209.733 282.251 209.733 281.76C209.733 280.693 209.53 279.861 209.125 279.264C208.741 278.645 208.069 278.336 207.109 278.336ZM227.898 282.048C227.77 282.048 227.621 282.048 227.45 282.048C227.301 282.027 227.151 282.005 227.002 281.984C226.853 281.941 226.725 281.899 226.618 281.856C226.511 281.792 226.458 281.717 226.458 281.632C226.458 281.355 226.469 281.099 226.49 280.864C226.511 280.629 226.522 280.384 226.522 280.128C226.522 279.659 226.458 279.275 226.33 278.976C226.202 278.677 225.946 278.528 225.562 278.528C224.965 278.528 224.463 278.923 224.058 279.712C223.674 280.48 223.429 281.643 223.322 283.2C223.279 283.883 223.215 284.661 223.13 285.536C223.066 286.389 223.002 287.221 222.938 288.032C222.874 288.821 222.821 289.525 222.778 290.144C222.735 290.763 222.714 291.168 222.714 291.36C222.714 291.573 222.639 291.733 222.49 291.84C222.341 291.947 222.181 292 222.01 292H220.858C220.197 292 219.653 291.936 219.226 291.808C218.821 291.659 218.49 291.456 218.234 291.2C217.999 290.944 217.829 290.635 217.722 290.272C217.637 289.888 217.594 289.451 217.594 288.96C217.594 288.64 217.605 288.192 217.626 287.616C217.669 287.019 217.733 286.208 217.818 285.184C217.903 284.139 217.999 282.827 218.106 281.248C218.234 279.648 218.383 277.675 218.554 275.328C218.597 274.709 218.821 274.4 219.226 274.4H220.474C221.071 274.4 221.573 274.464 221.978 274.592C222.383 274.72 222.714 274.901 222.97 275.136C223.226 275.349 223.407 275.605 223.514 275.904C223.642 276.203 223.727 276.512 223.77 276.832C224.026 276.341 224.325 275.925 224.666 275.584C225.029 275.221 225.402 274.933 225.786 274.72C226.17 274.485 226.565 274.325 226.97 274.24C227.375 274.133 227.749 274.08 228.09 274.08C228.495 274.08 228.901 274.155 229.306 274.304C229.733 274.453 230.117 274.677 230.458 274.976C230.799 275.275 231.066 275.659 231.258 276.128C231.471 276.597 231.578 277.152 231.578 277.792C231.578 278.368 231.493 278.912 231.322 279.424C231.151 279.936 230.906 280.395 230.586 280.8C230.266 281.184 229.871 281.493 229.402 281.728C228.954 281.941 228.453 282.048 227.898 282.048ZM246.581 274.08C248.394 274.08 249.727 274.443 250.581 275.168C251.434 275.872 251.861 276.779 251.861 277.888C251.861 278.827 251.562 279.541 250.965 280.032C250.389 280.523 249.546 280.768 248.437 280.768C248.138 280.768 247.935 280.736 247.829 280.672C247.722 280.608 247.669 280.491 247.669 280.32C247.669 280.128 247.647 279.915 247.605 279.68C247.583 279.424 247.509 279.189 247.381 278.976C247.274 278.741 247.093 278.549 246.837 278.4C246.602 278.251 246.261 278.176 245.812 278.176C245.215 278.176 244.735 278.325 244.373 278.624C244.01 278.901 243.829 279.253 243.829 279.68C243.829 280.128 244.01 280.491 244.373 280.768C244.757 281.024 245.226 281.269 245.781 281.504C246.357 281.739 246.975 281.984 247.637 282.24C248.298 282.475 248.906 282.795 249.461 283.2C250.037 283.605 250.506 284.117 250.869 284.736C251.253 285.333 251.445 286.112 251.445 287.072C251.445 288.608 250.901 289.867 249.813 290.848C248.725 291.829 247.093 292.32 244.917 292.32C244.319 292.32 243.626 292.267 242.837 292.16C242.069 292.075 241.333 291.936 240.629 291.744C239.925 291.531 239.327 291.253 238.837 290.912C238.367 290.571 238.133 290.144 238.133 289.632C238.133 289.44 238.165 289.205 238.229 288.928C238.314 288.651 238.431 288.384 238.581 288.128C238.751 287.872 238.943 287.659 239.157 287.488C239.391 287.296 239.669 287.2 239.989 287.2C240.245 287.2 240.479 287.264 240.693 287.392C240.906 287.52 241.151 287.659 241.429 287.808C241.727 287.936 242.09 288.064 242.516 288.192C242.943 288.32 243.509 288.384 244.213 288.384C244.746 288.384 245.215 288.32 245.621 288.192C246.047 288.064 246.26 287.776 246.26 287.328C246.26 286.923 246.09 286.603 245.749 286.368C245.407 286.112 244.97 285.877 244.437 285.664C243.925 285.451 243.359 285.227 242.741 284.992C242.143 284.736 241.578 284.405 241.045 284C240.533 283.595 240.106 283.083 239.765 282.464C239.423 281.824 239.253 281.003 239.253 280C239.253 278.912 239.466 277.995 239.893 277.248C240.341 276.48 240.906 275.861 241.589 275.392C242.293 274.923 243.082 274.592 243.957 274.4C244.831 274.187 245.706 274.08 246.581 274.08ZM261.548 292.32C260.609 292.32 259.67 292.203 258.732 291.968C257.814 291.733 256.982 291.328 256.236 290.752C255.51 290.176 254.913 289.408 254.444 288.448C253.974 287.488 253.74 286.283 253.74 284.832C253.74 284.299 253.782 283.659 253.868 282.912C253.953 282.165 254.113 281.397 254.348 280.608C254.604 279.819 254.945 279.04 255.372 278.272C255.82 277.483 256.396 276.779 257.1 276.16C257.804 275.541 258.657 275.04 259.66 274.656C260.662 274.272 261.857 274.08 263.244 274.08C264.353 274.08 265.292 274.208 266.06 274.464C266.828 274.72 267.446 275.072 267.916 275.52C268.385 275.947 268.726 276.448 268.94 277.024C269.153 277.6 269.26 278.219 269.26 278.88C269.26 279.861 269.057 280.693 268.652 281.376C268.268 282.059 267.756 282.635 267.116 283.104C266.497 283.552 265.804 283.904 265.036 284.16C264.268 284.416 263.51 284.619 262.764 284.768C262.017 284.896 261.324 284.981 260.684 285.024C260.065 285.045 259.585 285.056 259.244 285.056C259.244 285.461 259.297 285.867 259.404 286.272C259.532 286.656 259.713 286.997 259.948 287.296C260.182 287.595 260.492 287.84 260.876 288.032C261.26 288.224 261.729 288.32 262.284 288.32C262.838 288.32 263.265 288.235 263.564 288.064C263.884 287.872 264.14 287.669 264.332 287.456C264.524 287.221 264.684 287.019 264.812 286.848C264.961 286.656 265.153 286.56 265.388 286.56C265.494 286.56 265.676 286.592 265.932 286.656C266.209 286.699 266.486 286.805 266.764 286.976C267.041 287.147 267.286 287.381 267.5 287.68C267.713 287.979 267.82 288.363 267.82 288.832C267.82 289.451 267.628 289.984 267.244 290.432C266.86 290.88 266.358 291.243 265.74 291.52C265.142 291.797 264.47 292 263.724 292.128C262.977 292.256 262.252 292.32 261.548 292.32ZM262.156 278.336C261.686 278.336 261.281 278.475 260.94 278.752C260.62 279.008 260.342 279.339 260.108 279.744C259.894 280.149 259.724 280.597 259.596 281.088C259.489 281.579 259.404 282.048 259.34 282.496C260.662 282.475 261.729 282.251 262.54 281.824C263.372 281.397 263.788 280.789 263.788 280C263.788 279.573 263.649 279.189 263.372 278.848C263.116 278.507 262.71 278.336 262.156 278.336ZM270.227 288.064C270.227 286.144 271.091 284.64 272.819 283.552C274.547 282.464 277.096 281.877 280.467 281.792C280.488 281.557 280.499 281.365 280.499 281.216C280.52 281.045 280.531 280.843 280.531 280.608C280.531 279.925 280.403 279.381 280.147 278.976C279.891 278.571 279.358 278.368 278.547 278.368C278.099 278.368 277.736 278.432 277.459 278.56C277.182 278.688 276.958 278.869 276.787 279.104C276.616 279.317 276.478 279.584 276.371 279.904C276.264 280.224 276.168 280.576 276.083 280.96C276.04 281.152 275.944 281.28 275.795 281.344C275.646 281.387 275.411 281.408 275.091 281.408C272.915 281.408 271.827 280.587 271.827 278.944C271.827 278.283 271.976 277.653 272.275 277.056C272.595 276.459 273.054 275.947 273.651 275.52C274.27 275.072 275.038 274.72 275.955 274.464C276.872 274.208 277.939 274.08 279.155 274.08C281.523 274.08 283.24 274.571 284.307 275.552C285.374 276.533 285.907 277.92 285.907 279.712C285.907 279.947 285.875 280.373 285.811 280.992C285.768 281.589 285.704 282.229 285.619 282.912C285.555 283.573 285.491 284.203 285.427 284.8C285.384 285.397 285.363 285.813 285.363 286.048C285.363 286.581 285.459 286.965 285.651 287.2C285.843 287.413 286.056 287.563 286.291 287.648C286.547 287.733 286.771 287.797 286.963 287.84C287.155 287.883 287.251 287.989 287.251 288.16C287.251 288.629 287.187 289.109 287.059 289.6C286.931 290.091 286.718 290.539 286.419 290.944C286.142 291.349 285.747 291.68 285.235 291.936C284.744 292.192 284.136 292.32 283.411 292.32C282.387 292.32 281.619 292.075 281.107 291.584C280.595 291.093 280.254 290.411 280.083 289.536C279.571 290.283 278.899 290.933 278.067 291.488C277.256 292.043 276.19 292.32 274.867 292.32C274.227 292.32 273.619 292.245 273.043 292.096C272.488 291.947 271.998 291.701 271.571 291.36C271.166 291.019 270.835 290.581 270.579 290.048C270.344 289.493 270.227 288.832 270.227 288.064ZM280.179 284.416C279.624 284.416 279.08 284.459 278.547 284.544C278.014 284.629 277.534 284.768 277.107 284.96C276.702 285.131 276.371 285.365 276.115 285.664C275.859 285.963 275.731 286.325 275.731 286.752C275.731 287.243 275.88 287.584 276.179 287.776C276.499 287.968 276.84 288.064 277.203 288.064C277.544 288.064 277.886 287.989 278.227 287.84C278.568 287.691 278.867 287.467 279.123 287.168C279.4 286.848 279.635 286.464 279.827 286.016C280.019 285.568 280.136 285.035 280.179 284.416ZM299.554 282.048C299.426 282.048 299.277 282.048 299.106 282.048C298.957 282.027 298.808 282.005 298.658 281.984C298.509 281.941 298.381 281.899 298.274 281.856C298.168 281.792 298.114 281.717 298.114 281.632C298.114 281.355 298.125 281.099 298.146 280.864C298.168 280.629 298.178 280.384 298.178 280.128C298.178 279.659 298.114 279.275 297.986 278.976C297.858 278.677 297.602 278.528 297.218 278.528C296.621 278.528 296.12 278.923 295.714 279.712C295.33 280.48 295.085 281.643 294.978 283.2C294.936 283.883 294.872 284.661 294.786 285.536C294.722 286.389 294.658 287.221 294.594 288.032C294.53 288.821 294.477 289.525 294.434 290.144C294.392 290.763 294.37 291.168 294.37 291.36C294.37 291.573 294.296 291.733 294.146 291.84C293.997 291.947 293.837 292 293.666 292H292.514C291.853 292 291.309 291.936 290.882 291.808C290.477 291.659 290.146 291.456 289.89 291.2C289.656 290.944 289.485 290.635 289.378 290.272C289.293 289.888 289.25 289.451 289.25 288.96C289.25 288.64 289.261 288.192 289.282 287.616C289.325 287.019 289.389 286.208 289.474 285.184C289.56 284.139 289.656 282.827 289.762 281.248C289.89 279.648 290.04 277.675 290.21 275.328C290.253 274.709 290.477 274.4 290.882 274.4H292.13C292.728 274.4 293.229 274.464 293.634 274.592C294.04 274.72 294.37 274.901 294.626 275.136C294.882 275.349 295.064 275.605 295.17 275.904C295.298 276.203 295.384 276.512 295.426 276.832C295.682 276.341 295.981 275.925 296.322 275.584C296.685 275.221 297.058 274.933 297.442 274.72C297.826 274.485 298.221 274.325 298.626 274.24C299.032 274.133 299.405 274.08 299.746 274.08C300.152 274.08 300.557 274.155 300.962 274.304C301.389 274.453 301.773 274.677 302.114 274.976C302.456 275.275 302.722 275.659 302.914 276.128C303.128 276.597 303.234 277.152 303.234 277.792C303.234 278.368 303.149 278.912 302.978 279.424C302.808 279.936 302.562 280.395 302.242 280.8C301.922 281.184 301.528 281.493 301.058 281.728C300.61 281.941 300.109 282.048 299.554 282.048ZM312.595 288.064C313.213 288.064 313.747 287.979 314.195 287.808C314.664 287.637 315.069 287.445 315.411 287.232C315.752 287.019 316.04 286.827 316.275 286.656C316.509 286.485 316.723 286.4 316.915 286.4C317.405 286.4 317.651 286.72 317.651 287.36C317.651 287.509 317.619 287.723 317.555 288C317.491 288.256 317.405 288.533 317.299 288.832C317.192 289.109 317.075 289.376 316.947 289.632C316.84 289.888 316.733 290.08 316.627 290.208C316.52 290.315 316.328 290.485 316.051 290.72C315.795 290.955 315.443 291.189 314.995 291.424C314.547 291.659 314.024 291.861 313.427 292.032C312.829 292.224 312.168 292.32 311.443 292.32C310.632 292.32 309.789 292.203 308.915 291.968C308.061 291.712 307.283 291.285 306.579 290.688C305.875 290.069 305.288 289.248 304.819 288.224C304.371 287.179 304.147 285.877 304.147 284.32C304.147 283.765 304.179 283.136 304.243 282.432C304.328 281.707 304.488 280.971 304.723 280.224C304.957 279.456 305.267 278.709 305.651 277.984C306.056 277.237 306.589 276.576 307.251 276C307.912 275.424 308.701 274.965 309.619 274.624C310.557 274.261 311.667 274.08 312.947 274.08C313.992 274.08 314.888 274.208 315.635 274.464C316.403 274.699 317.032 275.029 317.523 275.456C318.013 275.861 318.376 276.341 318.611 276.896C318.867 277.451 318.995 278.048 318.995 278.688C318.995 279.84 318.632 280.693 317.907 281.248C317.181 281.781 316.157 282.048 314.835 282.048C314.515 282.048 314.291 282.027 314.163 281.984C314.056 281.92 314.003 281.792 314.003 281.6C314.003 281.088 313.992 280.629 313.971 280.224C313.949 279.819 313.885 279.477 313.779 279.2C313.693 278.923 313.555 278.709 313.363 278.56C313.171 278.411 312.893 278.336 312.531 278.336C311.869 278.336 311.336 278.549 310.931 278.976C310.547 279.403 310.248 279.925 310.035 280.544C309.843 281.141 309.715 281.76 309.651 282.4C309.608 283.04 309.587 283.573 309.587 284C309.587 285.515 309.821 286.571 310.291 287.168C310.781 287.765 311.549 288.064 312.595 288.064ZM331.405 288.032C331.469 287.328 331.533 286.592 331.597 285.824C331.682 285.056 331.746 284.32 331.789 283.616C331.853 282.912 331.906 282.283 331.949 281.728C331.991 281.173 332.013 280.768 332.013 280.512C332.013 279.957 331.874 279.467 331.597 279.04C331.341 278.592 330.829 278.368 330.061 278.368C329.037 278.368 328.205 278.848 327.565 279.808C326.946 280.768 326.583 282.048 326.477 283.648C326.434 284.096 326.381 284.725 326.317 285.536C326.253 286.325 326.189 287.136 326.125 287.968C326.061 288.779 325.997 289.515 325.933 290.176C325.89 290.816 325.869 291.211 325.869 291.36C325.869 291.616 325.815 291.787 325.709 291.872C325.623 291.957 325.442 292 325.165 292H324.013C323.351 292 322.807 291.936 322.381 291.808C321.975 291.659 321.645 291.456 321.389 291.2C321.154 290.944 320.983 290.635 320.877 290.272C320.791 289.888 320.749 289.451 320.749 288.96C320.749 288.491 320.781 287.84 320.845 287.008C320.93 286.155 321.037 284.992 321.165 283.52C321.293 282.027 321.442 280.128 321.613 277.824C321.783 275.52 321.965 272.661 322.157 269.248C322.178 268.779 322.231 268.501 322.317 268.416C322.381 268.352 322.551 268.32 322.829 268.32H324.077C324.717 268.32 325.25 268.395 325.677 268.544C326.103 268.693 326.445 268.896 326.701 269.152C326.957 269.408 327.138 269.707 327.245 270.048C327.351 270.368 327.405 270.709 327.405 271.072C327.405 271.456 327.362 272.171 327.277 273.216C327.213 274.261 327.127 275.488 327.021 276.896C327.661 275.829 328.365 275.093 329.133 274.688C329.922 274.283 330.914 274.08 332.109 274.08C333.005 274.08 333.783 274.176 334.445 274.368C335.106 274.56 335.65 274.891 336.077 275.36C336.525 275.808 336.855 276.405 337.069 277.152C337.282 277.877 337.389 278.784 337.389 279.872C337.389 280.213 337.357 280.8 337.293 281.632C337.229 282.464 337.143 283.413 337.037 284.48C336.951 285.547 336.855 286.667 336.749 287.84C336.663 288.992 336.589 290.048 336.525 291.008C336.503 291.243 336.482 291.424 336.461 291.552C336.439 291.68 336.397 291.776 336.333 291.84C336.29 291.904 336.215 291.947 336.109 291.968C336.002 291.989 335.853 292 335.661 292H334.637C333.954 292 333.399 291.936 332.973 291.808C332.546 291.68 332.215 291.499 331.981 291.264C331.746 291.029 331.575 290.741 331.469 290.4C331.383 290.037 331.341 289.632 331.341 289.184C331.341 288.971 331.341 288.768 331.341 288.576C331.362 288.384 331.383 288.203 331.405 288.032ZM354.581 274.08C356.394 274.08 357.727 274.443 358.581 275.168C359.434 275.872 359.861 276.779 359.861 277.888C359.861 278.827 359.562 279.541 358.965 280.032C358.389 280.523 357.546 280.768 356.437 280.768C356.138 280.768 355.935 280.736 355.829 280.672C355.722 280.608 355.669 280.491 355.669 280.32C355.669 280.128 355.647 279.915 355.605 279.68C355.583 279.424 355.509 279.189 355.381 278.976C355.274 278.741 355.093 278.549 354.837 278.4C354.602 278.251 354.261 278.176 353.812 278.176C353.215 278.176 352.735 278.325 352.373 278.624C352.01 278.901 351.829 279.253 351.829 279.68C351.829 280.128 352.01 280.491 352.373 280.768C352.757 281.024 353.226 281.269 353.781 281.504C354.357 281.739 354.975 281.984 355.637 282.24C356.298 282.475 356.906 282.795 357.461 283.2C358.037 283.605 358.506 284.117 358.869 284.736C359.253 285.333 359.445 286.112 359.445 287.072C359.445 288.608 358.901 289.867 357.813 290.848C356.725 291.829 355.093 292.32 352.917 292.32C352.319 292.32 351.626 292.267 350.837 292.16C350.069 292.075 349.333 291.936 348.629 291.744C347.925 291.531 347.327 291.253 346.837 290.912C346.367 290.571 346.133 290.144 346.133 289.632C346.133 289.44 346.165 289.205 346.229 288.928C346.314 288.651 346.431 288.384 346.581 288.128C346.751 287.872 346.943 287.659 347.157 287.488C347.391 287.296 347.669 287.2 347.989 287.2C348.245 287.2 348.479 287.264 348.693 287.392C348.906 287.52 349.151 287.659 349.429 287.808C349.727 287.936 350.09 288.064 350.516 288.192C350.943 288.32 351.509 288.384 352.213 288.384C352.746 288.384 353.215 288.32 353.621 288.192C354.047 288.064 354.26 287.776 354.26 287.328C354.26 286.923 354.09 286.603 353.749 286.368C353.407 286.112 352.97 285.877 352.437 285.664C351.925 285.451 351.359 285.227 350.741 284.992C350.143 284.736 349.578 284.405 349.045 284C348.533 283.595 348.106 283.083 347.765 282.464C347.423 281.824 347.253 281.003 347.253 280C347.253 278.912 347.466 277.995 347.893 277.248C348.341 276.48 348.906 275.861 349.589 275.392C350.293 274.923 351.082 274.592 351.957 274.4C352.831 274.187 353.706 274.08 354.581 274.08ZM369.036 278.72C368.972 279.531 368.897 280.331 368.812 281.12C368.748 281.909 368.684 282.656 368.62 283.36C368.556 284.064 368.502 284.693 368.46 285.248C368.438 285.803 368.428 286.229 368.428 286.528C368.428 287.083 368.492 287.456 368.62 287.648C368.748 287.819 368.961 287.904 369.26 287.904C369.494 287.904 369.697 287.861 369.868 287.776C370.038 287.691 370.198 287.595 370.348 287.488C370.497 287.381 370.625 287.285 370.732 287.2C370.86 287.115 370.998 287.072 371.148 287.072C371.297 287.072 371.436 287.157 371.564 287.328C371.692 287.499 371.756 287.893 371.756 288.512C371.756 289.685 371.436 290.613 370.796 291.296C370.156 291.979 369.057 292.32 367.5 292.32C365.964 292.32 364.822 291.968 364.076 291.264C363.35 290.539 362.988 289.44 362.988 287.968C362.988 287.648 362.998 287.275 363.02 286.848C363.062 286.4 363.116 285.824 363.18 285.12C363.244 284.416 363.318 283.552 363.404 282.528C363.51 281.504 363.617 280.235 363.724 278.72H362.028C361.857 278.72 361.75 278.688 361.708 278.624C361.686 278.539 361.676 278.421 361.676 278.272L361.772 276.64C361.793 276.363 361.825 276.096 361.868 275.84C361.932 275.563 362.038 275.317 362.188 275.104C362.358 274.891 362.593 274.72 362.892 274.592C363.19 274.464 363.585 274.4 364.076 274.4C364.225 274.016 364.396 273.557 364.588 273.024C364.78 272.491 364.972 271.979 365.164 271.488C365.356 270.976 365.537 270.549 365.708 270.208C365.9 269.867 366.07 269.696 366.22 269.696H367.148C368.044 269.696 368.662 269.973 369.004 270.528C369.345 271.083 369.516 271.744 369.516 272.512C369.516 272.939 369.484 273.568 369.42 274.4H372.78C373.121 274.4 373.292 274.549 373.292 274.848L373.164 276.576C373.121 277.216 372.94 277.739 372.62 278.144C372.321 278.528 371.692 278.72 370.732 278.72H369.036ZM381.886 292.32C380.414 292.32 379.188 292.117 378.206 291.712C377.246 291.285 376.478 290.709 375.902 289.984C375.326 289.259 374.921 288.416 374.686 287.456C374.452 286.475 374.334 285.429 374.334 284.32C374.334 283.04 374.484 281.792 374.782 280.576C375.102 279.339 375.636 278.24 376.382 277.28C377.129 276.32 378.11 275.552 379.326 274.976C380.564 274.379 382.1 274.08 383.934 274.08C386.622 274.08 388.542 274.741 389.694 276.064C390.868 277.365 391.454 279.2 391.454 281.568C391.454 282.229 391.401 282.965 391.294 283.776C391.209 284.565 391.028 285.355 390.75 286.144C390.494 286.933 390.132 287.701 389.662 288.448C389.214 289.195 388.638 289.856 387.934 290.432C387.23 291.008 386.377 291.467 385.374 291.808C384.393 292.149 383.23 292.32 381.886 292.32ZM383.39 278.336C382.58 278.336 381.929 278.549 381.438 278.976C380.969 279.381 380.606 279.883 380.35 280.48C380.116 281.056 379.956 281.675 379.87 282.336C379.806 282.976 379.774 283.52 379.774 283.968C379.774 285.376 379.998 286.411 380.446 287.072C380.894 287.733 381.534 288.064 382.366 288.064C383.113 288.064 383.721 287.829 384.19 287.36C384.681 286.891 385.054 286.325 385.31 285.664C385.588 285.003 385.769 284.309 385.854 283.584C385.961 282.859 386.014 282.251 386.014 281.76C386.014 280.693 385.812 279.861 385.406 279.264C385.022 278.645 384.35 278.336 383.39 278.336ZM401.907 288.064C402.526 288.064 403.059 287.979 403.507 287.808C403.977 287.637 404.382 287.445 404.723 287.232C405.065 287.019 405.353 286.827 405.587 286.656C405.822 286.485 406.035 286.4 406.227 286.4C406.718 286.4 406.963 286.72 406.963 287.36C406.963 287.509 406.931 287.723 406.867 288C406.803 288.256 406.718 288.533 406.611 288.832C406.505 289.109 406.387 289.376 406.259 289.632C406.153 289.888 406.046 290.08 405.939 290.208C405.833 290.315 405.641 290.485 405.363 290.72C405.107 290.955 404.755 291.189 404.307 291.424C403.859 291.659 403.337 291.861 402.739 292.032C402.142 292.224 401.481 292.32 400.755 292.32C399.945 292.32 399.102 292.203 398.227 291.968C397.374 291.712 396.595 291.285 395.891 290.688C395.187 290.069 394.601 289.248 394.131 288.224C393.683 287.179 393.459 285.877 393.459 284.32C393.459 283.765 393.491 283.136 393.555 282.432C393.641 281.707 393.801 280.971 394.035 280.224C394.27 279.456 394.579 278.709 394.963 277.984C395.369 277.237 395.902 276.576 396.563 276C397.225 275.424 398.014 274.965 398.931 274.624C399.87 274.261 400.979 274.08 402.259 274.08C403.305 274.08 404.201 274.208 404.947 274.464C405.715 274.699 406.345 275.029 406.835 275.456C407.326 275.861 407.689 276.341 407.923 276.896C408.179 277.451 408.307 278.048 408.307 278.688C408.307 279.84 407.945 280.693 407.219 281.248C406.494 281.781 405.47 282.048 404.147 282.048C403.827 282.048 403.603 282.027 403.475 281.984C403.369 281.92 403.315 281.792 403.315 281.6C403.315 281.088 403.305 280.629 403.283 280.224C403.262 279.819 403.198 279.477 403.091 279.2C403.006 278.923 402.867 278.709 402.675 278.56C402.483 278.411 402.206 278.336 401.843 278.336C401.182 278.336 400.649 278.549 400.243 278.976C399.859 279.403 399.561 279.925 399.347 280.544C399.155 281.141 399.027 281.76 398.963 282.4C398.921 283.04 398.899 283.573 398.899 284C398.899 285.515 399.134 286.571 399.603 287.168C400.094 287.765 400.862 288.064 401.907 288.064ZM425.293 289.408C425.293 289.515 425.24 289.728 425.133 290.048C425.027 290.368 424.856 290.699 424.621 291.04C424.387 291.381 424.088 291.68 423.725 291.936C423.384 292.192 422.968 292.32 422.477 292.32C421.901 292.32 421.325 292.128 420.749 291.744C420.195 291.36 419.64 290.837 419.085 290.176C418.531 289.515 417.965 288.736 417.389 287.84C416.835 286.923 416.269 285.931 415.693 284.864C415.608 285.995 415.523 287.104 415.437 288.192C415.352 289.28 415.267 290.336 415.181 291.36C415.16 291.616 415.107 291.787 415.021 291.872C414.936 291.957 414.755 292 414.477 292H413.325C412.664 292 412.12 291.936 411.693 291.808C411.267 291.659 410.936 291.456 410.701 291.2C410.467 290.944 410.296 290.624 410.189 290.24C410.104 289.835 410.061 289.376 410.061 288.864C410.061 288.608 410.072 288.341 410.093 288.064C410.115 287.787 410.147 287.392 410.189 286.88C410.232 286.368 410.285 285.696 410.349 284.864C410.435 284.032 410.531 282.933 410.637 281.568C410.744 280.203 410.861 278.528 410.989 276.544C411.139 274.539 411.299 272.107 411.469 269.248C411.491 268.779 411.544 268.501 411.629 268.416C411.693 268.352 411.864 268.32 412.141 268.32H413.389C414.051 268.32 414.595 268.395 415.021 268.544C415.448 268.693 415.789 268.896 416.045 269.152C416.301 269.408 416.472 269.707 416.557 270.048C416.664 270.389 416.717 270.741 416.717 271.104C416.717 271.317 416.696 271.68 416.653 272.192C416.632 272.683 416.6 273.291 416.557 274.016C416.515 274.72 416.451 275.52 416.365 276.416C416.301 277.312 416.237 278.251 416.173 279.232L421.293 274.56C421.485 274.389 421.656 274.272 421.805 274.208C421.976 274.144 422.104 274.112 422.189 274.112C422.424 274.112 422.68 274.261 422.957 274.56C423.235 274.859 423.491 275.211 423.725 275.616C423.981 276 424.184 276.405 424.333 276.832C424.504 277.237 424.589 277.568 424.589 277.824C424.589 278.443 424.088 279.093 423.085 279.776C422.104 280.459 420.611 281.227 418.605 282.08C419.501 283.083 420.355 284 421.165 284.832C421.976 285.664 422.68 286.4 423.277 287.04C423.896 287.68 424.387 288.203 424.749 288.608C425.112 289.013 425.293 289.28 425.293 289.408Z" fill="#21CE99"/>
<path d="M132.5 168.75L95 205.5V100H132.5V168.75ZM195 145.75L175.375 129L157.5 145.5V50H195V145.75ZM257.5 125L220 162.5V0H257.5V125ZM292.625 122.625L270 100H332.5V162.5L310.125 140.125L220 229.5L176.625 191.75L129.375 237.5H95L175.875 158.25L220 195.5" fill="#21CE99"/>
</svg>
