<svg width="328" height="207" viewBox="0 0 328 207" fill="none" xmlns="http://www.w3.org/2000/svg">
<path d="M160.059 120.404V113.625H153.925V123.309C153.925 124.923 155.217 126.537 156.831 126.537C161.995 126.537 165.869 130.733 165.869 136.221C165.869 141.708 161.672 145.905 156.831 145.905C151.989 145.905 147.792 141.708 147.792 136.221C147.792 134.607 146.501 132.993 144.887 132.993C143.273 132.993 141.982 134.284 141.982 136.221C141.982 144.936 148.761 152.038 157.153 152.038C165.546 152.038 172.325 144.936 172.325 136.221C172.002 128.151 166.837 121.695 160.059 120.404" fill="#3E4347"/>
<path d="M308.223 25.8238H159.413L140.368 64.5595H308.223V54.8756H301.444L308.223 42.2865V25.8238ZM155.217 54.8756L162.641 39.3813L170.711 54.8756H155.217ZM169.742 35.5077H183.3L176.521 48.0968L169.742 35.5077V35.5077ZM181.686 54.8756L188.465 42.2865L195.243 54.8756H181.686ZM193.629 35.5077H207.187L200.408 48.0968L193.629 35.5077V35.5077ZM205.573 54.8756L212.352 42.2865L219.13 54.8756H205.573V54.8756ZM217.516 35.5077H231.074L224.295 48.0968L217.516 35.5077ZM229.46 54.8756L236.239 42.2865L243.017 54.8756H229.46ZM296.279 48.0968L289.5 35.5077H303.058L296.279 48.0968" fill="#3E4347"/>
<path d="M153.603 61.3315H160.059V93.6113H153.603V61.3315Z" fill="#3E4347"/>
<path d="M162.318 90.3833H151.666L140.691 103.295H172.97L162.318 90.3833Z" fill="#21CE99"/>
<path d="M140.691 103.295L151.666 116.207H162.318L172.97 103.295H140.691Z" fill="#097252"/>
<path d="M280.462 93.6113V103.295L252.056 93.6113H243.663V200.135H252.056V180.767L280.462 190.451L252.056 200.135H288.855V93.6113H280.462ZM280.462 180.767L252.056 171.083L280.462 161.399V180.767V180.767ZM252.056 161.399V142.031L280.462 151.715L252.056 161.399ZM280.462 142.031L252.056 132.347L280.462 122.663V142.031ZM252.056 122.663V103.295L280.462 112.979L252.056 122.663Z" fill="#097252"/>
<path d="M295.311 87.8009C295.311 92.6429 291.437 96.8393 286.918 96.8393H245.6C241.081 96.8393 237.207 92.6429 237.207 87.8009V15.4943C237.207 10.6523 241.081 6.45593 245.6 6.45593H287.241C291.437 6.45593 295.311 10.6523 295.311 15.4943V87.8009Z" fill="#21CE99"/>
<path d="M246.568 49.0652C246.568 52.2932 248.828 54.8756 251.41 54.8756H280.462C283.044 54.8756 285.304 52.2932 285.304 49.0652V21.9503C285.304 18.7223 283.044 16.1399 280.462 16.1399H251.41C248.828 16.1399 246.568 18.7223 246.568 21.9503V49.0652Z" fill="#097252"/>
<path d="M285.304 80.6994C285.304 84.2502 282.722 87.1554 279.816 87.1554H252.056C249.151 87.1554 246.568 84.2502 246.568 80.6994V67.7875C246.568 64.2367 249.151 61.3315 252.056 61.3315H279.816C282.722 61.3315 285.304 64.2367 285.304 67.7875V80.6994Z" fill="#097252"/>
<path d="M12.96 50.928C14.5173 50.928 15.8507 51.152 16.96 51.6C18.0693 52.0267 18.976 52.6667 19.68 53.52C20.384 54.352 20.896 55.376 21.216 56.592C21.536 57.7867 21.696 59.152 21.696 60.688C21.696 61.5413 21.632 62.4693 21.504 63.472C21.3973 64.4747 21.184 65.488 20.864 66.512C20.5653 67.5147 20.1493 68.4853 19.616 69.424C19.0827 70.3627 18.3893 71.1947 17.536 71.92C16.704 72.6453 15.7013 73.232 14.528 73.68C13.3547 74.1067 11.968 74.32 10.368 74.32C8.59733 74.32 7.12533 74.0533 5.952 73.52C4.8 72.9867 3.872 72.272 3.168 71.376C2.48533 70.4587 1.99467 69.3813 1.696 68.144C1.41867 66.9067 1.28 65.584 1.28 64.176C1.28 62.512 1.472 60.8907 1.856 59.312C2.24 57.712 2.88 56.2933 3.776 55.056C4.69333 53.8187 5.89867 52.8267 7.392 52.08C8.88533 51.312 10.7413 50.928 12.96 50.928ZM12.288 55.888C11.5413 55.888 10.8907 56.0267 10.336 56.304C9.80267 56.56 9.344 56.912 8.96 57.36C8.59733 57.808 8.29867 58.3093 8.064 58.864C7.85067 59.4187 7.68 59.9947 7.552 60.592C7.424 61.168 7.33867 61.7333 7.296 62.288C7.25333 62.8213 7.232 63.3013 7.232 63.728C7.232 65.6693 7.552 67.088 8.192 67.984C8.85333 68.88 9.78133 69.328 10.976 69.328C11.9573 69.328 12.7573 69.0187 13.376 68.4C13.9947 67.76 14.4747 67.0027 14.816 66.128C15.1787 65.232 15.424 64.3147 15.552 63.376C15.68 62.416 15.744 61.6053 15.744 60.944C15.744 59.3867 15.4773 58.16 14.944 57.264C14.4107 56.3467 13.5253 55.888 12.288 55.888ZM35.134 56.08C37.1393 56.08 38.6433 56.6987 39.646 57.936C40.67 59.1733 41.182 61.1253 41.182 63.792C41.182 65.456 40.99 66.9387 40.606 68.24C40.222 69.5413 39.6887 70.6507 39.006 71.568C38.3233 72.464 37.5233 73.1467 36.606 73.616C35.6887 74.0853 34.6967 74.32 33.63 74.32C32.4993 74.32 31.614 74.0747 30.974 73.584C30.334 73.0933 29.8327 72.4 29.47 71.504C29.406 72.272 29.3527 72.8587 29.31 73.264C29.2673 73.6693 29.2353 73.9893 29.214 74.224C29.1927 74.48 29.1713 74.704 29.15 74.896C29.15 75.088 29.1287 75.344 29.086 75.664C29.0647 75.984 29.0327 76.4213 28.99 76.976C28.9473 77.5307 28.8833 78.2987 28.798 79.28C28.7767 79.536 28.7233 79.7067 28.638 79.792C28.5527 79.8773 28.3713 79.92 28.094 79.92H26.942C26.2807 79.92 25.7367 79.8453 25.31 79.696C24.9047 79.568 24.574 79.376 24.318 79.12C24.0833 78.864 23.9127 78.544 23.806 78.16C23.7207 77.7973 23.678 77.3707 23.678 76.88C23.678 76.6667 23.71 76.0907 23.774 75.152C23.838 74.2133 23.9127 73.0933 23.998 71.792C24.1047 70.4693 24.2113 69.0507 24.318 67.536C24.446 66.0213 24.5633 64.5813 24.67 63.216C24.7767 61.8293 24.862 60.6027 24.926 59.536C25.0113 58.4693 25.0753 57.7333 25.118 57.328C25.1393 56.8587 25.1927 56.5813 25.278 56.496C25.342 56.432 25.5127 56.4 25.79 56.4H27.038C28.19 56.4 29.022 56.6453 29.534 57.136C30.0673 57.6053 30.334 58.1707 30.334 58.832C30.8247 57.8507 31.454 57.1467 32.222 56.72C33.0113 56.2933 33.982 56.08 35.134 56.08ZM32.798 60.336C31.71 60.336 30.91 60.8053 30.398 61.744C29.886 62.6827 29.63 63.9627 29.63 65.584C29.63 66.1387 29.662 66.6827 29.726 67.216C29.8113 67.7493 29.95 68.2293 30.142 68.656C30.334 69.0827 30.59 69.424 30.91 69.68C31.2513 69.936 31.678 70.064 32.19 70.064C33.1073 70.064 33.8753 69.616 34.494 68.72C35.1127 67.824 35.422 66.416 35.422 64.496C35.422 63.9627 35.3793 63.4507 35.294 62.96C35.23 62.448 35.102 62 34.91 61.616C34.718 61.232 34.4513 60.9227 34.11 60.688C33.7687 60.4533 33.3313 60.336 32.798 60.336ZM54.7278 56.08C56.7331 56.08 58.2371 56.6987 59.2397 57.936C60.2638 59.1733 60.7758 61.1253 60.7758 63.792C60.7758 65.456 60.5838 66.9387 60.1998 68.24C59.8158 69.5413 59.2824 70.6507 58.5998 71.568C57.9171 72.464 57.1171 73.1467 56.1998 73.616C55.2824 74.0853 54.2904 74.32 53.2238 74.32C52.0931 74.32 51.2078 74.0747 50.5677 73.584C49.9278 73.0933 49.4264 72.4 49.0638 71.504C48.9998 72.272 48.9464 72.8587 48.9038 73.264C48.8611 73.6693 48.8291 73.9893 48.8078 74.224C48.7864 74.48 48.7651 74.704 48.7438 74.896C48.7438 75.088 48.7224 75.344 48.6798 75.664C48.6584 75.984 48.6264 76.4213 48.5838 76.976C48.5411 77.5307 48.4771 78.2987 48.3918 79.28C48.3704 79.536 48.3171 79.7067 48.2318 79.792C48.1464 79.8773 47.9651 79.92 47.6878 79.92H46.5358C45.8744 79.92 45.3304 79.8453 44.9038 79.696C44.4984 79.568 44.1678 79.376 43.9118 79.12C43.6771 78.864 43.5064 78.544 43.3997 78.16C43.3144 77.7973 43.2718 77.3707 43.2718 76.88C43.2718 76.6667 43.3038 76.0907 43.3678 75.152C43.4318 74.2133 43.5064 73.0933 43.5918 71.792C43.6984 70.4693 43.8051 69.0507 43.9118 67.536C44.0398 66.0213 44.1571 64.5813 44.2638 63.216C44.3704 61.8293 44.4558 60.6027 44.5198 59.536C44.6051 58.4693 44.6691 57.7333 44.7118 57.328C44.7331 56.8587 44.7864 56.5813 44.8718 56.496C44.9358 56.432 45.1064 56.4 45.3838 56.4H46.6318C47.7838 56.4 48.6158 56.6453 49.1278 57.136C49.6611 57.6053 49.9278 58.1707 49.9278 58.832C50.4184 57.8507 51.0478 57.1467 51.8158 56.72C52.6051 56.2933 53.5758 56.08 54.7278 56.08ZM52.3918 60.336C51.3038 60.336 50.5038 60.8053 49.9918 61.744C49.4798 62.6827 49.2238 63.9627 49.2238 65.584C49.2238 66.1387 49.2558 66.6827 49.3198 67.216C49.4051 67.7493 49.5438 68.2293 49.7358 68.656C49.9278 69.0827 50.1838 69.424 50.5038 69.68C50.8451 69.936 51.2718 70.064 51.7838 70.064C52.7011 70.064 53.4691 69.616 54.0878 68.72C54.7064 67.824 55.0158 66.416 55.0158 64.496C55.0158 63.9627 54.9731 63.4507 54.8878 62.96C54.8238 62.448 54.6958 62 54.5038 61.616C54.3118 61.232 54.0451 60.9227 53.7038 60.688C53.3624 60.4533 52.9251 60.336 52.3918 60.336ZM70.7055 56.08C72.5188 56.08 73.8522 56.4427 74.7055 57.168C75.5588 57.872 75.9855 58.7787 75.9855 59.888C75.9855 60.8267 75.6868 61.5413 75.0895 62.032C74.5135 62.5227 73.6708 62.768 72.5615 62.768C72.2628 62.768 72.0602 62.736 71.9535 62.672C71.8468 62.608 71.7935 62.4907 71.7935 62.32C71.7935 62.128 71.7722 61.9147 71.7295 61.68C71.7082 61.424 71.6335 61.1893 71.5055 60.976C71.3988 60.7413 71.2175 60.5493 70.9615 60.4C70.7268 60.2507 70.3855 60.176 69.9375 60.176C69.3402 60.176 68.8602 60.3253 68.4975 60.624C68.1348 60.9013 67.9535 61.2533 67.9535 61.68C67.9535 62.128 68.1348 62.4907 68.4975 62.768C68.8815 63.024 69.3508 63.2693 69.9055 63.504C70.4815 63.7387 71.1002 63.984 71.7615 64.24C72.4228 64.4747 73.0308 64.7947 73.5855 65.2C74.1615 65.6053 74.6308 66.1173 74.9935 66.736C75.3775 67.3333 75.5695 68.112 75.5695 69.072C75.5695 70.608 75.0255 71.8667 73.9375 72.848C72.8495 73.8293 71.2175 74.32 69.0415 74.32C68.4442 74.32 67.7508 74.2667 66.9615 74.16C66.1935 74.0747 65.4575 73.936 64.7535 73.744C64.0495 73.5307 63.4522 73.2533 62.9615 72.912C62.4922 72.5707 62.2575 72.144 62.2575 71.632C62.2575 71.44 62.2895 71.2053 62.3535 70.928C62.4388 70.6507 62.5562 70.384 62.7055 70.128C62.8762 69.872 63.0682 69.6587 63.2815 69.488C63.5162 69.296 63.7935 69.2 64.1135 69.2C64.3695 69.2 64.6042 69.264 64.8175 69.392C65.0308 69.52 65.2762 69.6587 65.5535 69.808C65.8522 69.936 66.2148 70.064 66.6415 70.192C67.0682 70.32 67.6335 70.384 68.3375 70.384C68.8708 70.384 69.3402 70.32 69.7455 70.192C70.1722 70.064 70.3855 69.776 70.3855 69.328C70.3855 68.9227 70.2148 68.6027 69.8735 68.368C69.5322 68.112 69.0948 67.8773 68.5615 67.664C68.0495 67.4507 67.4842 67.2267 66.8655 66.992C66.2682 66.736 65.7028 66.4053 65.1695 66C64.6575 65.5947 64.2308 65.0827 63.8895 64.464C63.5482 63.824 63.3775 63.0027 63.3775 62C63.3775 60.912 63.5908 59.9947 64.0175 59.248C64.4655 58.48 65.0308 57.8613 65.7135 57.392C66.4175 56.9227 67.2068 56.592 68.0815 56.4C68.9562 56.1867 69.8308 56.08 70.7055 56.08ZM80.8088 68.304C81.7048 68.304 82.3448 68.528 82.7288 68.976C83.1128 69.4027 83.3048 70.0107 83.3048 70.8C83.3048 71.12 83.2621 71.4933 83.1768 71.92C83.0914 72.3253 82.9314 72.7093 82.6968 73.072C82.4834 73.4133 82.1741 73.712 81.7688 73.968C81.3634 74.2027 80.8301 74.32 80.1688 74.32C79.1874 74.32 78.5261 74.0747 78.1848 73.584C77.8434 73.072 77.6728 72.4427 77.6728 71.696C77.6728 71.2693 77.7261 70.8533 77.8328 70.448C77.9394 70.0427 78.1101 69.68 78.3448 69.36C78.5794 69.04 78.8994 68.784 79.3048 68.592C79.7101 68.4 80.2114 68.304 80.8088 68.304ZM88.84 68.304C89.736 68.304 90.376 68.528 90.76 68.976C91.144 69.4027 91.336 70.0107 91.336 70.8C91.336 71.12 91.2933 71.4933 91.208 71.92C91.1227 72.3253 90.9627 72.7093 90.728 73.072C90.5147 73.4133 90.2053 73.712 89.8 73.968C89.3947 74.2027 88.8613 74.32 88.2 74.32C87.2187 74.32 86.5573 74.0747 86.216 73.584C85.8747 73.072 85.704 72.4427 85.704 71.696C85.704 71.2693 85.7573 70.8533 85.864 70.448C85.9707 70.0427 86.1413 69.68 86.376 69.36C86.6107 69.04 86.9307 68.784 87.336 68.592C87.7413 68.4 88.2427 68.304 88.84 68.304ZM96.8713 68.304C97.7673 68.304 98.4073 68.528 98.7913 68.976C99.1753 69.4027 99.3673 70.0107 99.3673 70.8C99.3673 71.12 99.3246 71.4933 99.2393 71.92C99.1539 72.3253 98.9939 72.7093 98.7593 73.072C98.5459 73.4133 98.2366 73.712 97.8313 73.968C97.4259 74.2027 96.8926 74.32 96.2313 74.32C95.2499 74.32 94.5886 74.0747 94.2473 73.584C93.9059 73.072 93.7353 72.4427 93.7353 71.696C93.7353 71.2693 93.7886 70.8533 93.8953 70.448C94.0019 70.0427 94.1726 69.68 94.4073 69.36C94.6419 69.04 94.9619 68.784 95.3673 68.592C95.7726 68.4 96.2739 68.304 96.8713 68.304ZM104.903 68.304C105.799 68.304 106.439 68.528 106.823 68.976C107.207 69.4027 107.399 70.0107 107.399 70.8C107.399 71.12 107.356 71.4933 107.271 71.92C107.185 72.3253 107.025 72.7093 106.791 73.072C106.577 73.4133 106.268 73.712 105.863 73.968C105.457 74.2027 104.924 74.32 104.263 74.32C103.281 74.32 102.62 74.0747 102.279 73.584C101.937 73.072 101.767 72.4427 101.767 71.696C101.767 71.2693 101.82 70.8533 101.927 70.448C102.033 70.0427 102.204 69.68 102.439 69.36C102.673 69.04 102.993 68.784 103.399 68.592C103.804 68.4 104.305 68.304 104.903 68.304ZM18.0313 93.76L16.8153 111.52C16.7939 111.84 16.6766 112 16.4633 112H14.7033C13.5086 112 12.6553 111.765 12.1433 111.296C11.6313 110.827 11.3753 110.155 11.3753 109.28C11.3753 108.96 11.3859 108.48 11.4073 107.84C11.4499 107.2 11.5033 106.453 11.5673 105.6C11.6313 104.725 11.6953 103.787 11.7593 102.784C11.8446 101.76 11.9299 100.736 12.0153 99.712C12.1006 98.6667 12.1753 97.632 12.2393 96.608C12.3246 95.584 12.3993 94.6347 12.4633 93.76H7.34325C7.10858 93.76 6.99125 93.6107 6.99125 93.312L7.08725 91.52C7.10858 91.2427 7.15125 90.976 7.21525 90.72C7.30058 90.4427 7.42858 90.1973 7.59925 89.984C7.76992 89.7707 7.98325 89.6 8.23925 89.472C8.51658 89.344 8.84725 89.28 9.23125 89.28H23.5353C23.6633 89.28 23.7806 89.312 23.8873 89.376C23.9939 89.44 24.0473 89.5573 24.0473 89.728L23.9193 91.616C23.8766 92.256 23.6953 92.7787 23.3753 93.184C23.0766 93.568 22.4473 93.76 21.4873 93.76H18.0313ZM35.3735 108.032C35.4375 107.328 35.5015 106.592 35.5655 105.824C35.6508 105.056 35.7148 104.32 35.7575 103.616C35.8215 102.912 35.8748 102.283 35.9175 101.728C35.9602 101.173 35.9815 100.768 35.9815 100.512C35.9815 99.9573 35.8428 99.4667 35.5655 99.04C35.3095 98.592 34.7975 98.368 34.0295 98.368C33.0055 98.368 32.1735 98.848 31.5335 99.808C30.9148 100.768 30.5522 102.048 30.4455 103.648C30.4028 104.096 30.3495 104.725 30.2855 105.536C30.2215 106.325 30.1575 107.136 30.0935 107.968C30.0295 108.779 29.9655 109.515 29.9015 110.176C29.8588 110.816 29.8375 111.211 29.8375 111.36C29.8375 111.616 29.7842 111.787 29.6775 111.872C29.5922 111.957 29.4108 112 29.1335 112H27.9815C27.3202 112 26.7762 111.936 26.3495 111.808C25.9442 111.659 25.6135 111.456 25.3575 111.2C25.1228 110.944 24.9522 110.635 24.8455 110.272C24.7602 109.888 24.7175 109.451 24.7175 108.96C24.7175 108.491 24.7495 107.84 24.8135 107.008C24.8988 106.155 25.0055 104.992 25.1335 103.52C25.2615 102.027 25.4108 100.128 25.5815 97.824C25.7522 95.52 25.9335 92.6613 26.1255 89.248C26.1468 88.7787 26.2002 88.5013 26.2855 88.416C26.3495 88.352 26.5202 88.32 26.7975 88.32H28.0455C28.6855 88.32 29.2188 88.3947 29.6455 88.544C30.0722 88.6933 30.4135 88.896 30.6695 89.152C30.9255 89.408 31.1068 89.7067 31.2135 90.048C31.3202 90.368 31.3735 90.7093 31.3735 91.072C31.3735 91.456 31.3308 92.1707 31.2455 93.216C31.1815 94.2613 31.0962 95.488 30.9895 96.896C31.6295 95.8293 32.3335 95.0933 33.1015 94.688C33.8908 94.2827 34.8828 94.08 36.0775 94.08C36.9735 94.08 37.7522 94.176 38.4135 94.368C39.0748 94.56 39.6188 94.8907 40.0455 95.36C40.4935 95.808 40.8242 96.4053 41.0375 97.152C41.2508 97.8773 41.3575 98.784 41.3575 99.872C41.3575 100.213 41.3255 100.8 41.2615 101.632C41.1975 102.464 41.1122 103.413 41.0055 104.48C40.9202 105.547 40.8242 106.667 40.7175 107.84C40.6322 108.992 40.5575 110.048 40.4935 111.008C40.4722 111.243 40.4508 111.424 40.4295 111.552C40.4082 111.68 40.3655 111.776 40.3015 111.84C40.2588 111.904 40.1842 111.947 40.0775 111.968C39.9708 111.989 39.8215 112 39.6295 112H38.6055C37.9228 112 37.3682 111.936 36.9415 111.808C36.5148 111.68 36.1842 111.499 35.9495 111.264C35.7148 111.029 35.5442 110.741 35.4375 110.4C35.3522 110.037 35.3095 109.632 35.3095 109.184C35.3095 108.971 35.3095 108.768 35.3095 108.576C35.3308 108.384 35.3522 108.203 35.3735 108.032ZM51.6103 112.32C50.6716 112.32 49.7329 112.203 48.7943 111.968C47.8769 111.733 47.0449 111.328 46.2983 110.752C45.5729 110.176 44.9756 109.408 44.5063 108.448C44.0369 107.488 43.8023 106.283 43.8023 104.832C43.8023 104.299 43.8449 103.659 43.9303 102.912C44.0156 102.165 44.1756 101.397 44.4103 100.608C44.6663 99.8187 45.0076 99.04 45.4343 98.272C45.8823 97.4827 46.4583 96.7787 47.1623 96.16C47.8663 95.5413 48.7196 95.04 49.7223 94.656C50.7249 94.272 51.9196 94.08 53.3063 94.08C54.4156 94.08 55.3543 94.208 56.1223 94.464C56.8903 94.72 57.5089 95.072 57.9783 95.52C58.4476 95.9467 58.7889 96.448 59.0023 97.024C59.2156 97.6 59.3223 98.2187 59.3223 98.88C59.3223 99.8613 59.1196 100.693 58.7143 101.376C58.3303 102.059 57.8183 102.635 57.1783 103.104C56.5596 103.552 55.8663 103.904 55.0983 104.16C54.3303 104.416 53.5729 104.619 52.8263 104.768C52.0796 104.896 51.3863 104.981 50.7463 105.024C50.1276 105.045 49.6476 105.056 49.3063 105.056C49.3063 105.461 49.3596 105.867 49.4663 106.272C49.5943 106.656 49.7756 106.997 50.0103 107.296C50.2449 107.595 50.5543 107.84 50.9383 108.032C51.3223 108.224 51.7916 108.32 52.3463 108.32C52.9009 108.32 53.3276 108.235 53.6263 108.064C53.9463 107.872 54.2023 107.669 54.3943 107.456C54.5863 107.221 54.7463 107.019 54.8743 106.848C55.0236 106.656 55.2156 106.56 55.4503 106.56C55.5569 106.56 55.7383 106.592 55.9943 106.656C56.2716 106.699 56.5489 106.805 56.8263 106.976C57.1036 107.147 57.3489 107.381 57.5623 107.68C57.7756 107.979 57.8823 108.363 57.8823 108.832C57.8823 109.451 57.6903 109.984 57.3063 110.432C56.9223 110.88 56.4209 111.243 55.8023 111.52C55.2049 111.797 54.5329 112 53.7863 112.128C53.0396 112.256 52.3143 112.32 51.6103 112.32ZM52.2183 98.336C51.7489 98.336 51.3436 98.4747 51.0023 98.752C50.6823 99.008 50.4049 99.3387 50.1703 99.744C49.9569 100.149 49.7863 100.597 49.6583 101.088C49.5516 101.579 49.4663 102.048 49.4023 102.496C50.7249 102.475 51.7916 102.251 52.6023 101.824C53.4343 101.397 53.8503 100.789 53.8503 100C53.8503 99.5733 53.7116 99.1893 53.4343 98.848C53.1783 98.5067 52.7729 98.336 52.2183 98.336ZM71.5855 102.048C71.4575 102.048 71.3082 102.048 71.1375 102.048C70.9882 102.027 70.8388 102.005 70.6895 101.984C70.5402 101.941 70.4122 101.899 70.3055 101.856C70.1988 101.792 70.1455 101.717 70.1455 101.632C70.1455 101.355 70.1562 101.099 70.1775 100.864C70.1988 100.629 70.2095 100.384 70.2095 100.128C70.2095 99.6587 70.1455 99.2747 70.0175 98.976C69.8895 98.6773 69.6335 98.528 69.2495 98.528C68.6522 98.528 68.1508 98.9227 67.7455 99.712C67.3615 100.48 67.1162 101.643 67.0095 103.2C66.9668 103.883 66.9028 104.661 66.8175 105.536C66.7535 106.389 66.6895 107.221 66.6255 108.032C66.5615 108.821 66.5082 109.525 66.4655 110.144C66.4228 110.763 66.4015 111.168 66.4015 111.36C66.4015 111.573 66.3268 111.733 66.1775 111.84C66.0282 111.947 65.8682 112 65.6975 112H64.5455C63.8842 112 63.3402 111.936 62.9135 111.808C62.5082 111.659 62.1775 111.456 61.9215 111.2C61.6868 110.944 61.5162 110.635 61.4095 110.272C61.3242 109.888 61.2815 109.451 61.2815 108.96C61.2815 108.64 61.2922 108.192 61.3135 107.616C61.3562 107.019 61.4202 106.208 61.5055 105.184C61.5908 104.139 61.6868 102.827 61.7935 101.248C61.9215 99.648 62.0708 97.6747 62.2415 95.328C62.2842 94.7093 62.5082 94.4 62.9135 94.4H64.1615C64.7588 94.4 65.2602 94.464 65.6655 94.592C66.0708 94.72 66.4015 94.9013 66.6575 95.136C66.9135 95.3493 67.0948 95.6053 67.2015 95.904C67.3295 96.2027 67.4148 96.512 67.4575 96.832C67.7135 96.3413 68.0122 95.9253 68.3535 95.584C68.7162 95.2213 69.0895 94.9333 69.4735 94.72C69.8575 94.4853 70.2522 94.3253 70.6575 94.24C71.0628 94.1333 71.4362 94.08 71.7775 94.08C72.1828 94.08 72.5882 94.1547 72.9935 94.304C73.4202 94.4533 73.8042 94.6773 74.1455 94.976C74.4868 95.2747 74.7535 95.6587 74.9455 96.128C75.1588 96.5973 75.2655 97.152 75.2655 97.792C75.2655 98.368 75.1802 98.912 75.0095 99.424C74.8388 99.936 74.5935 100.395 74.2735 100.8C73.9535 101.184 73.5588 101.493 73.0895 101.728C72.6415 101.941 72.1402 102.048 71.5855 102.048ZM83.954 112.32C83.0153 112.32 82.0767 112.203 81.138 111.968C80.2207 111.733 79.3887 111.328 78.642 110.752C77.9167 110.176 77.3193 109.408 76.85 108.448C76.3807 107.488 76.146 106.283 76.146 104.832C76.146 104.299 76.1887 103.659 76.274 102.912C76.3593 102.165 76.5193 101.397 76.754 100.608C77.01 99.8187 77.3513 99.04 77.778 98.272C78.226 97.4827 78.802 96.7787 79.506 96.16C80.21 95.5413 81.0633 95.04 82.066 94.656C83.0687 94.272 84.2633 94.08 85.65 94.08C86.7593 94.08 87.698 94.208 88.466 94.464C89.234 94.72 89.8527 95.072 90.322 95.52C90.7913 95.9467 91.1327 96.448 91.346 97.024C91.5593 97.6 91.666 98.2187 91.666 98.88C91.666 99.8613 91.4633 100.693 91.058 101.376C90.674 102.059 90.162 102.635 89.522 103.104C88.9033 103.552 88.21 103.904 87.442 104.16C86.674 104.416 85.9167 104.619 85.17 104.768C84.4233 104.896 83.73 104.981 83.09 105.024C82.4713 105.045 81.9913 105.056 81.65 105.056C81.65 105.461 81.7033 105.867 81.81 106.272C81.938 106.656 82.1193 106.997 82.354 107.296C82.5887 107.595 82.898 107.84 83.282 108.032C83.666 108.224 84.1353 108.32 84.69 108.32C85.2447 108.32 85.6713 108.235 85.97 108.064C86.29 107.872 86.546 107.669 86.738 107.456C86.93 107.221 87.09 107.019 87.218 106.848C87.3673 106.656 87.5593 106.56 87.794 106.56C87.9007 106.56 88.082 106.592 88.338 106.656C88.6153 106.699 88.8927 106.805 89.17 106.976C89.4473 107.147 89.6927 107.381 89.906 107.68C90.1193 107.979 90.226 108.363 90.226 108.832C90.226 109.451 90.034 109.984 89.65 110.432C89.266 110.88 88.7647 111.243 88.146 111.52C87.5487 111.797 86.8767 112 86.13 112.128C85.3833 112.256 84.658 112.32 83.954 112.32ZM84.562 98.336C84.0927 98.336 83.6873 98.4747 83.346 98.752C83.026 99.008 82.7487 99.3387 82.514 99.744C82.3007 100.149 82.13 100.597 82.002 101.088C81.8953 101.579 81.81 102.048 81.746 102.496C83.0687 102.475 84.1353 102.251 84.946 101.824C85.778 101.397 86.194 100.789 86.194 100C86.194 99.5733 86.0553 99.1893 85.778 98.848C85.522 98.5067 85.1167 98.336 84.562 98.336ZM103.764 112C103.103 112 102.559 111.936 102.132 111.808C101.727 111.659 101.396 111.456 101.14 111.2C100.906 110.944 100.735 110.635 100.628 110.272C100.543 109.888 100.5 109.451 100.5 108.96C100.5 108.64 100.511 108.192 100.532 107.616C100.575 107.019 100.639 106.208 100.724 105.184C100.81 104.139 100.906 102.827 101.012 101.248C101.14 99.648 101.29 97.6747 101.46 95.328C101.482 94.8587 101.535 94.5813 101.62 94.496C101.684 94.432 101.855 94.4 102.132 94.4H103.38C104.042 94.4 104.575 94.464 104.98 94.592C105.407 94.72 105.738 94.912 105.972 95.168C106.228 95.424 106.399 95.7333 106.484 96.096C106.591 96.4587 106.644 96.864 106.644 97.312C106.644 97.632 106.623 98.112 106.58 98.752C106.538 99.392 106.474 100.267 106.388 101.376C106.324 102.464 106.228 103.829 106.1 105.472C105.972 107.093 105.812 109.056 105.62 111.36C105.599 111.616 105.546 111.787 105.46 111.872C105.375 111.957 105.194 112 104.916 112H103.764ZM101.492 90.624C101.492 89.7707 101.802 89.0987 102.42 88.608C103.039 88.1173 103.871 87.872 104.916 87.872C105.834 87.872 106.495 88.064 106.9 88.448C107.327 88.8107 107.54 89.3013 107.54 89.92C107.54 90.7093 107.242 91.3707 106.644 91.904C106.068 92.416 105.215 92.672 104.084 92.672C102.356 92.672 101.492 91.9893 101.492 90.624ZM116.924 94.08C118.738 94.08 120.071 94.4427 120.924 95.168C121.778 95.872 122.204 96.7787 122.204 97.888C122.204 98.8267 121.906 99.5413 121.308 100.032C120.732 100.523 119.89 100.768 118.78 100.768C118.482 100.768 118.279 100.736 118.172 100.672C118.066 100.608 118.012 100.491 118.012 100.32C118.012 100.128 117.991 99.9147 117.948 99.68C117.927 99.424 117.852 99.1893 117.724 98.976C117.618 98.7413 117.436 98.5493 117.18 98.4C116.946 98.2507 116.604 98.176 116.156 98.176C115.559 98.176 115.079 98.3253 114.716 98.624C114.354 98.9013 114.172 99.2533 114.172 99.68C114.172 100.128 114.354 100.491 114.716 100.768C115.1 101.024 115.57 101.269 116.124 101.504C116.7 101.739 117.319 101.984 117.98 102.24C118.642 102.475 119.25 102.795 119.804 103.2C120.38 103.605 120.85 104.117 121.212 104.736C121.596 105.333 121.788 106.112 121.788 107.072C121.788 108.608 121.244 109.867 120.156 110.848C119.068 111.829 117.436 112.32 115.26 112.32C114.663 112.32 113.97 112.267 113.18 112.16C112.412 112.075 111.676 111.936 110.972 111.744C110.268 111.531 109.671 111.253 109.18 110.912C108.711 110.571 108.476 110.144 108.476 109.632C108.476 109.44 108.508 109.205 108.572 108.928C108.658 108.651 108.775 108.384 108.924 108.128C109.095 107.872 109.287 107.659 109.5 107.488C109.735 107.296 110.012 107.2 110.332 107.2C110.588 107.2 110.823 107.264 111.036 107.392C111.25 107.52 111.495 107.659 111.772 107.808C112.071 107.936 112.434 108.064 112.86 108.192C113.287 108.32 113.852 108.384 114.556 108.384C115.09 108.384 115.559 108.32 115.964 108.192C116.391 108.064 116.604 107.776 116.604 107.328C116.604 106.923 116.434 106.603 116.092 106.368C115.751 106.112 115.314 105.877 114.78 105.664C114.268 105.451 113.703 105.227 113.084 104.992C112.487 104.736 111.922 104.405 111.388 104C110.876 103.595 110.45 103.083 110.108 102.464C109.767 101.824 109.596 101.003 109.596 100C109.596 98.912 109.81 97.9947 110.236 97.248C110.684 96.48 111.25 95.8613 111.932 95.392C112.636 94.9227 113.426 94.592 114.3 94.4C115.175 94.1867 116.05 94.08 116.924 94.08ZM12.224 147.184C12.224 146.715 12.256 146.107 12.32 145.36C12.4053 144.592 12.48 143.792 12.544 142.96C12.6293 142.107 12.704 141.285 12.768 140.496C12.8533 139.707 12.896 139.045 12.896 138.512C12.896 137.957 12.7573 137.467 12.48 137.04C12.224 136.592 11.712 136.368 10.944 136.368C10.1973 136.368 9.57867 136.549 9.088 136.912C8.59733 137.275 8.18133 137.936 7.84 138.896C7.52 139.856 7.25333 141.179 7.04 142.864C6.82667 144.549 6.624 146.715 6.432 149.36C6.41067 149.616 6.35733 149.787 6.272 149.872C6.18667 149.957 6.00533 150 5.728 150H4.576C3.91467 150 3.37067 149.936 2.944 149.808C2.53867 149.659 2.208 149.456 1.952 149.2C1.71733 148.944 1.54667 148.635 1.44 148.272C1.35467 147.888 1.312 147.451 1.312 146.96C1.312 146.64 1.32267 146.192 1.344 145.616C1.38667 145.019 1.45067 144.208 1.536 143.184C1.62133 142.139 1.71733 140.827 1.824 139.248C1.952 137.648 2.10133 135.675 2.272 133.328C2.29333 132.859 2.34667 132.581 2.432 132.496C2.496 132.432 2.66667 132.4 2.944 132.4H4.192C4.832 132.4 5.35467 132.475 5.76 132.624C6.18667 132.773 6.528 132.976 6.784 133.232C7.04 133.467 7.22133 133.755 7.328 134.096C7.43467 134.416 7.49867 134.747 7.52 135.088C8.18133 133.957 8.93867 133.179 9.792 132.752C10.6453 132.304 11.712 132.08 12.992 132.08C13.888 132.08 14.6667 132.176 15.328 132.368C15.9893 132.56 16.5333 132.891 16.96 133.36C17.408 133.808 17.7387 134.405 17.952 135.152C18.1653 135.877 18.272 136.784 18.272 137.872C18.272 138.213 18.2507 138.704 18.208 139.344C18.1653 139.984 18.112 140.688 18.048 141.456C17.984 142.203 17.9093 142.992 17.824 143.824C17.76 144.635 17.696 145.392 17.632 146.096C17.568 146.8 17.5147 147.419 17.472 147.952C17.4293 148.485 17.408 148.837 17.408 149.008C17.408 149.477 17.3547 149.765 17.248 149.872C17.1413 149.957 16.9067 150 16.544 150H15.52C14.8373 150 14.2827 149.936 13.856 149.808C13.4293 149.68 13.0987 149.499 12.864 149.264C12.6293 149.029 12.4587 148.741 12.352 148.4C12.2667 148.037 12.224 147.632 12.224 147.184ZM28.2925 150.32C26.8205 150.32 25.5938 150.117 24.6125 149.712C23.6525 149.285 22.8845 148.709 22.3085 147.984C21.7325 147.259 21.3272 146.416 21.0925 145.456C20.8578 144.475 20.7405 143.429 20.7405 142.32C20.7405 141.04 20.8898 139.792 21.1885 138.576C21.5085 137.339 22.0418 136.24 22.7885 135.28C23.5352 134.32 24.5165 133.552 25.7325 132.976C26.9698 132.379 28.5058 132.08 30.3405 132.08C33.0285 132.08 34.9485 132.741 36.1005 134.064C37.2738 135.365 37.8605 137.2 37.8605 139.568C37.8605 140.229 37.8072 140.965 37.7005 141.776C37.6152 142.565 37.4338 143.355 37.1565 144.144C36.9005 144.933 36.5378 145.701 36.0685 146.448C35.6205 147.195 35.0445 147.856 34.3405 148.432C33.6365 149.008 32.7832 149.467 31.7805 149.808C30.7992 150.149 29.6365 150.32 28.2925 150.32ZM29.7965 136.336C28.9858 136.336 28.3352 136.549 27.8445 136.976C27.3752 137.381 27.0125 137.883 26.7565 138.48C26.5218 139.056 26.3618 139.675 26.2765 140.336C26.2125 140.976 26.1805 141.52 26.1805 141.968C26.1805 143.376 26.4045 144.411 26.8525 145.072C27.3005 145.733 27.9405 146.064 28.7725 146.064C29.5192 146.064 30.1272 145.829 30.5965 145.36C31.0872 144.891 31.4605 144.325 31.7165 143.664C31.9938 143.003 32.1752 142.309 32.2605 141.584C32.3672 140.859 32.4205 140.251 32.4205 139.76C32.4205 138.693 32.2178 137.861 31.8125 137.264C31.4285 136.645 30.7565 136.336 29.7965 136.336ZM47.1295 136.72C47.0655 137.531 46.9908 138.331 46.9055 139.12C46.8415 139.909 46.7775 140.656 46.7135 141.36C46.6495 142.064 46.5962 142.693 46.5535 143.248C46.5322 143.803 46.5215 144.229 46.5215 144.528C46.5215 145.083 46.5855 145.456 46.7135 145.648C46.8415 145.819 47.0548 145.904 47.3535 145.904C47.5882 145.904 47.7908 145.861 47.9615 145.776C48.1322 145.691 48.2922 145.595 48.4415 145.488C48.5908 145.381 48.7188 145.285 48.8255 145.2C48.9535 145.115 49.0922 145.072 49.2415 145.072C49.3908 145.072 49.5295 145.157 49.6575 145.328C49.7855 145.499 49.8495 145.893 49.8495 146.512C49.8495 147.685 49.5295 148.613 48.8895 149.296C48.2495 149.979 47.1508 150.32 45.5935 150.32C44.0575 150.32 42.9162 149.968 42.1695 149.264C41.4442 148.539 41.0815 147.44 41.0815 145.968C41.0815 145.648 41.0922 145.275 41.1135 144.848C41.1562 144.4 41.2095 143.824 41.2735 143.12C41.3375 142.416 41.4122 141.552 41.4975 140.528C41.6042 139.504 41.7108 138.235 41.8175 136.72H40.1215C39.9508 136.72 39.8442 136.688 39.8015 136.624C39.7802 136.539 39.7695 136.421 39.7695 136.272L39.8655 134.64C39.8868 134.363 39.9188 134.096 39.9615 133.84C40.0255 133.563 40.1322 133.317 40.2815 133.104C40.4522 132.891 40.6868 132.72 40.9855 132.592C41.2842 132.464 41.6788 132.4 42.1695 132.4C42.3188 132.016 42.4895 131.557 42.6815 131.024C42.8735 130.491 43.0655 129.979 43.2575 129.488C43.4495 128.976 43.6308 128.549 43.8015 128.208C43.9935 127.867 44.1642 127.696 44.3135 127.696H45.2415C46.1375 127.696 46.7562 127.973 47.0975 128.528C47.4388 129.083 47.6095 129.744 47.6095 130.512C47.6095 130.939 47.5775 131.568 47.5135 132.4H50.8735C51.2148 132.4 51.3855 132.549 51.3855 132.848L51.2575 134.576C51.2148 135.216 51.0335 135.739 50.7135 136.144C50.4148 136.528 49.7855 136.72 48.8255 136.72H47.1295ZM63.6548 146.032C63.7188 145.328 63.7828 144.592 63.8468 143.824C63.9321 143.056 63.9961 142.32 64.0388 141.616C64.1028 140.912 64.1561 140.283 64.1988 139.728C64.2414 139.173 64.2628 138.768 64.2628 138.512C64.2628 137.957 64.1241 137.467 63.8468 137.04C63.5908 136.592 63.0788 136.368 62.3108 136.368C61.2868 136.368 60.4548 136.848 59.8148 137.808C59.1961 138.768 58.8334 140.048 58.7268 141.648C58.6841 142.096 58.6308 142.725 58.5668 143.536C58.5028 144.325 58.4388 145.136 58.3748 145.968C58.3108 146.779 58.2468 147.515 58.1828 148.176C58.1401 148.816 58.1188 149.211 58.1188 149.36C58.1188 149.616 58.0654 149.787 57.9588 149.872C57.8734 149.957 57.6921 150 57.4148 150H56.2628C55.6014 150 55.0574 149.936 54.6308 149.808C54.2254 149.659 53.8948 149.456 53.6388 149.2C53.4041 148.944 53.2334 148.635 53.1268 148.272C53.0414 147.888 52.9988 147.451 52.9988 146.96C52.9988 146.491 53.0308 145.84 53.0948 145.008C53.1801 144.155 53.2868 142.992 53.4148 141.52C53.5428 140.027 53.6921 138.128 53.8628 135.824C54.0334 133.52 54.2148 130.661 54.4068 127.248C54.4281 126.779 54.4814 126.501 54.5668 126.416C54.6308 126.352 54.8014 126.32 55.0788 126.32H56.3268C56.9668 126.32 57.5001 126.395 57.9268 126.544C58.3534 126.693 58.6948 126.896 58.9508 127.152C59.2068 127.408 59.3881 127.707 59.4948 128.048C59.6014 128.368 59.6548 128.709 59.6548 129.072C59.6548 129.456 59.6121 130.171 59.5268 131.216C59.4628 132.261 59.3774 133.488 59.2708 134.896C59.9108 133.829 60.6148 133.093 61.3828 132.688C62.1721 132.283 63.1641 132.08 64.3588 132.08C65.2548 132.08 66.0334 132.176 66.6948 132.368C67.3561 132.56 67.9001 132.891 68.3268 133.36C68.7748 133.808 69.1054 134.405 69.3188 135.152C69.5321 135.877 69.6388 136.784 69.6388 137.872C69.6388 138.213 69.6068 138.8 69.5428 139.632C69.4788 140.464 69.3934 141.413 69.2868 142.48C69.2014 143.547 69.1054 144.667 68.9988 145.84C68.9134 146.992 68.8388 148.048 68.7748 149.008C68.7534 149.243 68.7321 149.424 68.7108 149.552C68.6894 149.68 68.6468 149.776 68.5828 149.84C68.5401 149.904 68.4654 149.947 68.3588 149.968C68.2521 149.989 68.1028 150 67.9108 150H66.8868C66.2041 150 65.6494 149.936 65.2228 149.808C64.7961 149.68 64.4654 149.499 64.2308 149.264C63.9961 149.029 63.8254 148.741 63.7188 148.4C63.6334 148.037 63.5908 147.632 63.5908 147.184C63.5908 146.971 63.5908 146.768 63.5908 146.576C63.6121 146.384 63.6334 146.203 63.6548 146.032ZM75.7955 150C75.1342 150 74.5902 149.936 74.1635 149.808C73.7582 149.659 73.4275 149.456 73.1715 149.2C72.9368 148.944 72.7662 148.635 72.6595 148.272C72.5742 147.888 72.5315 147.451 72.5315 146.96C72.5315 146.64 72.5422 146.192 72.5635 145.616C72.6062 145.019 72.6702 144.208 72.7555 143.184C72.8408 142.139 72.9368 140.827 73.0435 139.248C73.1715 137.648 73.3208 135.675 73.4915 133.328C73.5128 132.859 73.5662 132.581 73.6515 132.496C73.7155 132.432 73.8862 132.4 74.1635 132.4H75.4115C76.0728 132.4 76.6062 132.464 77.0115 132.592C77.4382 132.72 77.7688 132.912 78.0035 133.168C78.2595 133.424 78.4302 133.733 78.5155 134.096C78.6222 134.459 78.6755 134.864 78.6755 135.312C78.6755 135.632 78.6542 136.112 78.6115 136.752C78.5688 137.392 78.5048 138.267 78.4195 139.376C78.3555 140.464 78.2595 141.829 78.1315 143.472C78.0035 145.093 77.8435 147.056 77.6515 149.36C77.6302 149.616 77.5768 149.787 77.4915 149.872C77.4062 149.957 77.2248 150 76.9475 150H75.7955ZM73.5235 128.624C73.5235 127.771 73.8328 127.099 74.4515 126.608C75.0702 126.117 75.9022 125.872 76.9475 125.872C77.8648 125.872 78.5262 126.064 78.9315 126.448C79.3582 126.811 79.5715 127.301 79.5715 127.92C79.5715 128.709 79.2728 129.371 78.6755 129.904C78.0995 130.416 77.2462 130.672 76.1155 130.672C74.3875 130.672 73.5235 129.989 73.5235 128.624ZM92.4115 147.184C92.4115 146.715 92.4435 146.107 92.5075 145.36C92.5928 144.592 92.6675 143.792 92.7315 142.96C92.8168 142.107 92.8915 141.285 92.9555 140.496C93.0408 139.707 93.0835 139.045 93.0835 138.512C93.0835 137.957 92.9448 137.467 92.6675 137.04C92.4115 136.592 91.8995 136.368 91.1315 136.368C90.3848 136.368 89.7662 136.549 89.2755 136.912C88.7848 137.275 88.3688 137.936 88.0275 138.896C87.7075 139.856 87.4408 141.179 87.2275 142.864C87.0142 144.549 86.8115 146.715 86.6195 149.36C86.5982 149.616 86.5448 149.787 86.4595 149.872C86.3742 149.957 86.1928 150 85.9155 150H84.7635C84.1022 150 83.5582 149.936 83.1315 149.808C82.7262 149.659 82.3955 149.456 82.1395 149.2C81.9048 148.944 81.7342 148.635 81.6275 148.272C81.5422 147.888 81.4995 147.451 81.4995 146.96C81.4995 146.64 81.5102 146.192 81.5315 145.616C81.5742 145.019 81.6382 144.208 81.7235 143.184C81.8088 142.139 81.9048 140.827 82.0115 139.248C82.1395 137.648 82.2888 135.675 82.4595 133.328C82.4808 132.859 82.5342 132.581 82.6195 132.496C82.6835 132.432 82.8542 132.4 83.1315 132.4H84.3795C85.0195 132.4 85.5422 132.475 85.9475 132.624C86.3742 132.773 86.7155 132.976 86.9715 133.232C87.2275 133.467 87.4088 133.755 87.5155 134.096C87.6222 134.416 87.6862 134.747 87.7075 135.088C88.3688 133.957 89.1262 133.179 89.9795 132.752C90.8328 132.304 91.8995 132.08 93.1795 132.08C94.0755 132.08 94.8542 132.176 95.5155 132.368C96.1768 132.56 96.7208 132.891 97.1475 133.36C97.5955 133.808 97.9262 134.405 98.1395 135.152C98.3528 135.877 98.4595 136.784 98.4595 137.872C98.4595 138.213 98.4382 138.704 98.3955 139.344C98.3528 139.984 98.2995 140.688 98.2355 141.456C98.1715 142.203 98.0968 142.992 98.0115 143.824C97.9475 144.635 97.8835 145.392 97.8195 146.096C97.7555 146.8 97.7022 147.419 97.6595 147.952C97.6168 148.485 97.5955 148.837 97.5955 149.008C97.5955 149.477 97.5422 149.765 97.4355 149.872C97.3288 149.957 97.0942 150 96.7315 150H95.7075C95.0248 150 94.4702 149.936 94.0435 149.808C93.6168 149.68 93.2862 149.499 93.0515 149.264C92.8168 149.029 92.6462 148.741 92.5395 148.4C92.4542 148.037 92.4115 147.632 92.4115 147.184ZM111.776 146.224C111.243 147.184 110.592 147.899 109.824 148.368C109.056 148.816 108.096 149.04 106.944 149.04C106.069 149.04 105.269 148.901 104.544 148.624C103.819 148.347 103.2 147.909 102.688 147.312C102.176 146.715 101.771 145.968 101.472 145.072C101.195 144.155 101.056 143.067 101.056 141.808C101.056 140.784 101.163 139.707 101.376 138.576C101.589 137.424 101.973 136.368 102.528 135.408C103.104 134.448 103.883 133.659 104.864 133.04C105.845 132.4 107.104 132.08 108.64 132.08C109.28 132.08 109.824 132.155 110.272 132.304C110.741 132.432 111.136 132.613 111.456 132.848C111.797 133.083 112.064 133.36 112.256 133.68C112.469 134 112.629 134.341 112.736 134.704C112.736 134.725 112.736 134.651 112.736 134.48C112.757 134.288 112.779 134.075 112.8 133.84C112.821 133.605 112.832 133.381 112.832 133.168C112.853 132.933 112.864 132.784 112.864 132.72C112.885 132.507 113.024 132.4 113.28 132.4H114.752C115.861 132.4 116.661 132.635 117.152 133.104C117.664 133.552 117.92 134.416 117.92 135.696C117.92 135.867 117.909 136.261 117.888 136.88C117.867 137.477 117.824 138.203 117.76 139.056C117.717 139.909 117.653 140.859 117.568 141.904C117.483 142.928 117.387 143.963 117.28 145.008C117.173 146.053 117.056 147.056 116.928 148.016C116.8 148.976 116.661 149.819 116.512 150.544C116.363 151.269 116.107 151.973 115.744 152.656C115.381 153.339 114.869 153.947 114.208 154.48C113.547 155.013 112.693 155.44 111.648 155.76C110.624 156.08 109.365 156.24 107.872 156.24C106.741 156.24 105.749 156.133 104.896 155.92C104.064 155.707 103.371 155.419 102.816 155.056C102.261 154.715 101.835 154.32 101.536 153.872C101.259 153.424 101.12 152.976 101.12 152.528C101.12 152.123 101.205 151.771 101.376 151.472C101.547 151.173 101.771 150.928 102.048 150.736C102.325 150.544 102.624 150.395 102.944 150.288C103.285 150.203 103.605 150.16 103.904 150.16C104.267 150.16 104.533 150.267 104.704 150.48C104.875 150.693 105.067 150.928 105.28 151.184C105.493 151.461 105.792 151.707 106.176 151.92C106.56 152.133 107.157 152.24 107.968 152.24C109.376 152.24 110.357 151.717 110.912 150.672C111.488 149.648 111.776 148.165 111.776 146.224ZM109.088 144.784C109.856 144.784 110.453 144.603 110.88 144.24C111.328 143.877 111.669 143.44 111.904 142.928C112.139 142.416 112.288 141.883 112.352 141.328C112.416 140.773 112.448 140.293 112.448 139.888C112.448 138.608 112.245 137.701 111.84 137.168C111.456 136.613 110.869 136.336 110.08 136.336C109.291 136.336 108.672 136.549 108.224 136.976C107.776 137.403 107.435 137.915 107.2 138.512C106.987 139.088 106.848 139.675 106.784 140.272C106.72 140.848 106.688 141.296 106.688 141.616C106.688 142.683 106.869 143.483 107.232 144.016C107.595 144.528 108.213 144.784 109.088 144.784ZM11.936 184.032C12 183.328 12.064 182.592 12.128 181.824C12.2133 181.056 12.2773 180.32 12.32 179.616C12.384 178.912 12.4373 178.283 12.48 177.728C12.5227 177.173 12.544 176.768 12.544 176.512C12.544 175.957 12.4053 175.467 12.128 175.04C11.872 174.592 11.36 174.368 10.592 174.368C9.568 174.368 8.736 174.848 8.096 175.808C7.47733 176.768 7.11467 178.048 7.008 179.648C6.96533 180.096 6.912 180.725 6.848 181.536C6.784 182.325 6.72 183.136 6.656 183.968C6.592 184.779 6.528 185.515 6.464 186.176C6.42133 186.816 6.4 187.211 6.4 187.36C6.4 187.616 6.34667 187.787 6.24 187.872C6.15467 187.957 5.97333 188 5.696 188H4.544C3.88267 188 3.33867 187.936 2.912 187.808C2.50667 187.659 2.176 187.456 1.92 187.2C1.68533 186.944 1.51467 186.635 1.408 186.272C1.32267 185.888 1.28 185.451 1.28 184.96C1.28 184.491 1.312 183.84 1.376 183.008C1.46133 182.155 1.568 180.992 1.696 179.52C1.824 178.027 1.97333 176.128 2.144 173.824C2.31467 171.52 2.496 168.661 2.688 165.248C2.70933 164.779 2.76267 164.501 2.848 164.416C2.912 164.352 3.08267 164.32 3.36 164.32H4.608C5.248 164.32 5.78133 164.395 6.208 164.544C6.63467 164.693 6.976 164.896 7.232 165.152C7.488 165.408 7.66933 165.707 7.776 166.048C7.88267 166.368 7.936 166.709 7.936 167.072C7.936 167.456 7.89333 168.171 7.808 169.216C7.744 170.261 7.65867 171.488 7.552 172.896C8.192 171.829 8.896 171.093 9.664 170.688C10.4533 170.283 11.4453 170.08 12.64 170.08C13.536 170.08 14.3147 170.176 14.976 170.368C15.6373 170.56 16.1813 170.891 16.608 171.36C17.056 171.808 17.3867 172.405 17.6 173.152C17.8133 173.877 17.92 174.784 17.92 175.872C17.92 176.213 17.888 176.8 17.824 177.632C17.76 178.464 17.6747 179.413 17.568 180.48C17.4827 181.547 17.3867 182.667 17.28 183.84C17.1947 184.992 17.12 186.048 17.056 187.008C17.0347 187.243 17.0133 187.424 16.992 187.552C16.9707 187.68 16.928 187.776 16.864 187.84C16.8213 187.904 16.7467 187.947 16.64 187.968C16.5333 187.989 16.384 188 16.192 188H15.168C14.4853 188 13.9307 187.936 13.504 187.808C13.0773 187.68 12.7467 187.499 12.512 187.264C12.2773 187.029 12.1067 186.741 12 186.4C11.9147 186.037 11.872 185.632 11.872 185.184C11.872 184.971 11.872 184.768 11.872 184.576C11.8933 184.384 11.9147 184.203 11.936 184.032ZM28.1728 188.32C27.2341 188.32 26.2954 188.203 25.3568 187.968C24.4394 187.733 23.6074 187.328 22.8608 186.752C22.1354 186.176 21.5381 185.408 21.0688 184.448C20.5994 183.488 20.3648 182.283 20.3648 180.832C20.3648 180.299 20.4074 179.659 20.4928 178.912C20.5781 178.165 20.7381 177.397 20.9728 176.608C21.2288 175.819 21.5701 175.04 21.9968 174.272C22.4448 173.483 23.0208 172.779 23.7248 172.16C24.4288 171.541 25.2821 171.04 26.2848 170.656C27.2874 170.272 28.4821 170.08 29.8688 170.08C30.9781 170.08 31.9168 170.208 32.6848 170.464C33.4528 170.72 34.0714 171.072 34.5408 171.52C35.0101 171.947 35.3514 172.448 35.5648 173.024C35.7781 173.6 35.8848 174.219 35.8848 174.88C35.8848 175.861 35.6821 176.693 35.2768 177.376C34.8928 178.059 34.3808 178.635 33.7408 179.104C33.1221 179.552 32.4288 179.904 31.6608 180.16C30.8928 180.416 30.1354 180.619 29.3888 180.768C28.6421 180.896 27.9488 180.981 27.3088 181.024C26.6901 181.045 26.2101 181.056 25.8688 181.056C25.8688 181.461 25.9221 181.867 26.0288 182.272C26.1568 182.656 26.3381 182.997 26.5728 183.296C26.8074 183.595 27.1168 183.84 27.5008 184.032C27.8848 184.224 28.3541 184.32 28.9088 184.32C29.4634 184.32 29.8901 184.235 30.1888 184.064C30.5088 183.872 30.7648 183.669 30.9568 183.456C31.1488 183.221 31.3088 183.019 31.4368 182.848C31.5861 182.656 31.7781 182.56 32.0128 182.56C32.1194 182.56 32.3008 182.592 32.5568 182.656C32.8341 182.699 33.1114 182.805 33.3888 182.976C33.6661 183.147 33.9114 183.381 34.1248 183.68C34.3381 183.979 34.4448 184.363 34.4448 184.832C34.4448 185.451 34.2528 185.984 33.8688 186.432C33.4848 186.88 32.9834 187.243 32.3648 187.52C31.7674 187.797 31.0954 188 30.3488 188.128C29.6021 188.256 28.8768 188.32 28.1728 188.32ZM28.7808 174.336C28.3114 174.336 27.9061 174.475 27.5648 174.752C27.2448 175.008 26.9674 175.339 26.7328 175.744C26.5194 176.149 26.3488 176.597 26.2208 177.088C26.1141 177.579 26.0288 178.048 25.9648 178.496C27.2874 178.475 28.3541 178.251 29.1648 177.824C29.9968 177.397 30.4128 176.789 30.4128 176C30.4128 175.573 30.2741 175.189 29.9968 174.848C29.7408 174.507 29.3354 174.336 28.7808 174.336ZM48.148 178.048C48.02 178.048 47.8707 178.048 47.7 178.048C47.5507 178.027 47.4013 178.005 47.252 177.984C47.1027 177.941 46.9747 177.899 46.868 177.856C46.7613 177.792 46.708 177.717 46.708 177.632C46.708 177.355 46.7187 177.099 46.74 176.864C46.7613 176.629 46.772 176.384 46.772 176.128C46.772 175.659 46.708 175.275 46.58 174.976C46.452 174.677 46.196 174.528 45.812 174.528C45.2147 174.528 44.7133 174.923 44.308 175.712C43.924 176.48 43.6787 177.643 43.572 179.2C43.5293 179.883 43.4653 180.661 43.38 181.536C43.316 182.389 43.252 183.221 43.188 184.032C43.124 184.821 43.0707 185.525 43.028 186.144C42.9853 186.763 42.964 187.168 42.964 187.36C42.964 187.573 42.8893 187.733 42.74 187.84C42.5907 187.947 42.4307 188 42.26 188H41.108C40.4467 188 39.9027 187.936 39.476 187.808C39.0707 187.659 38.74 187.456 38.484 187.2C38.2493 186.944 38.0787 186.635 37.972 186.272C37.8867 185.888 37.844 185.451 37.844 184.96C37.844 184.64 37.8547 184.192 37.876 183.616C37.9187 183.019 37.9827 182.208 38.068 181.184C38.1533 180.139 38.2493 178.827 38.356 177.248C38.484 175.648 38.6333 173.675 38.804 171.328C38.8467 170.709 39.0707 170.4 39.476 170.4H40.724C41.3213 170.4 41.8227 170.464 42.228 170.592C42.6333 170.72 42.964 170.901 43.22 171.136C43.476 171.349 43.6573 171.605 43.764 171.904C43.892 172.203 43.9773 172.512 44.02 172.832C44.276 172.341 44.5747 171.925 44.916 171.584C45.2787 171.221 45.652 170.933 46.036 170.72C46.42 170.485 46.8147 170.325 47.22 170.24C47.6253 170.133 47.9987 170.08 48.34 170.08C48.7453 170.08 49.1507 170.155 49.556 170.304C49.9827 170.453 50.3667 170.677 50.708 170.976C51.0493 171.275 51.316 171.659 51.508 172.128C51.7213 172.597 51.828 173.152 51.828 173.792C51.828 174.368 51.7427 174.912 51.572 175.424C51.4013 175.936 51.156 176.395 50.836 176.8C50.516 177.184 50.1213 177.493 49.652 177.728C49.204 177.941 48.7027 178.048 48.148 178.048ZM60.5165 188.32C59.5778 188.32 58.6392 188.203 57.7005 187.968C56.7832 187.733 55.9512 187.328 55.2045 186.752C54.4792 186.176 53.8818 185.408 53.4125 184.448C52.9432 183.488 52.7085 182.283 52.7085 180.832C52.7085 180.299 52.7512 179.659 52.8365 178.912C52.9218 178.165 53.0818 177.397 53.3165 176.608C53.5725 175.819 53.9138 175.04 54.3405 174.272C54.7885 173.483 55.3645 172.779 56.0685 172.16C56.7725 171.541 57.6258 171.04 58.6285 170.656C59.6312 170.272 60.8258 170.08 62.2125 170.08C63.3218 170.08 64.2605 170.208 65.0285 170.464C65.7965 170.72 66.4152 171.072 66.8845 171.52C67.3538 171.947 67.6952 172.448 67.9085 173.024C68.1218 173.6 68.2285 174.219 68.2285 174.88C68.2285 175.861 68.0258 176.693 67.6205 177.376C67.2365 178.059 66.7245 178.635 66.0845 179.104C65.4658 179.552 64.7725 179.904 64.0045 180.16C63.2365 180.416 62.4792 180.619 61.7325 180.768C60.9858 180.896 60.2925 180.981 59.6525 181.024C59.0338 181.045 58.5538 181.056 58.2125 181.056C58.2125 181.461 58.2658 181.867 58.3725 182.272C58.5005 182.656 58.6818 182.997 58.9165 183.296C59.1512 183.595 59.4605 183.84 59.8445 184.032C60.2285 184.224 60.6978 184.32 61.2525 184.32C61.8072 184.32 62.2338 184.235 62.5325 184.064C62.8525 183.872 63.1085 183.669 63.3005 183.456C63.4925 183.221 63.6525 183.019 63.7805 182.848C63.9298 182.656 64.1218 182.56 64.3565 182.56C64.4632 182.56 64.6445 182.592 64.9005 182.656C65.1778 182.699 65.4552 182.805 65.7325 182.976C66.0098 183.147 66.2552 183.381 66.4685 183.68C66.6818 183.979 66.7885 184.363 66.7885 184.832C66.7885 185.451 66.5965 185.984 66.2125 186.432C65.8285 186.88 65.3272 187.243 64.7085 187.52C64.1112 187.797 63.4392 188 62.6925 188.128C61.9458 188.256 61.2205 188.32 60.5165 188.32ZM61.1245 174.336C60.6552 174.336 60.2498 174.475 59.9085 174.752C59.5885 175.008 59.3112 175.339 59.0765 175.744C58.8632 176.149 58.6925 176.597 58.5645 177.088C58.4578 177.579 58.3725 178.048 58.3085 178.496C59.6312 178.475 60.6978 178.251 61.5085 177.824C62.3405 177.397 62.7565 176.789 62.7565 176C62.7565 175.573 62.6178 175.189 62.3405 174.848C62.0845 174.507 61.6792 174.336 61.1245 174.336ZM83.1428 173.344C83.1428 173.835 83.1108 174.421 83.0468 175.104C82.9828 175.765 82.9081 176.437 82.8228 177.12C82.7588 177.781 82.6948 178.411 82.6308 179.008C82.5668 179.584 82.5348 180.032 82.5348 180.352C82.5348 181.163 82.7268 181.771 83.1108 182.176C83.5161 182.56 84.0068 182.752 84.5828 182.752C85.5854 182.752 86.3854 182.229 86.9828 181.184C87.5801 180.139 87.9534 178.752 88.1028 177.024L88.6148 171.04C88.6361 170.805 88.7108 170.645 88.8388 170.56C88.9881 170.453 89.1481 170.4 89.3188 170.4H90.4708C90.9188 170.4 91.3348 170.443 91.7188 170.528C92.1241 170.592 92.4761 170.731 92.7748 170.944C93.0734 171.136 93.3081 171.403 93.4788 171.744C93.6494 172.085 93.7348 172.523 93.7348 173.056C93.7348 173.269 93.7134 173.675 93.6708 174.272C93.6494 174.848 93.5961 175.691 93.5108 176.8C93.4468 177.888 93.3508 179.275 93.2228 180.96C93.0948 182.624 92.9454 184.661 92.7748 187.072C92.6681 188.48 92.3481 189.643 91.8148 190.56C91.3028 191.499 90.6521 192.235 89.8628 192.768C89.0734 193.323 88.1881 193.707 87.2068 193.92C86.2254 194.133 85.2228 194.24 84.1988 194.24C83.1108 194.24 82.1081 194.144 81.1908 193.952C80.2948 193.76 79.5161 193.493 78.8548 193.152C78.1934 192.811 77.6708 192.416 77.2868 191.968C76.9241 191.52 76.7428 191.04 76.7428 190.528C76.7428 190.123 76.8281 189.771 76.9988 189.472C77.1908 189.173 77.4361 188.928 77.7348 188.736C78.0334 188.544 78.3748 188.395 78.7588 188.288C79.1641 188.203 79.5801 188.16 80.0068 188.16C80.2201 188.16 80.3694 188.267 80.4548 188.48C80.5614 188.693 80.7108 188.928 80.9028 189.184C81.1161 189.461 81.4468 189.707 81.8948 189.92C82.3428 190.133 83.0148 190.24 83.9108 190.24C84.7001 190.24 85.3401 190.048 85.8308 189.664C86.3214 189.28 86.6948 188.789 86.9508 188.192C87.2281 187.595 87.4094 186.944 87.4948 186.24C87.5801 185.536 87.6228 184.864 87.6228 184.224C87.2814 184.821 86.8974 185.312 86.4708 185.696C86.0654 186.059 85.6388 186.347 85.1908 186.56C84.7428 186.752 84.2948 186.88 83.8468 186.944C83.3988 187.008 82.9721 187.04 82.5668 187.04C81.7774 187.04 81.0521 186.933 80.3908 186.72C79.7508 186.507 79.1961 186.165 78.7268 185.696C78.2574 185.205 77.8948 184.576 77.6388 183.808C77.3828 183.04 77.2548 182.112 77.2548 181.024C77.2548 180.619 77.2761 180.085 77.3188 179.424C77.3614 178.741 77.4148 177.984 77.4788 177.152C77.5428 176.299 77.6068 175.381 77.6708 174.4C77.7561 173.419 77.8414 172.416 77.9268 171.392C77.9694 170.731 78.2681 170.4 78.8228 170.4H79.8468C80.5294 170.4 81.0841 170.464 81.5108 170.592C81.9374 170.72 82.2681 170.912 82.5028 171.168C82.7588 171.403 82.9294 171.712 83.0148 172.096C83.1001 172.459 83.1428 172.875 83.1428 173.344ZM103.954 188.32C103.015 188.32 102.077 188.203 101.138 187.968C100.221 187.733 99.3887 187.328 98.642 186.752C97.9167 186.176 97.3193 185.408 96.85 184.448C96.3807 183.488 96.146 182.283 96.146 180.832C96.146 180.299 96.1887 179.659 96.274 178.912C96.3593 178.165 96.5193 177.397 96.754 176.608C97.01 175.819 97.3513 175.04 97.778 174.272C98.226 173.483 98.802 172.779 99.506 172.16C100.21 171.541 101.063 171.04 102.066 170.656C103.069 170.272 104.263 170.08 105.65 170.08C106.759 170.08 107.698 170.208 108.466 170.464C109.234 170.72 109.853 171.072 110.322 171.52C110.791 171.947 111.133 172.448 111.346 173.024C111.559 173.6 111.666 174.219 111.666 174.88C111.666 175.861 111.463 176.693 111.058 177.376C110.674 178.059 110.162 178.635 109.522 179.104C108.903 179.552 108.21 179.904 107.442 180.16C106.674 180.416 105.917 180.619 105.17 180.768C104.423 180.896 103.73 180.981 103.09 181.024C102.471 181.045 101.991 181.056 101.65 181.056C101.65 181.461 101.703 181.867 101.81 182.272C101.938 182.656 102.119 182.997 102.354 183.296C102.589 183.595 102.898 183.84 103.282 184.032C103.666 184.224 104.135 184.32 104.69 184.32C105.245 184.32 105.671 184.235 105.97 184.064C106.29 183.872 106.546 183.669 106.738 183.456C106.93 183.221 107.09 183.019 107.218 182.848C107.367 182.656 107.559 182.56 107.794 182.56C107.901 182.56 108.082 182.592 108.338 182.656C108.615 182.699 108.893 182.805 109.17 182.976C109.447 183.147 109.693 183.381 109.906 183.68C110.119 183.979 110.226 184.363 110.226 184.832C110.226 185.451 110.034 185.984 109.65 186.432C109.266 186.88 108.765 187.243 108.146 187.52C107.549 187.797 106.877 188 106.13 188.128C105.383 188.256 104.658 188.32 103.954 188.32ZM104.562 174.336C104.093 174.336 103.687 174.475 103.346 174.752C103.026 175.008 102.749 175.339 102.514 175.744C102.301 176.149 102.13 176.597 102.002 177.088C101.895 177.579 101.81 178.048 101.746 178.496C103.069 178.475 104.135 178.251 104.946 177.824C105.778 177.397 106.194 176.789 106.194 176C106.194 175.573 106.055 175.189 105.778 174.848C105.522 174.507 105.117 174.336 104.562 174.336ZM120.473 174.72C120.409 175.531 120.335 176.331 120.249 177.12C120.185 177.909 120.121 178.656 120.057 179.36C119.993 180.064 119.94 180.693 119.897 181.248C119.876 181.803 119.865 182.229 119.865 182.528C119.865 183.083 119.929 183.456 120.057 183.648C120.185 183.819 120.399 183.904 120.697 183.904C120.932 183.904 121.135 183.861 121.305 183.776C121.476 183.691 121.636 183.595 121.785 183.488C121.935 183.381 122.063 183.285 122.169 183.2C122.297 183.115 122.436 183.072 122.585 183.072C122.735 183.072 122.873 183.157 123.001 183.328C123.129 183.499 123.193 183.893 123.193 184.512C123.193 185.685 122.873 186.613 122.233 187.296C121.593 187.979 120.495 188.32 118.937 188.32C117.401 188.32 116.26 187.968 115.513 187.264C114.788 186.539 114.425 185.44 114.425 183.968C114.425 183.648 114.436 183.275 114.457 182.848C114.5 182.4 114.553 181.824 114.617 181.12C114.681 180.416 114.756 179.552 114.841 178.528C114.948 177.504 115.055 176.235 115.161 174.72H113.465C113.295 174.72 113.188 174.688 113.145 174.624C113.124 174.539 113.113 174.421 113.113 174.272L113.209 172.64C113.231 172.363 113.263 172.096 113.305 171.84C113.369 171.563 113.476 171.317 113.625 171.104C113.796 170.891 114.031 170.72 114.329 170.592C114.628 170.464 115.023 170.4 115.513 170.4C115.663 170.016 115.833 169.557 116.025 169.024C116.217 168.491 116.409 167.979 116.601 167.488C116.793 166.976 116.975 166.549 117.145 166.208C117.337 165.867 117.508 165.696 117.657 165.696H118.585C119.481 165.696 120.1 165.973 120.441 166.528C120.783 167.083 120.953 167.744 120.953 168.512C120.953 168.939 120.921 169.568 120.857 170.4H124.217C124.559 170.4 124.729 170.549 124.729 170.848L124.601 172.576C124.559 173.216 124.377 173.739 124.057 174.144C123.759 174.528 123.129 174.72 122.169 174.72H120.473Z" fill="#21CE99"/>
</svg>
